<svg class="main-svg" xmlns="http://www.w3.org/2000/svg" xmlns:xlink="http://www.w3.org/1999/xlink" width="700" height="500" style="" viewBox="0 0 700 500"><rect x="0" y="0" width="700" height="500" style="fill: rgb(255, 255, 255); fill-opacity: 1;"/><defs id="defs-f759ba"><g class="clips"/><g class="gradients"/></defs><g class="bglayer"/><g class="layer-below"><g class="imagelayer"/><g class="shapelayer"/></g><g class="cartesianlayer"/><g class="polarlayer"/><g class="ternarylayer"/><g class="geolayer"/><g class="funnelarealayer"/><g class="pielayer"><g class="trace" stroke-linejoin="round" style="opacity: 1;"><g class="slice"><path class="surface" d="M353.39772032589974,304.3638307919954a53.33333333333334,53.33333333333334 0 1 0 29.60227967410025,-97.69716412532871l0,-80a133.33333333333334,133.33333333333334 0 1 1 -74.00569918525062,244.24291031332177Z" style="pointer-events: all; stroke-width: 0; fill: rgb(255, 165, 0); fill-opacity: 1; stroke: rgb(68, 68, 68); stroke-opacity: 1;"/><g class="slicetext"><text data-notex="1" class="slicetext" transform="translate(472.82301907628204,282.46334788613035)" text-anchor="middle" x="0" y="0" style="font-family: 'Times New Roman'; font-size: 14px; fill: rgb(68, 68, 68); fill-opacity: 1; white-space: pre;"><tspan class="line" dy="0em" x="0" y="0">PV Energy</tspan><tspan class="line" dy="1.3em" x="0" y="0">59.4%</tspan></text></g></g><g class="slice"><path class="surface" d="M383,206.66666666666666a53.33333333333334,53.33333333333334 0 0 0 -47.63071548094971,77.32832004342058l-71.44607322142456,35.99248006513085a133.33333333333334,133.33333333333334 0 0 1 119.07678870237427,-193.32080010855142Z" style="pointer-events: all; stroke-width: 0; fill: rgb(65, 105, 225); fill-opacity: 1; stroke: rgb(68, 68, 68); stroke-opacity: 1;"/><g class="slicetext"><text data-notex="1" class="slicetext" transform="translate(308.53761386295724,213.54732973497366)rotate(-58.36882661036009)" text-anchor="middle" x="0" y="0" style="font-family: 'Times New Roman'; font-size: 14px; fill: rgb(255, 255, 255); fill-opacity: 1; white-space: pre;"><tspan class="line" dy="0em" x="0" y="0">Battery Energy</tspan><tspan class="line" dy="1.3em" x="0" y="0">32.4%</tspan></text></g></g><g class="slice"><path class="surface" d="M315.40083229145347,301.66903623885383a53.33333333333334,53.33333333333334 0 0 0 18.028435806849473,20.36884408190814l-44.403419511150354,66.54574618799306a133.33333333333334,133.33333333333334 0 0 1 -45.07108951712368,-50.92211020477035Z" style="pointer-events: all; stroke-width: 0; fill: rgb(178, 34, 34); fill-opacity: 1; stroke: rgb(68, 68, 68); stroke-opacity: 1;"/><g class="slicetext"><text data-notex="1" class="slicetext" transform="translate(219.8260053844192,368.73535553625175)" text-anchor="middle" x="0" y="0" style="font-family: 'Times New Roman'; font-size: 14px; fill: rgb(0, 0, 0); fill-opacity: 1; white-space: pre;"><tspan class="line" dy="0em" x="0" y="0">ENS Energy</tspan><tspan class="line" dy="1.3em" x="0" y="0">8.21%</tspan></text></g></g><g class="slice"><path class="surface" d="M353.39772032589974,304.3638307919954a53.33333333333334,53.33333333333334 0 0 0 0,0l-44.403419511150354,66.54574618799306a133.33333333333334,133.33333333333334 0 0 1 0,0Z" style="pointer-events: all; stroke-width: 0; fill: rgb(46, 139, 87); fill-opacity: 1; stroke: rgb(68, 68, 68); stroke-opacity: 1;"/><g class="slicetext"><text data-notex="1" class="slicetext" transform="translate(260.9591445647494,401.93848053625175)" text-anchor="middle" x="0" y="0" style="font-family: 'Times New Roman'; font-size: 14px; fill: rgb(0, 0, 0); fill-opacity: 1; white-space: pre;"><tspan class="line" dy="0em" x="0" y="0">Diesel Energy</tspan><tspan class="line" dy="1.3em" x="0" y="0">0%</tspan></text></g><path class="textline" stroke-width="1.75" d="M308.9943008147494,370.9095769799884V406.54004303625175h-8.30078125" fill="none" style="stroke: rgb(0, 0, 0); stroke-opacity: 1;"/></g><g class="titletext"><text data-notex="1" class="titletext" transform="translate(383,260)translate(0,6.5)" text-anchor="middle" x="0" y="0" style="font-family: 'Times New Roman'; font-size: 14px; fill: rgb(0, 0, 0); fill-opacity: 1; white-space: pre;">Supply Load</text></g></g></g><g class="treemaplayer"/><g class="sunburstlayer"/><g class="glimages"/><defs id="topdefs-f759ba"><g class="clips"/></defs><g class="layer-above"><g class="imagelayer"/><g class="shapelayer"/></g><g class="infolayer"><g class="g-gtitle"/></g></svg>