<svg class="main-svg" xmlns="http://www.w3.org/2000/svg" xmlns:xlink="http://www.w3.org/1999/xlink" width="700" height="500" style="" viewBox="0 0 700 500"><rect x="0" y="0" width="700" height="500" style="fill: rgb(255, 255, 255); fill-opacity: 1;"/><defs id="defs-6987d8"><g class="clips"/><g class="gradients"/></defs><g class="bglayer"/><g class="layer-below"><g class="imagelayer"/><g class="shapelayer"/></g><g class="cartesianlayer"/><g class="polarlayer"/><g class="ternarylayer"/><g class="geolayer"/><g class="funnelarealayer"/><g class="pielayer"><g class="trace" stroke-linejoin="round" style="opacity: 1;"><g class="slice"><path class="surface" d="M369.0543611512945,303.02474118160853a51.66666666666668,51.66666666666668 0 0 0 -19.054361151294454,-99.69140784827522l0,-77.50000000000001a129.16666666666669,129.16666666666669 0 0 1 47.63590287823614,249.22851962068802Z" style="pointer-events: all; stroke-width: 0; fill: rgb(255, 165, 0); fill-opacity: 1; stroke: rgb(68, 68, 68); stroke-opacity: 1;"/><g class="slicetext"><text data-notex="1" class="slicetext" transform="translate(438.7074696635682,233.72874968656288)" text-anchor="middle" x="0" y="0" style="font-family: 'Times New Roman'; font-size: 14px; fill: rgb(68, 68, 68); fill-opacity: 1; white-space: pre;"><tspan class="line" dy="0em" x="0" y="0">PV Energy</tspan><tspan class="line" dy="1.3em" x="0" y="0">44%</tspan></text></g></g><g class="slice"><path class="surface" d="M350,203.33333333333331a51.66666666666668,51.66666666666668 0 0 0 -51.626962310462254,49.641522958542296l-77.44044346569338,-3.0377155621865666a129.16666666666669,129.16666666666669 0 0 1 129.06740577615562,-124.10380739635573Z" style="pointer-events: all; stroke-width: 0; fill: rgb(46, 139, 87); fill-opacity: 1; stroke: rgb(68, 68, 68); stroke-opacity: 1;"/><g class="slicetext"><text data-notex="1" class="slicetext" transform="translate(285.01164967058526,187.55893724147805)rotate(-43.87682013875565)" text-anchor="middle" x="0" y="0" style="font-family: 'Times New Roman'; font-size: 14px; fill: rgb(255, 255, 255); fill-opacity: 1; white-space: pre;"><tspan class="line" dy="0em" x="0" y="0">Diesel Energy</tspan><tspan class="line" dy="1.3em" x="0" y="0">24.4%</tspan></text></g></g><g class="slice"><path class="surface" d="M298.37303768953774,252.97485629187562a51.66666666666668,51.66666666666668 0 0 0 40.99866372316023,52.586825974279236l-15.942447880953042,75.84252339923229a129.16666666666669,129.16666666666669 0 0 1 -102.49665930790056,-131.4670649356981Z" style="pointer-events: all; stroke-width: 0; fill: rgb(65, 105, 225); fill-opacity: 1; stroke: rgb(68, 68, 68); stroke-opacity: 1;"/><g class="slicetext"><text data-notex="1" class="slicetext" transform="translate(280.0703365810341,309.39100919454586)rotate(52.05868319302385)" text-anchor="middle" x="0" y="0" style="font-family: 'Times New Roman'; font-size: 14px; fill: rgb(255, 255, 255); fill-opacity: 1; white-space: pre;"><tspan class="line" dy="0em" x="0" y="0">Battery Energy</tspan><tspan class="line" dy="1.3em" x="0" y="0">22.3%</tspan></text></g></g><g class="slice"><path class="surface" d="M341.5716247124799,331.3011742694207a51.66666666666668,51.66666666666668 0 0 0 29.682659738596495,-2.5369410845463394l28.581541726941698,72.03711177241279a129.16666666666669,129.16666666666669 0 0 1 -74.20664934649123,6.342352711365848Z" style="pointer-events: all; stroke-width: 0; fill: rgb(178, 34, 34); fill-opacity: 1; stroke: rgb(68, 68, 68); stroke-opacity: 1;"/><g class="slicetext"><text data-notex="1" class="slicetext" transform="translate(407.6292272986915,422.12537586407205)" text-anchor="middle" x="0" y="0" style="font-family: 'Times New Roman'; font-size: 14px; fill: rgb(0, 0, 0); fill-opacity: 1; white-space: pre;"><tspan class="line" dy="0em" x="0" y="0">ENS Energy</tspan><tspan class="line" dy="1.3em" x="0" y="0">9.31%</tspan></text></g></g><g class="titletext"><text data-notex="1" class="titletext" transform="translate(350,255)translate(0,5.9921875)" text-anchor="middle" x="0" y="0" style="font-family: 'Times New Roman'; font-size: 14px; fill: rgb(0, 0, 0); fill-opacity: 1; white-space: pre;">Supply Load</text></g></g></g><g class="treemaplayer"/><g class="sunburstlayer"/><g class="glimages"/><defs id="topdefs-6987d8"><g class="clips"/></defs><g class="layer-above"><g class="imagelayer"/><g class="shapelayer"/></g><g class="infolayer"><g class="g-gtitle"/></g></svg>