<svg class="main-svg" xmlns="http://www.w3.org/2000/svg" xmlns:xlink="http://www.w3.org/1999/xlink" width="700" height="500" style="" viewBox="0 0 700 500"><rect x="0" y="0" width="700" height="500" style="fill: rgb(255, 255, 255); fill-opacity: 1;"/><defs id="defs-661603"><g class="clips"/><g class="gradients"/></defs><g class="bglayer"/><g class="layer-below"><g class="imagelayer"/><g class="shapelayer"/></g><g class="cartesianlayer"/><g class="polarlayer"/><g class="ternarylayer"/><g class="geolayer"/><g class="funnelarealayer"/><g class="pielayer"><g class="trace" stroke-linejoin="round" style="opacity: 1;"><g class="slice"><path class="surface" d="M353.1800044167794,298.1006873181159a53.33333333333334,53.33333333333334 0 1 0 37.31999558322062,-91.43402065144926l0,-80a133.33333333333334,133.33333333333334 0 1 1 -93.29998895805154,228.58505162862312Z" style="pointer-events: all; stroke-width: 0; fill: rgb(255, 165, 0); fill-opacity: 1; stroke: rgb(68, 68, 68); stroke-opacity: 1;"/><g class="slicetext"><text data-notex="1" class="slicetext" transform="translate(477.41245099252205,290.66881351977173)" text-anchor="middle" x="0" y="0" style="font-family: 'Times New Roman'; font-size: 14px; fill: rgb(68, 68, 68); fill-opacity: 1; white-space: pre;"><tspan class="line" dy="0em" x="0" y="0">PV Energy</tspan><tspan class="line" dy="1.3em" x="0" y="0">62.3%</tspan></text></g></g><g class="slice"><path class="surface" d="M390.5,206.66666666666666a53.33333333333334,53.33333333333334 0 0 0 -53.28722701789763,55.55051198817521l-79.93084052684644,3.325767982262808a133.33333333333334,133.33333333333334 0 0 1 133.21806754474406,-138.87627997043802Z" style="pointer-events: all; stroke-width: 0; fill: rgb(65, 105, 225); fill-opacity: 1; stroke: rgb(68, 68, 68); stroke-opacity: 1;"/><g class="slicetext"><text data-notex="1" class="slicetext" transform="translate(322.0099884682204,193.6076134725676)rotate(-46.1912962404366)" text-anchor="middle" x="0" y="0" style="font-family: 'Times New Roman'; font-size: 14px; fill: rgb(255, 255, 255); fill-opacity: 1; white-space: pre;"><tspan class="line" dy="0em" x="0" y="0">Battery Energy</tspan><tspan class="line" dy="1.3em" x="0" y="0">25.7%</tspan></text></g></g><g class="slice"><path class="surface" d="M337.21277298210236,262.21717865484186a53.33333333333334,53.33333333333334 0 0 0 11.819546666682982,31.321991441240296l-62.20152052682196,50.308755144123246a133.33333333333334,133.33333333333334 0 0 1 -29.548866666707454,-78.30497860310074Z" style="pointer-events: all; stroke-width: 0; fill: rgb(46, 139, 87); fill-opacity: 1; stroke: rgb(68, 68, 68); stroke-opacity: 1;"/><g class="slicetext"><text data-notex="1" class="slicetext" transform="translate(217.71785218824067,304.54183711192206)" text-anchor="middle" x="0" y="0" style="font-family: 'Times New Roman'; font-size: 14px; fill: rgb(0, 0, 0); fill-opacity: 1; white-space: pre;"><tspan class="line" dy="0em" x="0" y="0">Diesel Energy</tspan><tspan class="line" dy="1.3em" x="0" y="0">10.2%</tspan></text></g></g><g class="slice"><path class="surface" d="M329.30241639491,311.4791263029359a53.33333333333334,53.33333333333334 0 0 0 4.147684767994031,4.561517222033752l-55.97999337483092,57.151030977173875a133.33333333333334,133.33333333333334 0 0 1 -10.369211919985077,-11.403793055084378Z" style="pointer-events: all; stroke-width: 0; fill: rgb(178, 34, 34); fill-opacity: 1; stroke: rgb(68, 68, 68); stroke-opacity: 1;"/><g class="slicetext"><text data-notex="1" class="slicetext" transform="translate(228.75729922674788,370.55188177110387)" text-anchor="middle" x="0" y="0" style="font-family: 'Times New Roman'; font-size: 14px; fill: rgb(0, 0, 0); fill-opacity: 1; white-space: pre;"><tspan class="line" dy="0em" x="0" y="0">ENS Energy</tspan><tspan class="line" dy="1.3em" x="0" y="0">1.84%</tspan></text></g></g><g class="titletext"><text data-notex="1" class="titletext" transform="translate(390.5,260)translate(0,6.5)" text-anchor="middle" x="0" y="0" style="font-family: 'Times New Roman'; font-size: 14px; fill: rgb(0, 0, 0); fill-opacity: 1; white-space: pre;">Supply Load</text></g></g></g><g class="treemaplayer"/><g class="sunburstlayer"/><g class="glimages"/><defs id="topdefs-661603"><g class="clips"/></defs><g class="layer-above"><g class="imagelayer"/><g class="shapelayer"/></g><g class="infolayer"><g class="g-gtitle"/></g></svg>