<svg class="main-svg" xmlns="http://www.w3.org/2000/svg" xmlns:xlink="http://www.w3.org/1999/xlink" width="700" height="500" style="" viewBox="0 0 700 500"><rect x="0" y="0" width="700" height="500" style="fill: rgb(255, 255, 255); fill-opacity: 1;"/><defs id="defs-f337f4"><g class="clips"/><g class="gradients"/></defs><g class="bglayer"/><g class="layer-below"><g class="imagelayer"/><g class="shapelayer"/></g><g class="cartesianlayer"/><g class="polarlayer"/><g class="ternarylayer"/><g class="geolayer"/><g class="funnelarealayer"/><g class="pielayer"><g class="trace" stroke-linejoin="round" style="opacity: 1;"><g class="slice"><path class="surface" d="M349.30177360905896,297.72649163945414a53.33333333333334,53.33333333333334 0 1 0 37.69822639094104,-91.05982497278745l0,-80a133.33333333333334,133.33333333333334 0 1 1 -94.2455659773526,227.64956243196863Z" style="pointer-events: all; stroke-width: 0; fill: rgb(255, 165, 0); fill-opacity: 1; stroke: rgb(68, 68, 68); stroke-opacity: 1;"/><g class="slicetext"><text data-notex="1" class="slicetext" transform="translate(473.7354473101267,291.0994002087768)" text-anchor="middle" x="0" y="0" style="font-family: 'Times New Roman'; font-size: 14px; fill: rgb(68, 68, 68); fill-opacity: 1; white-space: pre;"><tspan class="line" dy="0em" x="0" y="0">PV Energy</tspan><tspan class="line" dy="1.3em" x="0" y="0">62.5%</tspan></text></g></g><g class="slice"><path class="surface" d="M387,206.66666666666666a53.33333333333334,53.33333333333334 0 0 0 -46.71557866548708,79.06462079418793l-70.07336799823061,38.59693119128189a133.33333333333334,133.33333333333334 0 0 1 116.7889466637177,-197.66155198546983Z" style="pointer-events: all; stroke-width: 0; fill: rgb(65, 105, 225); fill-opacity: 1; stroke: rgb(68, 68, 68); stroke-opacity: 1;"/><g class="slicetext"><text data-notex="1" class="slicetext" transform="translate(311.6954740747137,214.9253297389632)rotate(-59.42314969698634)" text-anchor="middle" x="0" y="0" style="font-family: 'Times New Roman'; font-size: 14px; fill: rgb(255, 255, 255); fill-opacity: 1; white-space: pre;"><tspan class="line" dy="0em" x="0" y="0">Battery Energy</tspan><tspan class="line" dy="1.3em" x="0" y="0">33%</tspan></text></g></g><g class="slice"><path class="surface" d="M318.9689700617405,301.7551024919007a53.33333333333334,53.33333333333334 0 0 0 9.017352274546045,11.995204178599534l-56.547339586411546,56.58973745918119a133.33333333333334,133.33333333333334 0 0 1 -22.54338068636511,-29.988010446498834Z" style="pointer-events: all; stroke-width: 0; fill: rgb(178, 34, 34); fill-opacity: 1; stroke: rgb(68, 68, 68); stroke-opacity: 1;"/><g class="slicetext"><text data-notex="1" class="slicetext" transform="translate(215.74401111336567,357.5356949297493)" text-anchor="middle" x="0" y="0" style="font-family: 'Times New Roman'; font-size: 14px; fill: rgb(0, 0, 0); fill-opacity: 1; white-space: pre;"><tspan class="line" dy="0em" x="0" y="0">ENS Energy</tspan><tspan class="line" dy="1.3em" x="0" y="0">4.49%</tspan></text></g></g><g class="slice"><path class="surface" d="M349.30177360905896,297.72649163945414a53.33333333333334,53.33333333333334 0 0 0 0,0l-56.547339586411546,56.58973745918119a133.33333333333334,133.33333333333334 0 0 1 0,0Z" style="pointer-events: all; stroke-width: 0; fill: rgb(46, 139, 87); fill-opacity: 1; stroke: rgb(68, 68, 68); stroke-opacity: 1;"/><g class="slicetext"><text data-notex="1" class="slicetext" transform="translate(244.7192777726474,390.7388199297493)" text-anchor="middle" x="0" y="0" style="font-family: 'Times New Roman'; font-size: 14px; fill: rgb(0, 0, 0); fill-opacity: 1; white-space: pre;"><tspan class="line" dy="0em" x="0" y="0">Diesel Energy</tspan><tspan class="line" dy="1.3em" x="0" y="0">0%</tspan></text></g><path class="textline" stroke-width="1.75" d="M292.7544340226474,354.3162290986353V395.3403824297493h-8.30078125" fill="none" style="stroke: rgb(0, 0, 0); stroke-opacity: 1;"/></g><g class="titletext"><text data-notex="1" class="titletext" transform="translate(387,260)translate(0,6.5)" text-anchor="middle" x="0" y="0" style="font-family: 'Times New Roman'; font-size: 14px; fill: rgb(0, 0, 0); fill-opacity: 1; white-space: pre;">Supply Load</text></g></g></g><g class="treemaplayer"/><g class="sunburstlayer"/><g class="glimages"/><defs id="topdefs-f337f4"><g class="clips"/></defs><g class="layer-above"><g class="imagelayer"/><g class="shapelayer"/></g><g class="infolayer"><g class="g-gtitle"/></g></svg>