<svg class="main-svg" xmlns="http://www.w3.org/2000/svg" xmlns:xlink="http://www.w3.org/1999/xlink" width="700" height="500" style="" viewBox="0 0 700 500"><rect x="0" y="0" width="700" height="500" style="fill: rgb(255, 255, 255); fill-opacity: 1;"/><defs id="defs-1c3acc"><g class="clips"/><g class="gradients"/></defs><g class="bglayer"/><g class="layer-below"><g class="imagelayer"/><g class="shapelayer"/></g><g class="cartesianlayer"/><g class="polarlayer"/><g class="ternarylayer"/><g class="geolayer"/><g class="funnelarealayer"/><g class="pielayer"><g class="trace" stroke-linejoin="round" style="opacity: 1;"><g class="slice"><path class="surface" d="M364.16947713925794,305.89405142743215a53.33333333333334,53.33333333333334 0 0 0 -27.16947713925792,-99.22738476076547l0,-80a133.33333333333334,133.33333333333334 0 0 1 67.9236928481448,248.06846190191368Z" style="pointer-events: all; stroke-width: 0; fill: rgb(255, 165, 0); fill-opacity: 1; stroke: rgb(68, 68, 68); stroke-opacity: 1;"/><g class="slicetext"><text data-notex="1" class="slicetext" transform="translate(427.51982979023296,230.75008348500342)" text-anchor="middle" x="0" y="0" style="font-family: 'Times New Roman'; font-size: 14px; fill: rgb(68, 68, 68); fill-opacity: 1; white-space: pre;"><tspan class="line" dy="0em" x="0" y="0">PV Energy</tspan><tspan class="line" dy="1.3em" x="0" y="0">41.5%</tspan></text></g></g><g class="slice"><path class="surface" d="M337,206.66666666666666a53.33333333333334,53.33333333333334 0 0 0 -51.53338495749522,67.07213529227614l-77.30007743624283,20.608202938414205a133.33333333333334,133.33333333333334 0 0 1 128.83346239373805,-167.68033823069035Z" style="pointer-events: all; stroke-width: 0; fill: rgb(65, 105, 225); fill-opacity: 1; stroke: rgb(68, 68, 68); stroke-opacity: 1;"/><g class="slicetext"><text data-notex="1" class="slicetext" transform="translate(266.0412100373246,204.84984932492034)rotate(-52.46392628952208)" text-anchor="middle" x="0" y="0" style="font-family: 'Times New Roman'; font-size: 14px; fill: rgb(255, 255, 255); fill-opacity: 1; white-space: pre;"><tspan class="line" dy="0em" x="0" y="0">Battery Energy</tspan><tspan class="line" dy="1.3em" x="0" y="0">29.1%</tspan></text></g></g><g class="slice"><path class="surface" d="M285.46661504250477,273.7388019589428a53.33333333333334,53.33333333333334 0 0 0 77.93607333063454,32.60062500250482l39.604032559708976,69.50914044217143a133.33333333333334,133.33333333333334 0 0 1 -194.84018332658633,-81.50156250626205Z" style="pointer-events: all; stroke-width: 0; fill: rgb(46, 139, 87); fill-opacity: 1; stroke: rgb(68, 68, 68); stroke-opacity: 1;"/><g class="slicetext"><text data-notex="1" class="slicetext" transform="translate(306.3980476519954,334.45366121817136)rotate(22.699536567307405)" text-anchor="middle" x="0" y="0" style="font-family: 'Times New Roman'; font-size: 14px; fill: rgb(255, 255, 255); fill-opacity: 1; white-space: pre;"><tspan class="line" dy="0em" x="0" y="0">Diesel Energy</tspan><tspan class="line" dy="1.3em" x="0" y="0">29.1%</tspan></text></g></g><g class="slice"><path class="surface" d="M376.7961925753962,329.39859338816905a53.33333333333334,53.33333333333334 0 0 0 0.7667887661186058,-0.4453755340154885l40.75421570888688,68.8410771411482a133.33333333333334,133.33333333333334 0 0 1 -1.9169719152965143,1.1134388350387212Z" style="pointer-events: all; stroke-width: 0; fill: rgb(178, 34, 34); fill-opacity: 1; stroke: rgb(68, 68, 68); stroke-opacity: 1;"/><g class="slicetext"><text data-notex="1" class="slicetext" transform="translate(461.72430646354155,406.1670635190034)" text-anchor="middle" x="0" y="0" style="font-family: 'Times New Roman'; font-size: 14px; fill: rgb(0, 0, 0); fill-opacity: 1; white-space: pre;"><tspan class="line" dy="0em" x="0" y="0">ENS Energy</tspan><tspan class="line" dy="1.3em" x="0" y="0">0.265%</tspan></text></g></g><g class="titletext"><text data-notex="1" class="titletext" transform="translate(337,260)translate(0,6.5)" text-anchor="middle" x="0" y="0" style="font-family: 'Times New Roman'; font-size: 14px; fill: rgb(0, 0, 0); fill-opacity: 1; white-space: pre;">Supply Load</text></g></g></g><g class="treemaplayer"/><g class="sunburstlayer"/><g class="glimages"/><defs id="topdefs-1c3acc"><g class="clips"/></defs><g class="layer-above"><g class="imagelayer"/><g class="shapelayer"/></g><g class="infolayer"><g class="g-gtitle"/></g></svg>