<svg class="main-svg" xmlns="http://www.w3.org/2000/svg" xmlns:xlink="http://www.w3.org/1999/xlink" width="700" height="500" style="" viewBox="0 0 700 500"><rect x="0" y="0" width="700" height="500" style="fill: rgb(255, 255, 255); fill-opacity: 1;"/><defs id="defs-0e1cf3"><g class="clips"/><g class="gradients"/></defs><g class="bglayer"/><g class="layer-below"><g class="imagelayer"/><g class="shapelayer"/></g><g class="cartesianlayer"/><g class="polarlayer"/><g class="ternarylayer"/><g class="geolayer"/><g class="funnelarealayer"/><g class="pielayer"><g class="trace" stroke-linejoin="round" style="opacity: 1;"><g class="slice"><path class="surface" d="M379.4470033280093,301.1344795699735a53.33333333333334,53.33333333333334 0 0 0 -33.94700332800934,-94.46781290330685l0,-80a133.33333333333334,133.33333333333334 0 0 1 84.86750832002335,236.1695322582671Z" style="pointer-events: all; stroke-width: 0; fill: rgb(46, 139, 87); fill-opacity: 1; stroke: rgb(68, 68, 68); stroke-opacity: 1;"/><g class="slicetext"><text data-notex="1" class="slicetext" transform="translate(428.9341110324276,230.5492600324243)rotate(70.23410270683826)" text-anchor="middle" x="0" y="0" style="font-family: 'Times New Roman'; font-size: 14px; fill: rgb(255, 255, 255); fill-opacity: 1; white-space: pre;"><tspan class="line" dy="0em" x="0" y="0">Diesel Energy</tspan><tspan class="line" dy="1.3em" x="0" y="0">39%</tspan></text></g></g><g class="slice"><path class="surface" d="M345.5,206.66666666666666a53.33333333333334,53.33333333333334 0 0 0 -45.37387923863437,81.3628807303619l-68.06081885795156,42.04432109554282a133.33333333333334,133.33333333333334 0 0 1 113.43469809658593,-203.4072018259047Z" style="pointer-events: all; stroke-width: 0; fill: rgb(255, 165, 0); fill-opacity: 1; stroke: rgb(68, 68, 68); stroke-opacity: 1;"/><g class="slicetext"><text data-notex="1" class="slicetext" transform="translate(264.4853678187393,209.93993057923882)" text-anchor="middle" x="0" y="0" style="font-family: 'Times New Roman'; font-size: 14px; fill: rgb(68, 68, 68); fill-opacity: 1; white-space: pre;"><tspan class="line" dy="0em" x="0" y="0">PV Energy</tspan><tspan class="line" dy="1.3em" x="0" y="0">33.8%</tspan></text></g></g><g class="slice"><path class="surface" d="M300.12612076136566,288.0295473970285a53.33333333333334,53.33333333333334 0 0 0 51.46086560561644,24.955290447515427l9.130479550473101,79.47725676681596a133.33333333333334,133.33333333333334 0 0 1 -128.6521640140411,-62.388226118788566Z" style="pointer-events: all; stroke-width: 0; fill: rgb(65, 105, 225); fill-opacity: 1; stroke: rgb(68, 68, 68); stroke-opacity: 1;"/><g class="slicetext"><text data-notex="1" class="slicetext" transform="translate(303.0563402181169,348.6699254824841)rotate(25.870474320548283)" text-anchor="middle" x="0" y="0" style="font-family: 'Times New Roman'; font-size: 14px; fill: rgb(255, 255, 255); fill-opacity: 1; white-space: pre;"><tspan class="line" dy="0em" x="0" y="0">Battery Energy</tspan><tspan class="line" dy="1.3em" x="0" y="0">18%</tspan></text></g></g><g class="slice"><path class="surface" d="M362.0247522981283,337.523871107444a53.33333333333334,53.33333333333334 0 0 0 27.860016961027284,-11.850358274570477l50.920504992014024,61.70171935496024a133.33333333333334,133.33333333333334 0 0 1 -69.6500424025682,29.62589568642619Z" style="pointer-events: all; stroke-width: 0; fill: rgb(178, 34, 34); fill-opacity: 1; stroke: rgb(68, 68, 68); stroke-opacity: 1;"/><g class="slicetext"><text data-notex="1" class="slicetext" transform="translate(452.48987683687756,416.69072964974055)" text-anchor="middle" x="0" y="0" style="font-family: 'Times New Roman'; font-size: 14px; fill: rgb(0, 0, 0); fill-opacity: 1; white-space: pre;"><tspan class="line" dy="0em" x="0" y="0">ENS Energy</tspan><tspan class="line" dy="1.3em" x="0" y="0">9.16%</tspan></text></g></g><g class="titletext"><text data-notex="1" class="titletext" transform="translate(345.5,260)translate(0,6.5)" text-anchor="middle" x="0" y="0" style="font-family: 'Times New Roman'; font-size: 14px; fill: rgb(0, 0, 0); fill-opacity: 1; white-space: pre;">Supply Load</text></g></g></g><g class="treemaplayer"/><g class="sunburstlayer"/><g class="glimages"/><defs id="topdefs-0e1cf3"><g class="clips"/></defs><g class="layer-above"><g class="imagelayer"/><g class="shapelayer"/></g><g class="infolayer"><g class="g-gtitle"/></g></svg>