<svg class="main-svg" xmlns="http://www.w3.org/2000/svg" xmlns:xlink="http://www.w3.org/1999/xlink" width="700" height="500" style="" viewBox="0 0 700 500"><rect x="0" y="0" width="700" height="500" style="fill: rgb(255, 255, 255); fill-opacity: 1;"/><defs id="defs-041f6f"><g class="clips"/><g class="gradients"/></defs><g class="bglayer"/><g class="layer-below"><g class="imagelayer"/><g class="shapelayer"/></g><g class="cartesianlayer"/><g class="polarlayer"/><g class="ternarylayer"/><g class="geolayer"/><g class="funnelarealayer"/><g class="pielayer"><g class="trace" stroke-linejoin="round" style="opacity: 1;"><g class="slice"><path class="surface" d="M358.9242898310527,298.4842989401764a53.33333333333334,53.33333333333334 0 0 0 -36.9242898310527,-91.81763227350974l0,-80a133.33333333333334,133.33333333333334 0 0 1 92.31072457763175,229.54408068377435Z" style="pointer-events: all; stroke-width: 0; fill: rgb(255, 165, 0); fill-opacity: 1; stroke: rgb(68, 68, 68); stroke-opacity: 1;"/><g class="slicetext"><text data-notex="1" class="slicetext" transform="translate(409.0935330668711,220.57500943629816)" text-anchor="middle" x="0" y="0" style="font-family: 'Times New Roman'; font-size: 14px; fill: rgb(68, 68, 68); fill-opacity: 1; white-space: pre;"><tspan class="line" dy="0em" x="0" y="0">PV Energy</tspan><tspan class="line" dy="1.3em" x="0" y="0">37.8%</tspan></text></g></g><g class="slice"><path class="surface" d="M322,206.66666666666666a53.33333333333334,53.33333333333334 0 0 0 -48.04517782807764,76.48728185000846l-72.06776674211646,34.73092277501267a133.33333333333334,133.33333333333334 0 0 1 120.1129445701941,-191.21820462502114Z" style="pointer-events: all; stroke-width: 0; fill: rgb(46, 139, 87); fill-opacity: 1; stroke: rgb(68, 68, 68); stroke-opacity: 1;"/><g class="slicetext"><text data-notex="1" class="slicetext" transform="translate(247.34293483000852,212.5140063954342)rotate(-57.86518148014079)" text-anchor="middle" x="0" y="0" style="font-family: 'Times New Roman'; font-size: 14px; fill: rgb(255, 255, 255); fill-opacity: 1; white-space: pre;"><tspan class="line" dy="0em" x="0" y="0">Diesel Energy</tspan><tspan class="line" dy="1.3em" x="0" y="0">32.1%</tspan></text></g></g><g class="slice"><path class="surface" d="M273.9548221719224,283.1539485166751a53.33333333333334,53.33333333333334 0 0 0 84.36760750639729,15.898907290653097l54.48364451747947,58.579283710992314a133.33333333333334,133.33333333333334 0 0 1 -210.9190187659932,-39.74726822663274Z" style="pointer-events: all; stroke-width: 0; fill: rgb(65, 105, 225); fill-opacity: 1; stroke: rgb(68, 68, 68); stroke-opacity: 1;"/><g class="slicetext"><text data-notex="1" class="slicetext" transform="translate(307.7392750055898,338.37454014387157)rotate(10.672118200664727)" text-anchor="middle" x="0" y="0" style="font-family: 'Times New Roman'; font-size: 14px; fill: rgb(255, 255, 255); fill-opacity: 1; white-space: pre;"><tspan class="line" dy="0em" x="0" y="0">Battery Energy</tspan><tspan class="line" dy="1.3em" x="0" y="0">29.8%</tspan></text></g></g><g class="slice"><path class="surface" d="M376.63466120501346,318.437728456481a53.33333333333334,53.33333333333334 0 0 0 0.6018601527330305,-0.5685568671517786l55.38643474657901,57.726448410264645a133.33333333333334,133.33333333333334 0 0 1 -1.504650381832576,1.4213921678794463Z" style="pointer-events: all; stroke-width: 0; fill: rgb(178, 34, 34); fill-opacity: 1; stroke: rgb(68, 68, 68); stroke-opacity: 1;"/><g class="slicetext"><text data-notex="1" class="slicetext" transform="translate(476.23667041016313,380.480456751614)" text-anchor="middle" x="0" y="0" style="font-family: 'Times New Roman'; font-size: 14px; fill: rgb(0, 0, 0); fill-opacity: 1; white-space: pre;"><tspan class="line" dy="0em" x="0" y="0">ENS Energy</tspan><tspan class="line" dy="1.3em" x="0" y="0">0.247%</tspan></text></g></g><g class="titletext"><text data-notex="1" class="titletext" transform="translate(322,260)translate(0,6.5)" text-anchor="middle" x="0" y="0" style="font-family: 'Times New Roman'; font-size: 14px; fill: rgb(0, 0, 0); fill-opacity: 1; white-space: pre;">Supply Load</text></g></g></g><g class="treemaplayer"/><g class="sunburstlayer"/><g class="glimages"/><defs id="topdefs-041f6f"><g class="clips"/></defs><g class="layer-above"><g class="imagelayer"/><g class="shapelayer"/></g><g class="infolayer"><g class="g-gtitle"/></g></svg>