<svg class="main-svg" xmlns="http://www.w3.org/2000/svg" xmlns:xlink="http://www.w3.org/1999/xlink" width="700" height="500" style="" viewBox="0 0 700 500"><rect x="0" y="0" width="700" height="500" style="fill: rgb(255, 255, 255); fill-opacity: 1;"/><defs id="defs-bd7ee6"><g class="clips"/><g class="gradients"/></defs><g class="bglayer"/><g class="layer-below"><g class="imagelayer"/><g class="shapelayer"/></g><g class="cartesianlayer"/><g class="polarlayer"/><g class="ternarylayer"/><g class="geolayer"/><g class="funnelarealayer"/><g class="pielayer"><g class="trace" stroke-linejoin="round" style="opacity: 1;"><g class="slice"><path class="surface" d="M372.41619408582704,295.9278177493827a53.33333333333334,53.33333333333334 0 0 0 -39.41619408582703,-89.26115108271605l0,-80a133.33333333333334,133.33333333333334 0 0 1 98.54048521456757,223.15287770679012Z" style="pointer-events: all; stroke-width: 0; fill: rgb(46, 139, 87); fill-opacity: 1; stroke: rgb(68, 68, 68); stroke-opacity: 1;"/><g class="slicetext"><text data-notex="1" class="slicetext" transform="translate(414.139872101057,224.71660271695296)rotate(66.17456878821952)" text-anchor="middle" x="0" y="0" style="font-family: 'Times New Roman'; font-size: 14px; fill: rgb(255, 255, 255); fill-opacity: 1; white-space: pre;"><tspan class="line" dy="0em" x="0" y="0">Diesel Energy</tspan><tspan class="line" dy="1.3em" x="0" y="0">36.8%</tspan></text></g></g><g class="slice"><path class="surface" d="M333,206.66666666666666a53.33333333333334,53.33333333333334 0 0 0 -39.99106204843979,88.62014957796335l-59.98659307265967,52.930224366945005a133.33333333333334,133.33333333333334 0 0 1 99.97765512109946,-221.55037394490836Z" style="pointer-events: all; stroke-width: 0; fill: rgb(255, 165, 0); fill-opacity: 1; stroke: rgb(68, 68, 68); stroke-opacity: 1;"/><g class="slicetext"><text data-notex="1" class="slicetext" transform="translate(248.42760603148827,217.00834899297206)" text-anchor="middle" x="0" y="0" style="font-family: 'Times New Roman'; font-size: 14px; fill: rgb(68, 68, 68); fill-opacity: 1; white-space: pre;"><tspan class="line" dy="0em" x="0" y="0">PV Energy</tspan><tspan class="line" dy="1.3em" x="0" y="0">36.5%</tspan></text></g></g><g class="slice"><path class="surface" d="M293.0089379515602,295.28681624463a53.33333333333334,53.33333333333334 0 0 0 57.76380992168238,14.998110696537925l26.65912180986388,75.42739041175189a133.33333333333334,133.33333333333334 0 0 1 -144.40952480420594,-37.49527674134481Z" style="pointer-events: all; stroke-width: 0; fill: rgb(65, 105, 225); fill-opacity: 1; stroke: rgb(68, 68, 68); stroke-opacity: 1;"/><g class="slicetext"><text data-notex="1" class="slicetext" transform="translate(309.1367110771932,353.89676402748074)rotate(14.555186881289956)" text-anchor="middle" x="0" y="0" style="font-family: 'Times New Roman'; font-size: 14px; fill: rgb(255, 255, 255); fill-opacity: 1; white-space: pre;"><tspan class="line" dy="0em" x="0" y="0">Battery Energy</tspan><tspan class="line" dy="1.3em" x="0" y="0">18.9%</tspan></text></g></g><g class="slice"><path class="surface" d="M365.51363842203295,332.506926332305a53.33333333333334,53.33333333333334 0 0 0 21.643446212584436,-14.357109191785213l59.12429112874053,53.891726624074074a133.33333333333334,133.33333333333334 0 0 1 -54.10861553146108,35.89277297946303Z" style="pointer-events: all; stroke-width: 0; fill: rgb(178, 34, 34); fill-opacity: 1; stroke: rgb(68, 68, 68); stroke-opacity: 1;"/><g class="slicetext"><text data-notex="1" class="slicetext" transform="translate(465.8086245427422,400.25906548619184)" text-anchor="middle" x="0" y="0" style="font-family: 'Times New Roman'; font-size: 14px; fill: rgb(0, 0, 0); fill-opacity: 1; white-space: pre;"><tspan class="line" dy="0em" x="0" y="0">ENS Energy</tspan><tspan class="line" dy="1.3em" x="0" y="0">7.83%</tspan></text></g></g><g class="titletext"><text data-notex="1" class="titletext" transform="translate(333,260)translate(0,6.5)" text-anchor="middle" x="0" y="0" style="font-family: 'Times New Roman'; font-size: 14px; fill: rgb(0, 0, 0); fill-opacity: 1; white-space: pre;">Supply Load</text></g></g></g><g class="treemaplayer"/><g class="sunburstlayer"/><g class="glimages"/><defs id="topdefs-bd7ee6"><g class="clips"/></defs><g class="layer-above"><g class="imagelayer"/><g class="shapelayer"/></g><g class="infolayer"><g class="g-gtitle"/></g></svg>