<svg class="main-svg" xmlns="http://www.w3.org/2000/svg" xmlns:xlink="http://www.w3.org/1999/xlink" width="700" height="500" style="" viewBox="0 0 700 500"><rect x="0" y="0" width="700" height="500" style="fill: rgb(255, 255, 255); fill-opacity: 1;"/><defs id="defs-19daab"><g class="clips"/><g class="gradients"/></defs><g class="bglayer"/><g class="layer-below"><g class="imagelayer"/><g class="shapelayer"/></g><g class="cartesianlayer"/><g class="polarlayer"/><g class="ternarylayer"/><g class="geolayer"/><g class="funnelarealayer"/><g class="pielayer"><g class="trace" stroke-linejoin="round" style="opacity: 1;"><g class="slice"><path class="surface" d="M354.87462596784167,306.4361980138316a51.66666666666668,51.66666666666668 0 0 0 -4.8746259678416415,-103.10286468049821l0,-77.50000000000001a129.16666666666669,129.16666666666669 0 0 1 12.186564919604104,257.75716170124554Z" style="pointer-events: all; stroke-width: 0; fill: rgb(255, 165, 0); fill-opacity: 1; stroke: rgb(68, 68, 68); stroke-opacity: 1;"/><g class="slicetext"><text data-notex="1" class="slicetext" transform="translate(440.21421784690654,246.43306277089312)" text-anchor="middle" x="0" y="0" style="font-family: 'Times New Roman'; font-size: 14px; fill: rgb(68, 68, 68); fill-opacity: 1; white-space: pre;"><tspan class="line" dy="0em" x="0" y="0">PV Energy</tspan><tspan class="line" dy="1.3em" x="0" y="0">48.5%</tspan></text></g></g><g class="slice"><path class="surface" d="M350,203.33333333333331a51.66666666666668,51.66666666666668 0 0 0 -50.47709321092744,62.68971095668875l-75.71563981639116,16.534566435033113a129.16666666666669,129.16666666666669 0 0 1 126.1927330273186,-156.72427739172187Z" style="pointer-events: all; stroke-width: 0; fill: rgb(65, 105, 225); fill-opacity: 1; stroke: rgb(68, 68, 68); stroke-opacity: 1;"/><g class="slicetext"><text data-notex="1" class="slicetext" transform="translate(281.44646662685847,199.93181226341514)rotate(-51.159349548907244)" text-anchor="middle" x="0" y="0" style="font-family: 'Times New Roman'; font-size: 14px; fill: rgb(255, 255, 255); fill-opacity: 1; white-space: pre;"><tspan class="line" dy="0em" x="0" y="0">Battery Energy</tspan><tspan class="line" dy="1.3em" x="0" y="0">28.4%</tspan></text></g></g><g class="slice"><path class="surface" d="M299.5229067890726,266.0230442900221a51.66666666666668,51.66666666666668 0 0 0 52.11212769415273,40.617744885619985l2.4525517248379307,77.46118376346308a129.16666666666669,129.16666666666669 0 0 1 -130.28031923538182,-101.54436221404995Z" style="pointer-events: all; stroke-width: 0; fill: rgb(46, 139, 87); fill-opacity: 1; stroke: rgb(68, 68, 68); stroke-opacity: 1;"/><g class="slicetext"><text data-notex="1" class="slicetext" transform="translate(295.52731198380616,324.7226611288056)rotate(37.93391285271616)" text-anchor="middle" x="0" y="0" style="font-family: 'Times New Roman'; font-size: 14px; fill: rgb(255, 255, 255); fill-opacity: 1; white-space: pre;"><tspan class="line" dy="0em" x="0" y="0">Diesel Energy</tspan><tspan class="line" dy="1.3em" x="0" y="0">22.1%</tspan></text></g></g><g class="slice"><path class="surface" d="M353.2632531558027,332.4227599122902a51.66666666666668,51.66666666666668 0 0 0 3.239591484616319,-0.20459116181050377l7.311938951762409,77.15429702074732a129.16666666666669,129.16666666666669 0 0 1 -8.098978711540797,0.5114779045262594Z" style="pointer-events: all; stroke-width: 0; fill: rgb(178, 34, 34); fill-opacity: 1; stroke: rgb(68, 68, 68); stroke-opacity: 1;"/><g class="slicetext"><text data-notex="1" class="slicetext" transform="translate(404.1989995354644,422.4363573243357)" text-anchor="middle" x="0" y="0" style="font-family: 'Times New Roman'; font-size: 14px; fill: rgb(0, 0, 0); fill-opacity: 1; white-space: pre;"><tspan class="line" dy="0em" x="0" y="0">ENS Energy</tspan><tspan class="line" dy="1.3em" x="0" y="0">1%</tspan></text></g></g><g class="titletext"><text data-notex="1" class="titletext" transform="translate(350,255)translate(0,5.9921875)" text-anchor="middle" x="0" y="0" style="font-family: 'Times New Roman'; font-size: 14px; fill: rgb(0, 0, 0); fill-opacity: 1; white-space: pre;">Supply Load</text></g></g></g><g class="treemaplayer"/><g class="sunburstlayer"/><g class="glimages"/><defs id="topdefs-19daab"><g class="clips"/></defs><g class="layer-above"><g class="imagelayer"/><g class="shapelayer"/></g><g class="infolayer"><g class="g-gtitle"/></g></svg>