<svg class="main-svg" xmlns="http://www.w3.org/2000/svg" xmlns:xlink="http://www.w3.org/1999/xlink" width="700" height="500" style="" viewBox="0 0 700 500"><rect x="0" y="0" width="700" height="500" style="fill: rgb(255, 255, 255); fill-opacity: 1;"/><defs id="defs-9b8e09"><g class="clips"/><g class="gradients"/></defs><g class="bglayer"/><g class="layer-below"><g class="imagelayer"/><g class="shapelayer"/></g><g class="cartesianlayer"/><g class="polarlayer"/><g class="ternarylayer"/><g class="geolayer"/><g class="funnelarealayer"/><g class="pielayer"><g class="trace" stroke-linejoin="round" style="opacity: 1;"><g class="slice"><path class="surface" d="M355.1407303791609,308.64788562813294a53.33333333333334,53.33333333333334 0 1 0 21.859269620839086,-101.98121896146631l0,-80a133.33333333333334,133.33333333333334 0 1 1 -54.648174052097716,254.95304740366578Z" style="pointer-events: all; stroke-width: 0; fill: rgb(255, 165, 0); fill-opacity: 1; stroke: rgb(68, 68, 68); stroke-opacity: 1;"/><g class="slicetext"><text data-notex="1" class="slicetext" transform="translate(468.760430719926,274.95974870157073)" text-anchor="middle" x="0" y="0" style="font-family: 'Times New Roman'; font-size: 14px; fill: rgb(68, 68, 68); fill-opacity: 1; white-space: pre;"><tspan class="line" dy="0em" x="0" y="0">PV Energy</tspan><tspan class="line" dy="1.3em" x="0" y="0">56.7%</tspan></text></g></g><g class="slice"><path class="surface" d="M377,206.66666666666666a53.33333333333334,53.33333333333334 0 0 0 -48.11740660132031,76.33680321089012l-72.17610990198045,34.50520481633517a133.33333333333334,133.33333333333334 0 0 1 120.29351650330076,-190.8420080272253Z" style="pointer-events: all; stroke-width: 0; fill: rgb(65, 105, 225); fill-opacity: 1; stroke: rgb(68, 68, 68); stroke-opacity: 1;"/><g class="slicetext"><text data-notex="1" class="slicetext" transform="translate(303.0226195134366,212.77876854295783)rotate(-57.775523075657475)" text-anchor="middle" x="0" y="0" style="font-family: 'Times New Roman'; font-size: 14px; fill: rgb(255, 255, 255); fill-opacity: 1; white-space: pre;"><tspan class="line" dy="0em" x="0" y="0">Battery Energy</tspan><tspan class="line" dy="1.3em" x="0" y="0">32.1%</tspan></text></g></g><g class="slice"><path class="surface" d="M328.88259339867966,283.00346987755677a53.33333333333334,53.33333333333334 0 0 0 21.081680290768844,22.96949986886487l-40.553589465827194,68.95945461963247a133.33333333333334,133.33333333333334 0 0 1 -52.70420072692211,-57.42374967216217Z" style="pointer-events: all; stroke-width: 0; fill: rgb(46, 139, 87); fill-opacity: 1; stroke: rgb(68, 68, 68); stroke-opacity: 1;"/><g class="slicetext"><text data-notex="1" class="slicetext" transform="translate(230.73368055337835,353.1467911047396)" text-anchor="middle" x="0" y="0" style="font-family: 'Times New Roman'; font-size: 14px; fill: rgb(0, 0, 0); fill-opacity: 1; white-space: pre;"><tspan class="line" dy="0em" x="0" y="0">Diesel Energy</tspan><tspan class="line" dy="1.3em" x="0" y="0">9.44%</tspan></text></g></g><g class="slice"><path class="surface" d="M337.72224617634606,329.6635559248925a53.33333333333334,53.33333333333334 0 0 0 5.176456689712385,2.6749158817113257l-32.788904431258615,72.97182844219945a133.33333333333334,133.33333333333334 0 0 1 -12.94114172428096,-6.687289704278314Z" style="pointer-events: all; stroke-width: 0; fill: rgb(178, 34, 34); fill-opacity: 1; stroke: rgb(68, 68, 68); stroke-opacity: 1;"/><g class="slicetext"><text data-notex="1" class="slicetext" transform="translate(260.1845536713851,410.64472444423376)" text-anchor="middle" x="0" y="0" style="font-family: 'Times New Roman'; font-size: 14px; fill: rgb(0, 0, 0); fill-opacity: 1; white-space: pre;"><tspan class="line" dy="0em" x="0" y="0">ENS Energy</tspan><tspan class="line" dy="1.3em" x="0" y="0">1.74%</tspan></text></g></g><g class="titletext"><text data-notex="1" class="titletext" transform="translate(377,260)translate(0,6.5)" text-anchor="middle" x="0" y="0" style="font-family: 'Times New Roman'; font-size: 14px; fill: rgb(0, 0, 0); fill-opacity: 1; white-space: pre;">Supply Load</text></g></g></g><g class="treemaplayer"/><g class="sunburstlayer"/><g class="glimages"/><defs id="topdefs-9b8e09"><g class="clips"/></defs><g class="layer-above"><g class="imagelayer"/><g class="shapelayer"/></g><g class="infolayer"><g class="g-gtitle"/></g></svg>