<svg class="main-svg" xmlns="http://www.w3.org/2000/svg" xmlns:xlink="http://www.w3.org/1999/xlink" width="700" height="500" style="" viewBox="0 0 700 500"><rect x="0" y="0" width="700" height="500" style="fill: rgb(255, 255, 255); fill-opacity: 1;"/><defs id="defs-40b484"><g class="clips"/><g class="gradients"/></defs><g class="bglayer"/><g class="layer-below"><g class="imagelayer"/><g class="shapelayer"/></g><g class="cartesianlayer"/><g class="polarlayer"/><g class="ternarylayer"/><g class="geolayer"/><g class="funnelarealayer"/><g class="pielayer"><g class="trace" stroke-linejoin="round" style="opacity: 1;"><g class="slice"><path class="surface" d="M360.6984138181304,306.21723953667515a51.83333333333334,51.83333333333334 0 0 0 -10.698413818130378,-102.55057287000847l0,-77.75a129.58333333333334,129.58333333333334 0 0 1 26.746034545325944,256.37643217502114Z" style="pointer-events: all; stroke-width: 0; fill: rgb(255, 165, 0); fill-opacity: 1; stroke: rgb(68, 68, 68); stroke-opacity: 1;"/><g class="slicetext"><text data-notex="1" class="slicetext" transform="translate(440.7187209175008,241.4865231293089)" text-anchor="middle" x="0" y="0" style="font-family: 'Times New Roman'; font-size: 14px; fill: rgb(68, 68, 68); fill-opacity: 1; white-space: pre;"><tspan class="line" dy="0em" x="0" y="0">PV Energy</tspan><tspan class="line" dy="1.3em" x="0" y="0">46.7%</tspan></text></g></g><g class="slice"><path class="surface" d="M350,203.66666666666666a51.83333333333334,51.83333333333334 0 0 0 -51.76691355493033,54.456519457270275l-77.6503703323955,3.9347791859053975a129.58333333333334,129.58333333333334 0 0 1 129.41728388732582,-136.14129864317567Z" style="pointer-events: all; stroke-width: 0; fill: rgb(65, 105, 225); fill-opacity: 1; stroke: rgb(68, 68, 68); stroke-opacity: 1;"/><g class="slicetext"><text data-notex="1" class="slicetext" transform="translate(283.22083473354735,191.32918992647117)rotate(-46.45043463953709)" text-anchor="middle" x="0" y="0" style="font-family: 'Times New Roman'; font-size: 14px; fill: rgb(255, 255, 255); fill-opacity: 1; white-space: pre;"><tspan class="line" dy="0em" x="0" y="0">Battery Energy</tspan><tspan class="line" dy="1.3em" x="0" y="0">25.8%</tspan></text></g></g><g class="slice"><path class="surface" d="M298.23308644506966,258.12318612393693a51.83333333333334,51.83333333333334 0 0 0 48.791031668811144,49.12465026990965l-4.463822829178781,77.62175459076987a129.58333333333334,129.58333333333334 0 0 1 -121.97757917202786,-122.81162567477412Z" style="pointer-events: all; stroke-width: 0; fill: rgb(46, 139, 87); fill-opacity: 1; stroke: rgb(68, 68, 68); stroke-opacity: 1;"/><g class="slicetext"><text data-notex="1" class="slicetext" transform="translate(288.74925441648065,317.03948523150746)rotate(45.19521759398913)" text-anchor="middle" x="0" y="0" style="font-family: 'Times New Roman'; font-size: 14px; fill: rgb(255, 255, 255); fill-opacity: 1; white-space: pre;"><tspan class="line" dy="0em" x="0" y="0">Diesel Energy</tspan><tspan class="line" dy="1.3em" x="0" y="0">23.3%</tspan></text></g></g><g class="slice"><path class="surface" d="M348.97186728476606,333.0912085476199a51.83333333333334,51.83333333333334 0 0 0 13.6742957042496,-1.0305968571714688l16.047620727195614,76.07585930501267a129.58333333333334,129.58333333333334 0 0 1 -34.185739260624,2.5764921429286716Z" style="pointer-events: all; stroke-width: 0; fill: rgb(178, 34, 34); fill-opacity: 1; stroke: rgb(68, 68, 68); stroke-opacity: 1;"/><g class="slicetext"><text data-notex="1" class="slicetext" transform="translate(406.04977627531133,422.46646447308524)" text-anchor="middle" x="0" y="0" style="font-family: 'Times New Roman'; font-size: 14px; fill: rgb(0, 0, 0); fill-opacity: 1; white-space: pre;"><tspan class="line" dy="0em" x="0" y="0">ENS Energy</tspan><tspan class="line" dy="1.3em" x="0" y="0">4.22%</tspan></text></g></g><g class="titletext"><text data-notex="1" class="titletext" transform="translate(350,255.5)translate(0,6.5)" text-anchor="middle" x="0" y="0" style="font-family: 'Times New Roman'; font-size: 14px; fill: rgb(0, 0, 0); fill-opacity: 1; white-space: pre;">Supply Load</text></g></g></g><g class="treemaplayer"/><g class="sunburstlayer"/><g class="glimages"/><defs id="topdefs-40b484"><g class="clips"/></defs><g class="layer-above"><g class="imagelayer"/><g class="shapelayer"/></g><g class="infolayer"><g class="g-gtitle"/></g></svg>