<svg class="main-svg" xmlns="http://www.w3.org/2000/svg" xmlns:xlink="http://www.w3.org/1999/xlink" width="700" height="500" style="" viewBox="0 0 700 500"><rect x="0" y="0" width="700" height="500" style="fill: rgb(255, 255, 255); fill-opacity: 1;"/><defs id="defs-29d0c9"><g class="clips"/><g class="gradients"/></defs><g class="bglayer"/><g class="layer-below"><g class="imagelayer"/><g class="shapelayer"/></g><g class="cartesianlayer"/><g class="polarlayer"/><g class="ternarylayer"/><g class="geolayer"/><g class="funnelarealayer"/><g class="pielayer"><g class="trace" stroke-linejoin="round" style="opacity: 1;"><g class="slice"><path class="surface" d="M369.75480616159894,304.7815569822346a52.16666666666668,52.16666666666668 0 0 0 -19.754806161598914,-100.44822364890126l0,-78.25000000000001a130.41666666666669,130.41666666666669 0 0 1 49.38701540399728,251.12055912225316Z" style="pointer-events: all; stroke-width: 0; fill: rgb(255, 165, 0); fill-opacity: 1; stroke: rgb(68, 68, 68); stroke-opacity: 1;"/><g class="slicetext"><text data-notex="1" class="slicetext" transform="translate(439.4742435627282,234.58655975616526)" text-anchor="middle" x="0" y="0" style="font-family: 'Times New Roman'; font-size: 14px; fill: rgb(68, 68, 68); fill-opacity: 1; white-space: pre;"><tspan class="line" dy="0em" x="0" y="0">PV Energy</tspan><tspan class="line" dy="1.3em" x="0" y="0">43.8%</tspan></text></g></g><g class="slice"><path class="surface" d="M350,204.33333333333331a52.16666666666668,52.16666666666668 0 0 0 -52.15833201603372,53.09914316304807l-78.23749802405057,1.3987147445720833a130.41666666666669,130.41666666666669 0 0 1 130.3958300400843,-132.74785790762016Z" style="pointer-events: all; stroke-width: 0; fill: rgb(46, 139, 87); fill-opacity: 1; stroke: rgb(68, 68, 68); stroke-opacity: 1;"/><g class="slicetext"><text data-notex="1" class="slicetext" transform="translate(283.4666824363846,191.28788474222537)rotate(-45.5121068363178)" text-anchor="middle" x="0" y="0" style="font-family: 'Times New Roman'; font-size: 14px; fill: rgb(255, 255, 255); fill-opacity: 1; white-space: pre;"><tspan class="line" dy="0em" x="0" y="0">Diesel Energy</tspan><tspan class="line" dy="1.3em" x="0" y="0">25.3%</tspan></text></g></g><g class="slice"><path class="surface" d="M297.84166798396626,257.4324764963814a52.16666666666668,52.16666666666668 0 0 0 52.69761464738239,51.231402628494266l0.8089239470229973,78.24581868731347a130.41666666666669,130.41666666666669 0 0 1 -131.74403661845597,-128.07850657123566Z" style="pointer-events: all; stroke-width: 0; fill: rgb(65, 105, 225); fill-opacity: 1; stroke: rgb(68, 68, 68); stroke-opacity: 1;"/><g class="slicetext"><text data-notex="1" class="slicetext" transform="translate(290.27305500049124,317.7905934664315)rotate(44.19173499328156)" text-anchor="middle" x="0" y="0" style="font-family: 'Times New Roman'; font-size: 14px; fill: rgb(255, 255, 255); fill-opacity: 1; white-space: pre;"><tspan class="line" dy="0em" x="0" y="0">Battery Energy</tspan><tspan class="line" dy="1.3em" x="0" y="0">24.9%</tspan></text></g></g><g class="slice"><path class="surface" d="M355.7048081682331,334.2306079673689a52.16666666666668,52.16666666666668 0 0 0 19.21552353025026,-3.8823221426410726l29.632209242398382,72.42233547335186a130.41666666666669,130.41666666666669 0 0 1 -48.038808825625644,9.705805356602681Z" style="pointer-events: all; stroke-width: 0; fill: rgb(178, 34, 34); fill-opacity: 1; stroke: rgb(68, 68, 68); stroke-opacity: 1;"/><g class="slicetext"><text data-notex="1" class="slicetext" transform="translate(425.42284072130656,422.04185070125135)" text-anchor="middle" x="0" y="0" style="font-family: 'Times New Roman'; font-size: 14px; fill: rgb(0, 0, 0); fill-opacity: 1; white-space: pre;"><tspan class="line" dy="0em" x="0" y="0">ENS Energy</tspan><tspan class="line" dy="1.3em" x="0" y="0">6.02%</tspan></text></g></g><g class="titletext"><text data-notex="1" class="titletext" transform="translate(350,256.5)translate(0,5.9921875)" text-anchor="middle" x="0" y="0" style="font-family: 'Times New Roman'; font-size: 14px; fill: rgb(0, 0, 0); fill-opacity: 1; white-space: pre;">Supply Load</text></g></g></g><g class="treemaplayer"/><g class="sunburstlayer"/><g class="glimages"/><defs id="topdefs-29d0c9"><g class="clips"/></defs><g class="layer-above"><g class="imagelayer"/><g class="shapelayer"/></g><g class="infolayer"><g class="g-gtitle"/></g></svg>