<svg class="main-svg" xmlns="http://www.w3.org/2000/svg" xmlns:xlink="http://www.w3.org/1999/xlink" width="700" height="500" style="" viewBox="0 0 700 500"><rect x="0" y="0" width="700" height="500" style="fill: rgb(255, 255, 255); fill-opacity: 1;"/><defs id="defs-3ce00f"><g class="clips"/><g class="gradients"/></defs><g class="bglayer"/><g class="layer-below"><g class="imagelayer"/><g class="shapelayer"/></g><g class="cartesianlayer"/><g class="polarlayer"/><g class="ternarylayer"/><g class="geolayer"/><g class="funnelarealayer"/><g class="pielayer"><g class="trace" stroke-linejoin="round" style="opacity: 1;"><g class="slice"><path class="surface" d="M359.6801359762367,289.87574316340397a53.33333333333334,53.33333333333334 0 0 0 -44.180135976236706,-83.20907649673732l0,-80a133.33333333333334,133.33333333333334 0 0 1 110.45033994059176,208.0226912418433Z" style="pointer-events: all; stroke-width: 0; fill: rgb(46, 139, 87); fill-opacity: 1; stroke: rgb(68, 68, 68); stroke-opacity: 1;"/><g class="slicetext"><text data-notex="1" class="slicetext" transform="translate(393.5216143558161,218.45917369038807)rotate(62.03378396906794)" text-anchor="middle" x="0" y="0" style="font-family: 'Times New Roman'; font-size: 14px; fill: rgb(255, 255, 255); fill-opacity: 1; white-space: pre;"><tspan class="line" dy="0em" x="0" y="0">Diesel Energy</tspan><tspan class="line" dy="1.3em" x="0" y="0">34.5%</tspan></text></g></g><g class="slice"><path class="surface" d="M315.5,206.66666666666666a53.33333333333334,53.33333333333334 0 0 0 -44.575118678793324,82.61648957059602l-66.86267801818998,43.924734355894a133.33333333333334,133.33333333333334 0 0 1 111.4377966969833,-206.54122392649003Z" style="pointer-events: all; stroke-width: 0; fill: rgb(255, 165, 0); fill-opacity: 1; stroke: rgb(68, 68, 68); stroke-opacity: 1;"/><g class="slicetext"><text data-notex="1" class="slicetext" transform="translate(233.25823227179274,211.38498203146955)" text-anchor="middle" x="0" y="0" style="font-family: 'Times New Roman'; font-size: 14px; fill: rgb(68, 68, 68); fill-opacity: 1; white-space: pre;"><tspan class="line" dy="0em" x="0" y="0">PV Energy</tspan><tspan class="line" dy="1.3em" x="0" y="0">34.3%</tspan></text></g></g><g class="slice"><path class="surface" d="M270.92488132120667,289.2831562372627a53.33333333333334,53.33333333333334 0 0 0 80.60976737856492,10.035395840967448l54.05197304965739,58.977828117345176a133.33333333333334,133.33333333333334 0 0 1 -201.52441844641228,-25.08848960241862Z" style="pointer-events: all; stroke-width: 0; fill: rgb(65, 105, 225); fill-opacity: 1; stroke: rgb(68, 68, 68); stroke-opacity: 1;"/><g class="slicetext"><text data-notex="1" class="slicetext" transform="translate(305.0962195030959,342.74673068782)rotate(7.0964433597498555)" text-anchor="middle" x="0" y="0" style="font-family: 'Times New Roman'; font-size: 14px; fill: rgb(255, 255, 255); fill-opacity: 1; white-space: pre;"><tspan class="line" dy="0em" x="0" y="0">Battery Energy</tspan><tspan class="line" dy="1.3em" x="0" y="0">27.6%</tspan></text></g></g><g class="slice"><path class="surface" d="M371.7268166133778,316.73657337973975a53.33333333333334,53.33333333333334 0 0 0 8.145487276465117,-9.44280891482614l66.27020396435506,44.813614745105966a133.33333333333334,133.33333333333334 0 0 1 -20.36371819116279,23.607022287065348Z" style="pointer-events: all; stroke-width: 0; fill: rgb(178, 34, 34); fill-opacity: 1; stroke: rgb(68, 68, 68); stroke-opacity: 1;"/><g class="slicetext"><text data-notex="1" class="slicetext" transform="translate(481.08269498163736,367.51077301906685)" text-anchor="middle" x="0" y="0" style="font-family: 'Times New Roman'; font-size: 14px; fill: rgb(0, 0, 0); fill-opacity: 1; white-space: pre;"><tspan class="line" dy="0em" x="0" y="0">ENS Energy</tspan><tspan class="line" dy="1.3em" x="0" y="0">3.73%</tspan></text></g></g><g class="titletext"><text data-notex="1" class="titletext" transform="translate(315.5,260)translate(0,5.9921875)" text-anchor="middle" x="0" y="0" style="font-family: 'Times New Roman'; font-size: 14px; fill: rgb(0, 0, 0); fill-opacity: 1; white-space: pre;">Supply Load</text></g></g></g><g class="treemaplayer"/><g class="sunburstlayer"/><g class="glimages"/><defs id="topdefs-3ce00f"><g class="clips"/></defs><g class="layer-above"><g class="imagelayer"/><g class="shapelayer"/></g><g class="infolayer"><g class="g-gtitle"/></g></svg>