<svg class="main-svg" xmlns="http://www.w3.org/2000/svg" xmlns:xlink="http://www.w3.org/1999/xlink" width="700" height="500" style="" viewBox="0 0 700 500"><rect x="0" y="0" width="700" height="500" style="fill: rgb(255, 255, 255); fill-opacity: 1;"/><defs id="defs-a1ff52"><g class="clips"/><g class="gradients"/></defs><g class="bglayer"/><g class="layer-below"><g class="imagelayer"/><g class="shapelayer"/></g><g class="cartesianlayer"/><g class="polarlayer"/><g class="ternarylayer"/><g class="geolayer"/><g class="funnelarealayer"/><g class="pielayer"><g class="trace" stroke-linejoin="round" style="opacity: 1;"><g class="slice"><path class="surface" d="M359.2892278112208,299.98893403095667a53.33333333333334,53.33333333333334 0 0 0 -35.289227811220826,-93.32226736429l0,-80a133.33333333333334,133.33333333333334 0 0 1 88.22306952805206,233.305668410725Z" style="pointer-events: all; stroke-width: 0; fill: rgb(255, 165, 0); fill-opacity: 1; stroke: rgb(68, 68, 68); stroke-opacity: 1;"/><g class="slicetext"><text data-notex="1" class="slicetext" transform="translate(411.1986007382037,222.6911179465945)" text-anchor="middle" x="0" y="0" style="font-family: 'Times New Roman'; font-size: 14px; fill: rgb(68, 68, 68); fill-opacity: 1; white-space: pre;"><tspan class="line" dy="0em" x="0" y="0">PV Energy</tspan><tspan class="line" dy="1.3em" x="0" y="0">38.5%</tspan></text></g></g><g class="slice"><path class="surface" d="M324,206.66666666666666a53.33333333333334,53.33333333333334 0 0 0 -49.41872666529472,73.38910305741358l-74.12808999794207,30.083654586120364a133.33333333333334,133.33333333333334 0 0 1 123.5468166632368,-183.47275764353395Z" style="pointer-events: all; stroke-width: 0; fill: rgb(46, 139, 87); fill-opacity: 1; stroke: rgb(68, 68, 68); stroke-opacity: 1;"/><g class="slicetext"><text data-notex="1" class="slicetext" transform="translate(250.62530729022123,210.71341940326374)rotate(-56.04447856966567)" text-anchor="middle" x="0" y="0" style="font-family: 'Times New Roman'; font-size: 14px; fill: rgb(255, 255, 255); fill-opacity: 1; white-space: pre;"><tspan class="line" dy="0em" x="0" y="0">Diesel Energy</tspan><tspan class="line" dy="1.3em" x="0" y="0">31.1%</tspan></text></g></g><g class="slice"><path class="surface" d="M274.58127333470526,280.0557697240802a53.33333333333334,53.33333333333334 0 0 0 83.91223282905955,20.621527100742856l51.74025924564723,61.01594523723465a133.33333333333334,133.33333333333334 0 0 1 -209.78058207264885,-51.55381775185714Z" style="pointer-events: all; stroke-width: 0; fill: rgb(65, 105, 225); fill-opacity: 1; stroke: rgb(68, 68, 68); stroke-opacity: 1;"/><g class="slicetext"><text data-notex="1" class="slicetext" transform="translate(304.9410131556916,337.1284407173123)rotate(13.806893904077697)" text-anchor="middle" x="0" y="0" style="font-family: 'Times New Roman'; font-size: 14px; fill: rgb(255, 255, 255); fill-opacity: 1; white-space: pre;"><tspan class="line" dy="0em" x="0" y="0">Battery Energy</tspan><tspan class="line" dy="1.3em" x="0" y="0">30.1%</tspan></text></g></g><g class="slice"><path class="surface" d="M375.94003842013245,320.8448356766175a53.33333333333334,53.33333333333334 0 0 0 0.7957216474560312,-0.6883627938664688l52.93384171683128,59.98340104643494a133.33333333333334,133.33333333333334 0 0 1 -1.989304118640078,1.720906984666172Z" style="pointer-events: all; stroke-width: 0; fill: rgb(178, 34, 34); fill-opacity: 1; stroke: rgb(68, 68, 68); stroke-opacity: 1;"/><g class="slicetext"><text data-notex="1" class="slicetext" transform="translate(473.1088810382056,386.4942966801078)" text-anchor="middle" x="0" y="0" style="font-family: 'Times New Roman'; font-size: 14px; fill: rgb(0, 0, 0); fill-opacity: 1; white-space: pre;"><tspan class="line" dy="0em" x="0" y="0">ENS Energy</tspan><tspan class="line" dy="1.3em" x="0" y="0">0.314%</tspan></text></g></g><g class="titletext"><text data-notex="1" class="titletext" transform="translate(324,260)translate(0,5.9921875)" text-anchor="middle" x="0" y="0" style="font-family: 'Times New Roman'; font-size: 14px; fill: rgb(0, 0, 0); fill-opacity: 1; white-space: pre;">Supply Load</text></g></g></g><g class="treemaplayer"/><g class="sunburstlayer"/><g class="glimages"/><defs id="topdefs-a1ff52"><g class="clips"/></defs><g class="layer-above"><g class="imagelayer"/><g class="shapelayer"/></g><g class="infolayer"><g class="g-gtitle"/></g></svg>