<svg class="main-svg" xmlns="http://www.w3.org/2000/svg" xmlns:xlink="http://www.w3.org/1999/xlink" width="700" height="500" style="" viewBox="0 0 700 500"><rect x="0" y="0" width="700" height="500" style="fill: rgb(255, 255, 255); fill-opacity: 1;"/><defs id="defs-435128"><g class="clips"/><g class="gradients"/></defs><g class="bglayer"/><g class="layer-below"><g class="imagelayer"/><g class="shapelayer"/></g><g class="cartesianlayer"/><g class="polarlayer"/><g class="ternarylayer"/><g class="geolayer"/><g class="funnelarealayer"/><g class="pielayer"><g class="trace" stroke-linejoin="round" style="opacity: 1;"><g class="slice"><path class="surface" d="M349.94083185765976,298.3544326127007a53.33333333333334,53.33333333333334 0 1 0 37.05916814234026,-91.687765946034l0,-80a133.33333333333334,133.33333333333334 0 1 1 -92.64792035585066,229.219414865085Z" style="pointer-events: all; stroke-width: 0; fill: rgb(255, 165, 0); fill-opacity: 1; stroke: rgb(68, 68, 68); stroke-opacity: 1;"/><g class="slicetext"><text data-notex="1" class="slicetext" transform="translate(474.0322727017274,290.37381301170825)" text-anchor="middle" x="0" y="0" style="font-family: 'Times New Roman'; font-size: 14px; fill: rgb(68, 68, 68); fill-opacity: 1; white-space: pre;"><tspan class="line" dy="0em" x="0" y="0">PV Energy</tspan><tspan class="line" dy="1.3em" x="0" y="0">62.2%</tspan></text></g></g><g class="slice"><path class="surface" d="M387,206.66666666666666a53.33333333333334,53.33333333333334 0 0 0 -46.97603903822351,78.58598073363072l-70.46405855733526,37.87897110044606a133.33333333333334,133.33333333333334 0 0 1 117.44009759555877,-196.46495183407677Z" style="pointer-events: all; stroke-width: 0; fill: rgb(65, 105, 225); fill-opacity: 1; stroke: rgb(68, 68, 68); stroke-opacity: 1;"/><g class="slicetext"><text data-notex="1" class="slicetext" transform="translate(311.92672557882247,214.54121656207795)rotate(-59.13044670524039)" text-anchor="middle" x="0" y="0" style="font-family: 'Times New Roman'; font-size: 14px; fill: rgb(255, 255, 255); fill-opacity: 1; white-space: pre;"><tspan class="line" dy="0em" x="0" y="0">Battery Energy</tspan><tspan class="line" dy="1.3em" x="0" y="0">32.9%</tspan></text></g></g><g class="slice"><path class="surface" d="M318.7613576086587,301.34652231465833a53.33333333333334,53.33333333333334 0 0 0 9.91687089588325,13.101785212403309l-55.58875221351038,57.531648919051015a133.33333333333334,133.33333333333334 0 0 1 -24.792177239708124,-32.75446303100827Z" style="pointer-events: all; stroke-width: 0; fill: rgb(178, 34, 34); fill-opacity: 1; stroke: rgb(68, 68, 68); stroke-opacity: 1;"/><g class="slicetext"><text data-notex="1" class="slicetext" transform="translate(216.06109863129348,358.008586383923)" text-anchor="middle" x="0" y="0" style="font-family: 'Times New Roman'; font-size: 14px; fill: rgb(0, 0, 0); fill-opacity: 1; white-space: pre;"><tspan class="line" dy="0em" x="0" y="0">ENS Energy</tspan><tspan class="line" dy="1.3em" x="0" y="0">4.92%</tspan></text></g></g><g class="slice"><path class="surface" d="M349.94083185765976,298.3544326127007a53.33333333333334,53.33333333333334 0 0 0 0,0l-55.58875221351038,57.531648919051015a133.33333333333334,133.33333333333334 0 0 1 0,0Z" style="pointer-events: all; stroke-width: 0; fill: rgb(46, 139, 87); fill-opacity: 1; stroke: rgb(68, 68, 68); stroke-opacity: 1;"/><g class="slicetext"><text data-notex="1" class="slicetext" transform="translate(246.31692339414934,391.211711383923)" text-anchor="middle" x="0" y="0" style="font-family: 'Times New Roman'; font-size: 14px; fill: rgb(0, 0, 0); fill-opacity: 1; white-space: pre;"><tspan class="line" dy="0em" x="0" y="0">Diesel Energy</tspan><tspan class="line" dy="1.3em" x="0" y="0">0%</tspan></text></g><path class="textline" stroke-width="1.75" d="M294.35207964414934,355.8860815317517V395.813273883923h-8.30078125" fill="none" style="stroke: rgb(0, 0, 0); stroke-opacity: 1;"/></g><g class="titletext"><text data-notex="1" class="titletext" transform="translate(387,260)translate(0,6.5)" text-anchor="middle" x="0" y="0" style="font-family: 'Times New Roman'; font-size: 14px; fill: rgb(0, 0, 0); fill-opacity: 1; white-space: pre;">Supply Load</text></g></g></g><g class="treemaplayer"/><g class="sunburstlayer"/><g class="glimages"/><defs id="topdefs-435128"><g class="clips"/></defs><g class="layer-above"><g class="imagelayer"/><g class="shapelayer"/></g><g class="infolayer"><g class="g-gtitle"/></g></svg>