<svg class="main-svg" xmlns="http://www.w3.org/2000/svg" xmlns:xlink="http://www.w3.org/1999/xlink" width="700" height="500" style="" viewBox="0 0 700 500"><rect x="0" y="0" width="700" height="500" style="fill: rgb(255, 255, 255); fill-opacity: 1;"/><defs id="defs-8c0924"><g class="clips"/><g class="gradients"/></defs><g class="bglayer"/><g class="layer-below"><g class="imagelayer"/><g class="shapelayer"/></g><g class="cartesianlayer"/><g class="polarlayer"/><g class="ternarylayer"/><g class="geolayer"/><g class="funnelarealayer"/><g class="pielayer"><g class="trace" stroke-linejoin="round" style="opacity: 1;"><g class="slice"><path class="surface" d="M370.08563305721884,308.72663698786664a53.16666666666668,53.16666666666668 0 0 0 -20.08563305721884,-102.39330365453334l0,-79.75000000000001a132.91666666666669,132.91666666666669 0 0 1 50.21408264304709,255.98325913633334Z" style="pointer-events: all; stroke-width: 0; fill: rgb(255, 165, 0); fill-opacity: 1; stroke: rgb(68, 68, 68); stroke-opacity: 1;"/><g class="slicetext"><text data-notex="1" class="slicetext" transform="translate(441.801632921232,236.98856418867467)" text-anchor="middle" x="0" y="0" style="font-family: 'Times New Roman'; font-size: 14px; fill: rgb(68, 68, 68); fill-opacity: 1; white-space: pre;"><tspan class="line" dy="0em" x="0" y="0">PV Energy</tspan><tspan class="line" dy="1.3em" x="0" y="0">43.8%</tspan></text></g></g><g class="slice"><path class="surface" d="M350,206.33333333333331a53.16666666666668,53.16666666666668 0 0 0 -49.442010664371985,72.71614302560204l-74.16301599655797,29.32421453840305a132.91666666666669,132.91666666666669 0 0 1 123.60502666092995,-181.7903575640051Z" style="pointer-events: all; stroke-width: 0; fill: rgb(65, 105, 225); fill-opacity: 1; stroke: rgb(68, 68, 68); stroke-opacity: 1;"/><g class="slicetext"><text data-notex="1" class="slicetext" transform="translate(277.920642186294,209.88633033080828)rotate(-55.78697394075175)" text-anchor="middle" x="0" y="0" style="font-family: 'Times New Roman'; font-size: 14px; fill: rgb(255, 255, 255); fill-opacity: 1; white-space: pre;"><tspan class="line" dy="0em" x="0" y="0">Battery Energy</tspan><tspan class="line" dy="1.3em" x="0" y="0">31%</tspan></text></g></g><g class="slice"><path class="surface" d="M300.557989335628,279.04947635893535a53.16666666666668,53.16666666666668 0 0 0 63.11135964311582,31.829929466178655l20.504023468115747,77.06910873767103a132.91666666666669,132.91666666666669 0 0 1 -157.77839910778954,-79.57482366544663Z" style="pointer-events: all; stroke-width: 0; fill: rgb(46, 139, 87); fill-opacity: 1; stroke: rgb(68, 68, 68); stroke-opacity: 1;"/><g class="slicetext"><text data-notex="1" class="slicetext" transform="translate(310.19577722563076,339.53286595448026)rotate(26.763887251178517)" text-anchor="middle" x="0" y="0" style="font-family: 'Times New Roman'; font-size: 14px; fill: rgb(255, 255, 255); fill-opacity: 1; white-space: pre;"><tspan class="line" dy="0em" x="0" y="0">Diesel Energy</tspan><tspan class="line" dy="1.3em" x="0" y="0">23.1%</tspan></text></g></g><g class="slice"><path class="surface" d="M372.12523903359164,336.08201550132486a53.16666666666668,53.16666666666668 0 0 0 6.416284078474994,-2.152768837247345l30.128449585828236,73.8399554818a132.91666666666669,132.91666666666669 0 0 1 -16.040710196187483,5.381922093118362Z" style="pointer-events: all; stroke-width: 0; fill: rgb(178, 34, 34); fill-opacity: 1; stroke: rgb(68, 68, 68); stroke-opacity: 1;"/><g class="slicetext"><text data-notex="1" class="slicetext" transform="translate(445.09862157908685,421.035892214566)" text-anchor="middle" x="0" y="0" style="font-family: 'Times New Roman'; font-size: 14px; fill: rgb(0, 0, 0); fill-opacity: 1; white-space: pre;"><tspan class="line" dy="0em" x="0" y="0">ENS Energy</tspan><tspan class="line" dy="1.3em" x="0" y="0">2.03%</tspan></text></g></g><g class="titletext"><text data-notex="1" class="titletext" transform="translate(350,259.5)translate(0,6.5)" text-anchor="middle" x="0" y="0" style="font-family: 'Times New Roman'; font-size: 14px; fill: rgb(0, 0, 0); fill-opacity: 1; white-space: pre;">Supply Load</text></g></g></g><g class="treemaplayer"/><g class="sunburstlayer"/><g class="glimages"/><defs id="topdefs-8c0924"><g class="clips"/></defs><g class="layer-above"><g class="imagelayer"/><g class="shapelayer"/></g><g class="infolayer"><g class="g-gtitle"/></g></svg>