<svg class="main-svg" xmlns="http://www.w3.org/2000/svg" xmlns:xlink="http://www.w3.org/1999/xlink" width="700" height="500" style="" viewBox="0 0 700 500"><rect x="0" y="0" width="700" height="500" style="fill: rgb(255, 255, 255); fill-opacity: 1;"/><defs id="defs-938510"><g class="clips"/><g class="gradients"/></defs><g class="bglayer"/><g class="layer-below"><g class="imagelayer"/><g class="shapelayer"/></g><g class="cartesianlayer"/><g class="polarlayer"/><g class="ternarylayer"/><g class="geolayer"/><g class="funnelarealayer"/><g class="pielayer"><g class="trace" stroke-linejoin="round" style="opacity: 1;"><g class="slice"><path class="surface" d="M370.36758719454906,304.52626888467967a52.16666666666668,52.16666666666668 0 0 0 -20.36758719454907,-100.19293555134637l0,-78.25000000000001a130.41666666666669,130.41666666666669 0 0 1 50.91896798637267,250.4823388783659Z" style="pointer-events: all; stroke-width: 0; fill: rgb(255, 165, 0); fill-opacity: 1; stroke: rgb(68, 68, 68); stroke-opacity: 1;"/><g class="slicetext"><text data-notex="1" class="slicetext" transform="translate(439.36034316587427,234.01698089499547)" text-anchor="middle" x="0" y="0" style="font-family: 'Times New Roman'; font-size: 14px; fill: rgb(68, 68, 68); fill-opacity: 1; white-space: pre;"><tspan class="line" dy="0em" x="0" y="0">PV Energy</tspan><tspan class="line" dy="1.3em" x="0" y="0">43.6%</tspan></text></g></g><g class="slice"><path class="surface" d="M350,204.33333333333331a52.16666666666668,52.16666666666668 0 0 0 -52.132433039727346,54.056252988975636l-78.19864955959102,2.834379483463435a130.41666666666669,130.41666666666669 0 0 1 130.33108259931836,-135.14063247243908Z" style="pointer-events: all; stroke-width: 0; fill: rgb(46, 139, 87); fill-opacity: 1; stroke: rgb(68, 68, 68); stroke-opacity: 1;"/><g class="slicetext"><text data-notex="1" class="slicetext" transform="translate(283.1855330113851,192.204506218212)rotate(-46.03791383418934)" text-anchor="middle" x="0" y="0" style="font-family: 'Times New Roman'; font-size: 14px; fill: rgb(255, 255, 255); fill-opacity: 1; white-space: pre;"><tspan class="line" dy="0em" x="0" y="0">Diesel Energy</tspan><tspan class="line" dy="1.3em" x="0" y="0">25.6%</tspan></text></g></g><g class="slice"><path class="surface" d="M297.86756696027265,258.38958632230896a52.16666666666668,52.16666666666668 0 0 0 52.0618754667319,50.2770326283189l-0.1058363594931739,78.24992842594177a130.41666666666669,130.41666666666669 0 0 1 -130.15468866682974,-125.69258157079724Z" style="pointer-events: all; stroke-width: 0; fill: rgb(65, 105, 225); fill-opacity: 1; stroke: rgb(68, 68, 68); stroke-opacity: 1;"/><g class="slicetext"><text data-notex="1" class="slicetext" transform="translate(289.9694001383395,318.51549316547477)rotate(44.000833632691524)" text-anchor="middle" x="0" y="0" style="font-family: 'Times New Roman'; font-size: 14px; fill: rgb(255, 255, 255); fill-opacity: 1; white-space: pre;"><tspan class="line" dy="0em" x="0" y="0">Battery Energy</tspan><tspan class="line" dy="1.3em" x="0" y="0">24.4%</tspan></text></g></g><g class="slice"><path class="surface" d="M355.10819656124636,334.23067151266997a52.16666666666668,52.16666666666668 0 0 0 20.43814476754453,-4.140350065948167l30.551380791823618,72.03940332701953a130.41666666666669,130.41666666666669 0 0 1 -51.09536191886132,10.350875164870416Z" style="pointer-events: all; stroke-width: 0; fill: rgb(178, 34, 34); fill-opacity: 1; stroke: rgb(68, 68, 68); stroke-opacity: 1;"/><g class="slicetext"><text data-notex="1" class="slicetext" transform="translate(425.5022123054507,422.02235172267024)" text-anchor="middle" x="0" y="0" style="font-family: 'Times New Roman'; font-size: 14px; fill: rgb(0, 0, 0); fill-opacity: 1; white-space: pre;"><tspan class="line" dy="0em" x="0" y="0">ENS Energy</tspan><tspan class="line" dy="1.3em" x="0" y="0">6.41%</tspan></text></g></g><g class="titletext"><text data-notex="1" class="titletext" transform="translate(350,256.5)translate(0,5.9921875)" text-anchor="middle" x="0" y="0" style="font-family: 'Times New Roman'; font-size: 14px; fill: rgb(0, 0, 0); fill-opacity: 1; white-space: pre;">Supply Load</text></g></g></g><g class="treemaplayer"/><g class="sunburstlayer"/><g class="glimages"/><defs id="topdefs-938510"><g class="clips"/></defs><g class="layer-above"><g class="imagelayer"/><g class="shapelayer"/></g><g class="infolayer"><g class="g-gtitle"/></g></svg>