<svg class="main-svg" xmlns="http://www.w3.org/2000/svg" xmlns:xlink="http://www.w3.org/1999/xlink" width="700" height="500" style="" viewBox="0 0 700 500"><rect x="0" y="0" width="700" height="500" style="fill: rgb(255, 255, 255); fill-opacity: 1;"/><defs id="defs-34cbc0"><g class="clips"/><g class="gradients"/></defs><g class="bglayer"/><g class="layer-below"><g class="imagelayer"/><g class="shapelayer"/></g><g class="cartesianlayer"/><g class="polarlayer"/><g class="ternarylayer"/><g class="geolayer"/><g class="funnelarealayer"/><g class="pielayer"><g class="trace" stroke-linejoin="round" style="opacity: 1;"><g class="slice"><path class="surface" d="M358.86070621558497,305.90120165384644a51.66666666666668,51.66666666666668 0 0 0 -8.860706215584969,-102.56786832051313l0,-77.50000000000001a129.16666666666669,129.16666666666669 0 0 1 22.151765538962422,256.4196708012828Z" style="pointer-events: all; stroke-width: 0; fill: rgb(255, 165, 0); fill-opacity: 1; stroke: rgb(68, 68, 68); stroke-opacity: 1;"/><g class="slicetext"><text data-notex="1" class="slicetext" transform="translate(439.97959072066874,242.92113004076765)" text-anchor="middle" x="0" y="0" style="font-family: 'Times New Roman'; font-size: 14px; fill: rgb(68, 68, 68); fill-opacity: 1; white-space: pre;"><tspan class="line" dy="0em" x="0" y="0">PV Energy</tspan><tspan class="line" dy="1.3em" x="0" y="0">47.3%</tspan></text></g></g><g class="slice"><path class="surface" d="M350,203.33333333333331a51.66666666666668,51.66666666666668 0 0 0 -51.1332038025,59.07206424792082l-76.69980570374999,11.108096371881226a129.16666666666669,129.16666666666669 0 0 1 127.83300950625,-147.68016061980205Z" style="pointer-events: all; stroke-width: 0; fill: rgb(65, 105, 225); fill-opacity: 1; stroke: rgb(68, 68, 68); stroke-opacity: 1;"/><g class="slicetext"><text data-notex="1" class="slicetext" transform="translate(282.14470975720053,196.39829934266592)rotate(-49.12030054569891)" text-anchor="middle" x="0" y="0" style="font-family: 'Times New Roman'; font-size: 14px; fill: rgb(255, 255, 255); fill-opacity: 1; white-space: pre;"><tspan class="line" dy="0em" x="0" y="0">Battery Energy</tspan><tspan class="line" dy="1.3em" x="0" y="0">27.3%</tspan></text></g></g><g class="slice"><path class="surface" d="M298.8667961975,262.40539758125414a51.66666666666668,51.66666666666668 0 0 0 50.29911747957901,44.25453606611285l-1.251129484381483,77.48990047105049a129.16666666666669,129.16666666666669 0 0 1 -125.74779369894752,-110.6363401652821Z" style="pointer-events: all; stroke-width: 0; fill: rgb(46, 139, 87); fill-opacity: 1; stroke: rgb(68, 68, 68); stroke-opacity: 1;"/><g class="slicetext"><text data-notex="1" class="slicetext" transform="translate(291.84577704738876,320.9435635193141)rotate(41.34219979707677)" text-anchor="middle" x="0" y="0" style="font-family: 'Times New Roman'; font-size: 14px; fill: rgb(255, 255, 255); fill-opacity: 1; white-space: pre;"><tspan class="line" dy="0em" x="0" y="0">Diesel Energy</tspan><tspan class="line" dy="1.3em" x="0" y="0">22.5%</tspan></text></g></g><g class="slice"><path class="surface" d="M351.1815137914882,332.41451512891905a51.66666666666668,51.66666666666668 0 0 0 9.694792538505991,-0.7587319935205642l13.291059323377501,76.35180248076965a129.16666666666669,129.16666666666669 0 0 1 -24.236981346264976,1.8968299838014104Z" style="pointer-events: all; stroke-width: 0; fill: rgb(178, 34, 34); fill-opacity: 1; stroke: rgb(68, 68, 68); stroke-opacity: 1;"/><g class="slicetext"><text data-notex="1" class="slicetext" transform="translate(406.52328818645515,422.2358334396298)" text-anchor="middle" x="0" y="0" style="font-family: 'Times New Roman'; font-size: 14px; fill: rgb(0, 0, 0); fill-opacity: 1; white-space: pre;"><tspan class="line" dy="0em" x="0" y="0">ENS Energy</tspan><tspan class="line" dy="1.3em" x="0" y="0">3%</tspan></text></g></g><g class="titletext"><text data-notex="1" class="titletext" transform="translate(350,255)translate(0,5.9921875)" text-anchor="middle" x="0" y="0" style="font-family: 'Times New Roman'; font-size: 14px; fill: rgb(0, 0, 0); fill-opacity: 1; white-space: pre;">Supply Load</text></g></g></g><g class="treemaplayer"/><g class="sunburstlayer"/><g class="glimages"/><defs id="topdefs-34cbc0"><g class="clips"/></defs><g class="layer-above"><g class="imagelayer"/><g class="shapelayer"/></g><g class="infolayer"><g class="g-gtitle"/></g></svg>