<svg class="main-svg" xmlns="http://www.w3.org/2000/svg" xmlns:xlink="http://www.w3.org/1999/xlink" width="700" height="500" style="" viewBox="0 0 700 500"><rect x="0" y="0" width="700" height="500" style="fill: rgb(255, 255, 255); fill-opacity: 1;"/><defs id="defs-a4798e"><g class="clips"/><g class="gradients"/></defs><g class="bglayer"/><g class="layer-below"><g class="imagelayer"/><g class="shapelayer"/></g><g class="cartesianlayer"/><g class="polarlayer"/><g class="ternarylayer"/><g class="geolayer"/><g class="funnelarealayer"/><g class="pielayer"><g class="trace" stroke-linejoin="round" style="opacity: 1;"><g class="slice"><path class="surface" d="M355.74639648105995,306.34611350362275a51.66666666666668,51.66666666666668 0 0 0 -5.746396481059918,-103.0127801702894l0,-77.50000000000001a129.16666666666669,129.16666666666669 0 0 1 14.365991202649795,257.5319504257235Z" style="pointer-events: all; stroke-width: 0; fill: rgb(255, 165, 0); fill-opacity: 1; stroke: rgb(68, 68, 68); stroke-opacity: 1;"/><g class="slicetext"><text data-notex="1" class="slicetext" transform="translate(440.17475322666616,245.66721098858116)" text-anchor="middle" x="0" y="0" style="font-family: 'Times New Roman'; font-size: 14px; fill: rgb(68, 68, 68); fill-opacity: 1; white-space: pre;"><tspan class="line" dy="0em" x="0" y="0">PV Energy</tspan><tspan class="line" dy="1.3em" x="0" y="0">48.2%</tspan></text></g></g><g class="slice"><path class="surface" d="M350,203.33333333333331a51.66666666666668,51.66666666666668 0 0 0 -51.305842195094854,45.57117644056753l-76.95876329264227,-9.143235339148722a129.16666666666669,129.16666666666669 0 0 1 128.26460548773713,-113.92794110141881Z" style="pointer-events: all; stroke-width: 0; fill: rgb(65, 105, 225); fill-opacity: 1; stroke: rgb(68, 68, 68); stroke-opacity: 1;"/><g class="slicetext"><text data-notex="1" class="slicetext" transform="translate(286.18286680268915,183.305069851209)rotate(-41.612311438592315)" text-anchor="middle" x="0" y="0" style="font-family: 'Times New Roman'; font-size: 14px; fill: rgb(255, 255, 255); fill-opacity: 1; white-space: pre;"><tspan class="line" dy="0em" x="0" y="0">Battery Energy</tspan><tspan class="line" dy="1.3em" x="0" y="0">23.1%</tspan></text></g></g><g class="slice"><path class="surface" d="M298.69415780490516,248.90450977390086a51.66666666666668,51.66666666666668 0 0 0 34.2349872088809,54.86054281998137l-25.606282479320928,73.14757889082333a129.16666666666669,129.16666666666669 0 0 1 -85.58746802220224,-137.15135704995342Z" style="pointer-events: all; stroke-width: 0; fill: rgb(46, 139, 87); fill-opacity: 1; stroke: rgb(68, 68, 68); stroke-opacity: 1;"/><g class="slicetext"><text data-notex="1" class="slicetext" transform="translate(274.1737275313103,302.19865457212165)rotate(58.034327019845364)" text-anchor="middle" x="0" y="0" style="font-family: 'Times New Roman'; font-size: 14px; fill: rgb(255, 255, 255); fill-opacity: 1; white-space: pre;"><tspan class="line" dy="0em" x="0" y="0">Diesel Energy</tspan><tspan class="line" dy="1.3em" x="0" y="0">21.5%</tspan></text></g></g><g class="slice"><path class="surface" d="M330.0254271829833,329.4346753778304a51.66666666666668,51.66666666666668 0 0 0 22.817251467273838,2.5810609097405006l8.619594721589824,77.01917025543408a129.16666666666669,129.16666666666669 0 0 1 -57.04312866818459,-6.4526522743512515Z" style="pointer-events: all; stroke-width: 0; fill: rgb(178, 34, 34); fill-opacity: 1; stroke: rgb(68, 68, 68); stroke-opacity: 1;"/><g class="slicetext"><text data-notex="1" class="slicetext" transform="translate(287.9605055151836,421.6140733485659)" text-anchor="middle" x="0" y="0" style="font-family: 'Times New Roman'; font-size: 14px; fill: rgb(0, 0, 0); fill-opacity: 1; white-space: pre;"><tspan class="line" dy="0em" x="0" y="0">ENS Energy</tspan><tspan class="line" dy="1.3em" x="0" y="0">7.13%</tspan></text></g></g><g class="titletext"><text data-notex="1" class="titletext" transform="translate(350,255)translate(0,5.9921875)" text-anchor="middle" x="0" y="0" style="font-family: 'Times New Roman'; font-size: 14px; fill: rgb(0, 0, 0); fill-opacity: 1; white-space: pre;">Supply Load</text></g></g></g><g class="treemaplayer"/><g class="sunburstlayer"/><g class="glimages"/><defs id="topdefs-a4798e"><g class="clips"/></defs><g class="layer-above"><g class="imagelayer"/><g class="shapelayer"/></g><g class="infolayer"><g class="g-gtitle"/></g></svg>