<svg class="main-svg" xmlns="http://www.w3.org/2000/svg" xmlns:xlink="http://www.w3.org/1999/xlink" width="700" height="500" style="" viewBox="0 0 700 500"><rect x="0" y="0" width="700" height="500" style="fill: rgb(255, 255, 255); fill-opacity: 1;"/><defs id="defs-32df68"><g class="clips"/><g class="gradients"/></defs><g class="bglayer"/><g class="layer-below"><g class="imagelayer"/><g class="shapelayer"/></g><g class="cartesianlayer"/><g class="polarlayer"/><g class="ternarylayer"/><g class="geolayer"/><g class="funnelarealayer"/><g class="pielayer"><g class="trace" stroke-linejoin="round" style="opacity: 1;"><g class="slice"><path class="surface" d="M373.91951603134015,307.66866053573256a53.33333333333334,53.33333333333334 0 0 0 -23.91951603134014,-101.00199386906591l0,-80a133.33333333333334,133.33333333333334 0 0 1 59.79879007835035,252.50498467266476Z" style="pointer-events: all; stroke-width: 0; fill: rgb(46, 139, 87); fill-opacity: 1; stroke: rgb(68, 68, 68); stroke-opacity: 1;"/><g class="slicetext"><text data-notex="1" class="slicetext" transform="translate(436.2117533857169,240.0969714221795)rotate(76.67654777346024)" text-anchor="middle" x="0" y="0" style="font-family: 'Times New Roman'; font-size: 14px; fill: rgb(255, 255, 255); fill-opacity: 1; white-space: pre;"><tspan class="line" dy="0em" x="0" y="0">Diesel Energy</tspan><tspan class="line" dy="1.3em" x="0" y="0">42.6%</tspan></text></g></g><g class="slice"><path class="surface" d="M350,206.66666666666666a53.33333333333334,53.33333333333334 0 0 0 -50.527824746667584,70.40328854166627l-75.79173712000137,25.604932812499392a133.33333333333334,133.33333333333334 0 0 1 126.31956186666895,-176.00822135416567Z" style="pointer-events: all; stroke-width: 0; fill: rgb(255, 165, 0); fill-opacity: 1; stroke: rgb(68, 68, 68); stroke-opacity: 1;"/><g class="slicetext"><text data-notex="1" class="slicetext" transform="translate(274.67387061461324,200.97868728427684)" text-anchor="middle" x="0" y="0" style="font-family: 'Times New Roman'; font-size: 14px; fill: rgb(68, 68, 68); fill-opacity: 1; white-space: pre;"><tspan class="line" dy="0em" x="0" y="0">PV Energy</tspan><tspan class="line" dy="1.3em" x="0" y="0">30.2%</tspan></text></g></g><g class="slice"><path class="surface" d="M299.4721752533324,277.06995520833294a53.33333333333334,53.33333333333334 0 0 0 42.98175485385087,35.72683705802706l-11.31910483922506,79.19518839953999a133.33333333333334,133.33333333333334 0 0 1 -107.45438713462718,-89.31709264506765Z" style="pointer-events: all; stroke-width: 0; fill: rgb(65, 105, 225); fill-opacity: 1; stroke: rgb(68, 68, 68); stroke-opacity: 1;"/><g class="slicetext"><text data-notex="1" class="slicetext" transform="translate(287.07547680413626,336.4845787799797)rotate(39.733676292747646)" text-anchor="middle" x="0" y="0" style="font-family: 'Times New Roman'; font-size: 14px; fill: rgb(255, 255, 255); fill-opacity: 1; white-space: pre;"><tspan class="line" dy="0em" x="0" y="0">Battery Energy</tspan><tspan class="line" dy="1.3em" x="0" y="0">17.6%</tspan></text></g></g><g class="slice"><path class="surface" d="M346.7433609661216,339.1162127390357a53.33333333333334,53.33333333333334 0 0 0 31.465585924156837,-5.128131730627422l35.87927404701019,71.50299080359885a133.33333333333334,133.33333333333334 0 0 1 -78.66396481039209,12.820329326568555Z" style="pointer-events: all; stroke-width: 0; fill: rgb(178, 34, 34); fill-opacity: 1; stroke: rgb(68, 68, 68); stroke-opacity: 1;"/><g class="slicetext"><text data-notex="1" class="slicetext" transform="translate(374.0800635857265,379.14517379927287)rotate(80.7435510010448)" text-anchor="middle" x="0" y="0" style="font-family: 'Times New Roman'; font-size: 14px; fill: rgb(255, 255, 255); fill-opacity: 1; white-space: pre;"><tspan class="line" dy="0em" x="0" y="0">ENS Energy</tspan><tspan class="line" dy="1.3em" x="0" y="0">9.66%</tspan></text></g></g><g class="titletext"><text data-notex="1" class="titletext" transform="translate(350,260)translate(0,6.5)" text-anchor="middle" x="0" y="0" style="font-family: 'Times New Roman'; font-size: 14px; fill: rgb(0, 0, 0); fill-opacity: 1; white-space: pre;">Supply Load</text></g></g></g><g class="treemaplayer"/><g class="sunburstlayer"/><g class="glimages"/><defs id="topdefs-32df68"><g class="clips"/></defs><g class="layer-above"><g class="imagelayer"/><g class="shapelayer"/></g><g class="infolayer"><g class="g-gtitle"/></g></svg>