<svg class="main-svg" xmlns="http://www.w3.org/2000/svg" xmlns:xlink="http://www.w3.org/1999/xlink" width="700" height="500" style="" viewBox="0 0 700 500"><rect x="0" y="0" width="700" height="500" style="fill: rgb(255, 255, 255); fill-opacity: 1;"/><defs id="defs-57a9e3"><g class="clips"/><g class="gradients"/></defs><g class="bglayer"/><g class="layer-below"><g class="imagelayer"/><g class="shapelayer"/></g><g class="cartesianlayer"/><g class="polarlayer"/><g class="ternarylayer"/><g class="geolayer"/><g class="funnelarealayer"/><g class="pielayer"><g class="trace" stroke-linejoin="round" style="opacity: 1;"><g class="slice"><path class="surface" d="M349.8716672789335,296.241109570679a53.33333333333334,53.33333333333334 0 1 0 39.12833272106653,-89.57444290401232l0,-80a133.33333333333334,133.33333333333334 0 1 1 -97.82083180266632,223.93610726003078Z" style="pointer-events: all; stroke-width: 0; fill: rgb(255, 165, 0); fill-opacity: 1; stroke: rgb(68, 68, 68); stroke-opacity: 1;"/><g class="slicetext"><text data-notex="1" class="slicetext" transform="translate(475.02921238088385,292.75971345006326)" text-anchor="middle" x="0" y="0" style="font-family: 'Times New Roman'; font-size: 14px; fill: rgb(68, 68, 68); fill-opacity: 1; white-space: pre;"><tspan class="line" dy="0em" x="0" y="0">PV Energy</tspan><tspan class="line" dy="1.3em" x="0" y="0">63.1%</tspan></text></g></g><g class="slice"><path class="surface" d="M389,206.66666666666666a53.33333333333334,53.33333333333334 0 0 0 -47.817766817428875,76.95335918087304l-71.7266502261433,35.43003877130954a133.33333333333334,133.33333333333334 0 0 1 119.54441704357218,-192.38339795218258Z" style="pointer-events: all; stroke-width: 0; fill: rgb(65, 105, 225); fill-opacity: 1; stroke: rgb(68, 68, 68); stroke-opacity: 1;"/><g class="slicetext"><text data-notex="1" class="slicetext" transform="translate(314.7206721936564,213.25517157362668)rotate(-58.14374640085555)" text-anchor="middle" x="0" y="0" style="font-family: 'Times New Roman'; font-size: 14px; fill: rgb(255, 255, 255); fill-opacity: 1; white-space: pre;"><tspan class="line" dy="0em" x="0" y="0">Battery Energy</tspan><tspan class="line" dy="1.3em" x="0" y="0">32.3%</tspan></text></g></g><g class="slice"><path class="surface" d="M319.2178927939656,298.74215739056575a53.33333333333334,53.33333333333334 0 0 0 8.689434096362328,12.621083723139263l-58.69249908159981,54.36166435601844a133.33333333333334,133.33333333333334 0 0 1 -21.72358524090582,-31.552709307848154Z" style="pointer-events: all; stroke-width: 0; fill: rgb(178, 34, 34); fill-opacity: 1; stroke: rgb(68, 68, 68); stroke-opacity: 1;"/><g class="slicetext"><text data-notex="1" class="slicetext" transform="translate(213.85067641836685,351.46995142061684)" text-anchor="middle" x="0" y="0" style="font-family: 'Times New Roman'; font-size: 14px; fill: rgb(0, 0, 0); fill-opacity: 1; white-space: pre;"><tspan class="line" dy="0em" x="0" y="0">ENS Energy</tspan><tspan class="line" dy="1.3em" x="0" y="0">4.59%</tspan></text></g></g><g class="slice"><path class="surface" d="M349.87166727893344,296.241109570679a53.33333333333334,53.33333333333334 0 0 0 0,0l-58.69249908159981,54.36166435601844a133.33333333333334,133.33333333333334 0 0 1 0,0Z" style="pointer-events: all; stroke-width: 0; fill: rgb(46, 139, 87); fill-opacity: 1; stroke: rgb(68, 68, 68); stroke-opacity: 1;"/><g class="slicetext"><text data-notex="1" class="slicetext" transform="translate(243.14401194733364,384.67307642061684)" text-anchor="middle" x="0" y="0" style="font-family: 'Times New Roman'; font-size: 14px; fill: rgb(0, 0, 0); fill-opacity: 1; white-space: pre;"><tspan class="line" dy="0em" x="0" y="0">Diesel Energy</tspan><tspan class="line" dy="1.3em" x="0" y="0">0%</tspan></text></g><path class="textline" stroke-width="1.75" d="M291.17916819733364,350.6027739266974V389.27463892061684h-8.30078125" fill="none" style="stroke: rgb(0, 0, 0); stroke-opacity: 1;"/></g><g class="titletext"><text data-notex="1" class="titletext" transform="translate(389,260)translate(0,6.5)" text-anchor="middle" x="0" y="0" style="font-family: 'Times New Roman'; font-size: 14px; fill: rgb(0, 0, 0); fill-opacity: 1; white-space: pre;">Supply Load</text></g></g></g><g class="treemaplayer"/><g class="sunburstlayer"/><g class="glimages"/><defs id="topdefs-57a9e3"><g class="clips"/></defs><g class="layer-above"><g class="imagelayer"/><g class="shapelayer"/></g><g class="infolayer"><g class="g-gtitle"/></g></svg>