<svg class="main-svg" xmlns="http://www.w3.org/2000/svg" xmlns:xlink="http://www.w3.org/1999/xlink" width="700" height="500" style="" viewBox="0 0 700 500"><rect x="0" y="0" width="700" height="500" style="fill: rgb(255, 255, 255); fill-opacity: 1;"/><defs id="defs-a3f700"><g class="clips"/><g class="gradients"/></defs><g class="bglayer"/><g class="layer-below"><g class="imagelayer"/><g class="shapelayer"/></g><g class="cartesianlayer"/><g class="polarlayer"/><g class="ternarylayer"/><g class="geolayer"/><g class="funnelarealayer"/><g class="pielayer"><g class="trace" stroke-linejoin="round" style="opacity: 1;"><g class="slice"><path class="surface" d="M340.3589380865981,309.1771390742848a53.33333333333334,53.33333333333334 0 1 0 20.641061913401952,-102.51047240761818l0,-80a133.33333333333334,133.33333333333334 0 1 1 -51.602654783504875,256.27618101904545Z" style="pointer-events: all; stroke-width: 0; fill: rgb(255, 165, 0); fill-opacity: 1; stroke: rgb(68, 68, 68); stroke-opacity: 1;"/><g class="slicetext"><text data-notex="1" class="slicetext" transform="translate(452.99693207947183,273.8218609374512)" text-anchor="middle" x="0" y="0" style="font-family: 'Times New Roman'; font-size: 14px; fill: rgb(68, 68, 68); fill-opacity: 1; white-space: pre;"><tspan class="line" dy="0em" x="0" y="0">PV Energy</tspan><tspan class="line" dy="1.3em" x="0" y="0">56.3%</tspan></text></g></g><g class="slice"><path class="surface" d="M361,206.66666666666666a53.33333333333334,53.33333333333334 0 0 0 -53.1603153424863,49.04086118643927l-79.74047301372944,-6.438708220341105a133.33333333333334,133.33333333333334 0 0 1 132.90078835621574,-122.60215296609817Z" style="pointer-events: all; stroke-width: 0; fill: rgb(65, 105, 225); fill-opacity: 1; stroke: rgb(68, 68, 68); stroke-opacity: 1;"/><g class="slicetext"><text data-notex="1" class="slicetext" transform="translate(294.61391083792137,187.30004609919354)rotate(-42.69181092991175)" text-anchor="middle" x="0" y="0" style="font-family: 'Times New Roman'; font-size: 14px; fill: rgb(255, 255, 255); fill-opacity: 1; white-space: pre;"><tspan class="line" dy="0em" x="0" y="0">Battery Energy</tspan><tspan class="line" dy="1.3em" x="0" y="0">23.7%</tspan></text></g></g><g class="slice"><path class="surface" d="M307.8396846575137,255.70752785310594a53.33333333333334,53.33333333333334 0 0 0 22.93755443125498,48.23594910704133l-45.33414136684698,65.91521544022088a133.33333333333334,133.33333333333334 0 0 1 -57.343886078137444,-120.58987276760331Z" style="pointer-events: all; stroke-width: 0; fill: rgb(46, 139, 87); fill-opacity: 1; stroke: rgb(68, 68, 68); stroke-opacity: 1;"/><g class="slicetext"><text data-notex="1" class="slicetext" transform="translate(271.06388028996935,303.3208149363993)rotate(64.56759417444312)" text-anchor="middle" x="0" y="0" style="font-family: 'Times New Roman'; font-size: 14px; fill: rgb(255, 255, 255); fill-opacity: 1; white-space: pre;"><tspan class="line" dy="0em" x="0" y="0">Diesel Energy</tspan><tspan class="line" dy="1.3em" x="0" y="0">16.7%</tspan></text></g></g><g class="slice"><path class="surface" d="M317.99414553844645,327.3465457844451a53.33333333333334,53.33333333333334 0 0 0 9.581698997829358,5.2336621141375765l-30.96159287010294,73.76570861142724a133.33333333333334,133.33333333333334 0 0 1 -23.954247494573394,-13.08415528534394Z" style="pointer-events: all; stroke-width: 0; fill: rgb(178, 34, 34); fill-opacity: 1; stroke: rgb(68, 68, 68); stroke-opacity: 1;"/><g class="slicetext"><text data-notex="1" class="slicetext" transform="translate(240.93815744806653,408.60351051817577)" text-anchor="middle" x="0" y="0" style="font-family: 'Times New Roman'; font-size: 14px; fill: rgb(0, 0, 0); fill-opacity: 1; white-space: pre;"><tspan class="line" dy="0em" x="0" y="0">ENS Energy</tspan><tspan class="line" dy="1.3em" x="0" y="0">3.26%</tspan></text></g></g><g class="titletext"><text data-notex="1" class="titletext" transform="translate(361,260)translate(0,6.5)" text-anchor="middle" x="0" y="0" style="font-family: 'Times New Roman'; font-size: 14px; fill: rgb(0, 0, 0); fill-opacity: 1; white-space: pre;">Supply Load</text></g></g></g><g class="treemaplayer"/><g class="sunburstlayer"/><g class="glimages"/><defs id="topdefs-a3f700"><g class="clips"/></defs><g class="layer-above"><g class="imagelayer"/><g class="shapelayer"/></g><g class="infolayer"><g class="g-gtitle"/></g></svg>