<svg class="main-svg" xmlns="http://www.w3.org/2000/svg" xmlns:xlink="http://www.w3.org/1999/xlink" width="700" height="500" style="" viewBox="0 0 700 500"><rect x="0" y="0" width="700" height="500" style="fill: rgb(255, 255, 255); fill-opacity: 1;"/><defs id="defs-8797ed"><g class="clips"/><g class="gradients"/></defs><g class="bglayer"/><g class="layer-below"><g class="imagelayer"/><g class="shapelayer"/></g><g class="cartesianlayer"/><g class="polarlayer"/><g class="ternarylayer"/><g class="geolayer"/><g class="funnelarealayer"/><g class="pielayer"><g class="trace" stroke-linejoin="round" style="opacity: 1;"><g class="slice"><path class="surface" d="M375.5621566652712,299.29332387434135a53.33333333333334,53.33333333333334 0 0 0 -36.06215666527116,-92.62665720767468l0,-80a133.33333333333334,133.33333333333334 0 0 1 90.1553916631779,231.5666430191867Z" style="pointer-events: all; stroke-width: 0; fill: rgb(46, 139, 87); fill-opacity: 1; stroke: rgb(68, 68, 68); stroke-opacity: 1;"/><g class="slicetext"><text data-notex="1" class="slicetext" transform="translate(422.1310224756441,228.36598202822128)rotate(68.72764068237223)" text-anchor="middle" x="0" y="0" style="font-family: 'Times New Roman'; font-size: 14px; fill: rgb(255, 255, 255); fill-opacity: 1; white-space: pre;"><tspan class="line" dy="0em" x="0" y="0">Diesel Energy</tspan><tspan class="line" dy="1.3em" x="0" y="0">38.2%</tspan></text></g></g><g class="slice"><path class="surface" d="M339.5,206.66666666666666a53.33333333333334,53.33333333333334 0 0 0 -43.267246589380555,84.5164989362381l-64.90086988407083,46.774748404357126a133.33333333333334,133.33333333333334 0 0 1 108.16811647345138,-211.29124734059522Z" style="pointer-events: all; stroke-width: 0; fill: rgb(255, 165, 0); fill-opacity: 1; stroke: rgb(68, 68, 68); stroke-opacity: 1;"/><g class="slicetext"><text data-notex="1" class="slicetext" transform="translate(256.92063585667347,212.8669154880655)" text-anchor="middle" x="0" y="0" style="font-family: 'Times New Roman'; font-size: 14px; fill: rgb(68, 68, 68); fill-opacity: 1; white-space: pre;"><tspan class="line" dy="0em" x="0" y="0">PV Energy</tspan><tspan class="line" dy="1.3em" x="0" y="0">34.9%</tspan></text></g></g><g class="slice"><path class="surface" d="M296.23275341061947,291.18316560290475a53.33333333333334,53.33333333333334 0 0 0 55.214397680590395,20.79481074523956l17.92072663681476,77.96696452221646a133.33333333333334,133.33333333333334 0 0 1 -138.03599420147597,-51.98702686309889Z" style="pointer-events: all; stroke-width: 0; fill: rgb(65, 105, 225); fill-opacity: 1; stroke: rgb(68, 68, 68); stroke-opacity: 1;"/><g class="slicetext"><text data-notex="1" class="slicetext" transform="translate(305.6846997923089,351.2050455679914)rotate(20.63734509925439)" text-anchor="middle" x="0" y="0" style="font-family: 'Times New Roman'; font-size: 14px; fill: rgb(255, 255, 255); fill-opacity: 1; white-space: pre;"><tspan class="line" dy="0em" x="0" y="0">Battery Energy</tspan><tspan class="line" dy="1.3em" x="0" y="0">18.7%</tspan></text></g></g><g class="slice"><path class="surface" d="M363.86134165996435,335.5788022581365a53.33333333333334,53.33333333333334 0 0 0 24.11500557406129,-12.684652473802936l54.09323499790669,58.93998581151205a133.33333333333334,133.33333333333334 0 0 1 -60.28751393515322,31.71163118450734Z" style="pointer-events: all; stroke-width: 0; fill: rgb(178, 34, 34); fill-opacity: 1; stroke: rgb(68, 68, 68); stroke-opacity: 1;"/><g class="slicetext"><text data-notex="1" class="slicetext" transform="translate(458.3484246625271,410.0070618588734)" text-anchor="middle" x="0" y="0" style="font-family: 'Times New Roman'; font-size: 14px; fill: rgb(0, 0, 0); fill-opacity: 1; white-space: pre;"><tspan class="line" dy="0em" x="0" y="0">ENS Energy</tspan><tspan class="line" dy="1.3em" x="0" y="0">8.22%</tspan></text></g></g><g class="titletext"><text data-notex="1" class="titletext" transform="translate(339.5,260)translate(0,6.5)" text-anchor="middle" x="0" y="0" style="font-family: 'Times New Roman'; font-size: 14px; fill: rgb(0, 0, 0); fill-opacity: 1; white-space: pre;">Supply Load</text></g></g></g><g class="treemaplayer"/><g class="sunburstlayer"/><g class="glimages"/><defs id="topdefs-8797ed"><g class="clips"/></defs><g class="layer-above"><g class="imagelayer"/><g class="shapelayer"/></g><g class="infolayer"><g class="g-gtitle"/></g></svg>