<svg class="main-svg" xmlns="http://www.w3.org/2000/svg" xmlns:xlink="http://www.w3.org/1999/xlink" width="700" height="500" style="" viewBox="0 0 700 500"><rect x="0" y="0" width="700" height="500" style="fill: rgb(255, 255, 255); fill-opacity: 1;"/><defs id="defs-befef0"><g class="clips"/><g class="gradients"/></defs><g class="bglayer"/><g class="layer-below"><g class="imagelayer"/><g class="shapelayer"/></g><g class="cartesianlayer"/><g class="polarlayer"/><g class="ternarylayer"/><g class="geolayer"/><g class="funnelarealayer"/><g class="pielayer"><g class="trace" stroke-linejoin="round" style="opacity: 1;"><g class="slice"><path class="surface" d="M346.7681152239939,308.56645783905157a52.16666666666668,52.16666666666668 0 1 0 3.231884776006075,-104.23312450571821l0,-78.25000000000001a130.41666666666669,130.41666666666669 0 1 1 -8.079711940015187,260.5828112642955Z" style="pointer-events: all; stroke-width: 0; fill: rgb(255, 165, 0); fill-opacity: 1; stroke: rgb(68, 68, 68); stroke-opacity: 1;"/><g class="slicetext"><text data-notex="1" class="slicetext" transform="translate(441.7478147724703,254.72769571139315)" text-anchor="middle" x="0" y="0" style="font-family: 'Times New Roman'; font-size: 14px; fill: rgb(68, 68, 68); fill-opacity: 1; white-space: pre;"><tspan class="line" dy="0em" x="0" y="0">PV Energy</tspan><tspan class="line" dy="1.3em" x="0" y="0">51%</tspan></text></g></g><g class="slice"><path class="surface" d="M350,204.33333333333331a52.16666666666668,52.16666666666668 0 0 0 -52.16621506410403,51.94960216759331l-78.24932259615603,-0.32559674861003957a130.41666666666669,130.41666666666669 0 0 1 130.41553766026007,-129.87400541898327Z" style="pointer-events: all; stroke-width: 0; fill: rgb(65, 105, 225); fill-opacity: 1; stroke: rgb(68, 68, 68); stroke-opacity: 1;"/><g class="slicetext"><text data-notex="1" class="slicetext" transform="translate(283.6560443578442,189.17082918534305)rotate(-44.88079633641371)" text-anchor="middle" x="0" y="0" style="font-family: 'Times New Roman'; font-size: 14px; fill: rgb(255, 255, 255); fill-opacity: 1; white-space: pre;"><tspan class="line" dy="0em" x="0" y="0">Battery Energy</tspan><tspan class="line" dy="1.3em" x="0" y="0">24.9%</tspan></text></g></g><g class="slice"><path class="surface" d="M297.83378493589595,256.2829355009266a52.16666666666668,52.16666666666668 0 0 0 34.74750510665564,49.38971598879273l-26.12806493617258,73.75897723457905a130.41666666666669,130.41666666666669 0 0 1 -86.8687627666391,-123.47428997198182Z" style="pointer-events: all; stroke-width: 0; fill: rgb(46, 139, 87); fill-opacity: 1; stroke: rgb(68, 68, 68); stroke-opacity: 1;"/><g class="slicetext"><text data-notex="1" class="slicetext" transform="translate(274.2707864050419,310.38966663285515)rotate(54.87218581182981)" text-anchor="middle" x="0" y="0" style="font-family: 'Times New Roman'; font-size: 14px; fill: rgb(255, 255, 255); fill-opacity: 1; white-space: pre;"><tspan class="line" dy="0em" x="0" y="0">Diesel Energy</tspan><tspan class="line" dy="1.3em" x="0" y="0">19.6%</tspan></text></g></g><g class="slice"><path class="surface" d="M327.36819848119853,331.2297239775989a52.16666666666668,52.16666666666668 0 0 0 14.186825181442348,2.8938063493321753l-4.847827164009062,78.0996867585773a130.41666666666669,130.41666666666669 0 0 1 -35.46706295360587,-7.234515873330437Z" style="pointer-events: all; stroke-width: 0; fill: rgb(178, 34, 34); fill-opacity: 1; stroke: rgb(68, 68, 68); stroke-opacity: 1;"/><g class="slicetext"><text data-notex="1" class="slicetext" transform="translate(275.35816938188157,421.1792823109298)" text-anchor="middle" x="0" y="0" style="font-family: 'Times New Roman'; font-size: 14px; fill: rgb(0, 0, 0); fill-opacity: 1; white-space: pre;"><tspan class="line" dy="0em" x="0" y="0">ENS Energy</tspan><tspan class="line" dy="1.3em" x="0" y="0">4.43%</tspan></text></g></g><g class="titletext"><text data-notex="1" class="titletext" transform="translate(350,256.5)translate(0,6.5)" text-anchor="middle" x="0" y="0" style="font-family: 'Times New Roman'; font-size: 14px; fill: rgb(0, 0, 0); fill-opacity: 1; white-space: pre;">Supply Load</text></g></g></g><g class="treemaplayer"/><g class="sunburstlayer"/><g class="glimages"/><defs id="topdefs-befef0"><g class="clips"/></defs><g class="layer-above"><g class="imagelayer"/><g class="shapelayer"/></g><g class="infolayer"><g class="g-gtitle"/></g></svg>