<svg class="main-svg" xmlns="http://www.w3.org/2000/svg" xmlns:xlink="http://www.w3.org/1999/xlink" width="520" height="400" style="" viewBox="0 0 520 400"><rect x="0" y="0" width="520" height="400" style="fill: rgb(255, 255, 255); fill-opacity: 1;"/><defs id="defs-612e43"><g class="clips"><clipPath id="clip612e43xyplot" class="plotclip"><rect width="360" height="250"/></clipPath><clipPath class="axesclip" id="clip612e43x"><rect x="80" y="0" width="360" height="400"/></clipPath><clipPath class="axesclip" id="clip612e43y"><rect x="0" y="70" width="520" height="250"/></clipPath><clipPath class="axesclip" id="clip612e43xy"><rect x="80" y="70" width="360" height="250"/></clipPath></g><g class="gradients"/></defs><g class="bglayer"/><g class="layer-below"><g class="imagelayer"/><g class="shapelayer"/></g><g class="cartesianlayer"><g class="subplot xy"><g class="layer-subplot"><g class="shapelayer"/><g class="imagelayer"/></g><g class="gridlayer"><g class="x"/><g class="y"><path class="ygrid crisp" transform="translate(0,267.71000000000004)" d="M80,0h360" style="stroke: rgb(238, 238, 238); stroke-opacity: 1; stroke-width: 1px;"/><path class="ygrid crisp" transform="translate(0,227.92)" d="M80,0h360" style="stroke: rgb(238, 238, 238); stroke-opacity: 1; stroke-width: 1px;"/><path class="ygrid crisp" transform="translate(0,188.13)" d="M80,0h360" style="stroke: rgb(238, 238, 238); stroke-opacity: 1; stroke-width: 1px;"/><path class="ygrid crisp" transform="translate(0,148.34)" d="M80,0h360" style="stroke: rgb(238, 238, 238); stroke-opacity: 1; stroke-width: 1px;"/><path class="ygrid crisp" transform="translate(0,108.55)" d="M80,0h360" style="stroke: rgb(238, 238, 238); stroke-opacity: 1; stroke-width: 1px;"/></g></g><g class="zerolinelayer"><path class="yzl zl crisp" transform="translate(0,307.5)" d="M80,0h360" style="stroke: rgb(68, 68, 68); stroke-opacity: 1; stroke-width: 1px;"/></g><path class="xlines-below"/><path class="ylines-below"/><g class="overlines-below"/><g class="xaxislayer-below"/><g class="yaxislayer-below"/><g class="overaxes-below"/><g class="plot" transform="translate(80,70)" clip-path="url('#clip612e43xyplot')"><g class="scatterlayer mlayer"><g class="trace scatter traceccb8c3" style="stroke-miterlimit: 2; opacity: 1;"><g class="fills"/><g class="errorbars"/><g class="lines"><path class="js-line" d="M0,216.53L15.65,206.07L31.3,209.1L46.96,221.32L62.61,198.93L78.26,203.85L93.91,219.86L109.57,218.77L125.22,219.98L140.87,224.33L156.52,224.43L172.17,228.27L187.83,230.76L203.48,228.97L219.13,217.29L234.78,174.62L250.43,172.77L266.09,197.89L281.74,229.09L297.39,141.28L313.04,157.08L344.35,163.2L360,183.42" style="vector-effect: non-scaling-stroke; fill: none; stroke: rgb(31, 119, 180); stroke-opacity: 1; stroke-width: 2px; opacity: 1;"/></g><g class="points"/><g class="text"/></g><g class="trace scatter trace4a0098" style="stroke-miterlimit: 2; opacity: 1;"><g class="fills"/><g class="errorbars"/><g class="lines"><path class="js-line" d="M0,237.5L62.61,237.5L78.26,236.34L93.91,172.71L109.57,54.23L125.22,39.96L140.87,74.07L156.52,50.25L172.17,38.17L187.83,31.94L203.48,29.92L219.13,51.3L234.78,111.44L250.43,77.64L266.09,199.04L281.74,237.38L297.39,237.5L360,237.5" style="vector-effect: non-scaling-stroke; fill: none; stroke: rgb(255, 127, 14); stroke-opacity: 1; stroke-width: 2px; opacity: 1;"/></g><g class="points"/><g class="text"/></g><g class="trace scatter tracedf99ed" style="stroke-miterlimit: 2; opacity: 1;"><g class="fills"/><g class="errorbars"/><g class="lines"><path class="js-line" d="M0,213.95L15.65,233.79L31.3,230.97L46.96,208.5L62.61,234.87L78.26,229.66L93.91,184.31L109.57,200.09L125.22,210.07L140.87,178.34L156.52,211.04L172.17,229.48L187.83,229.74L203.48,221.86L219.13,211.01L234.78,183.41L250.43,209.75L266.09,57.74L281.74,12.5L297.39,208.62L313.04,237.5L344.35,237.5L360,234.18" style="vector-effect: non-scaling-stroke; fill: none; stroke: rgb(44, 160, 44); stroke-opacity: 1; stroke-width: 2px; opacity: 1;"/></g><g class="points"/><g class="text"/></g><g class="trace scatter trace3c1f31" style="stroke-miterlimit: 2; opacity: 1;"><g class="fills"/><g class="errorbars"/><g class="lines"><path class="js-line" d="M0,203.92L15.65,194.46L31.3,193.82L46.96,204.41L62.61,200.68L78.26,198.27L93.91,204.39L109.57,223.56L125.22,218.8L140.87,220.65L156.52,233.35L187.83,237.06L203.48,236.19L234.78,236.9L250.43,236.33L266.09,237.5L281.74,237.5L328.7,236.61L344.35,233.58L360,216.65" style="vector-effect: non-scaling-stroke; fill: none; stroke: rgb(214, 39, 40); stroke-opacity: 1; stroke-width: 2px; opacity: 1;"/></g><g class="points"/><g class="text"/></g></g></g><g class="overplot"/><path class="xlines-above crisp" d="M79,320.5H440" style="fill: none; stroke-width: 1px; stroke: rgb(0, 0, 0); stroke-opacity: 1;"/><path class="ylines-above crisp" d="M79.5,70V320" style="fill: none; stroke-width: 1px; stroke: rgb(0, 0, 0); stroke-opacity: 1;"/><g class="overlines-above"/><g class="xaxislayer-above"><g class="xtick"><text text-anchor="start" x="0" y="337.8" transform="translate(80,0) rotate(90,0,330.8)" style="font-family: 'Times New Roman'; font-size: 14px; fill: rgb(0, 0, 0); fill-opacity: 1; white-space: pre;">1</text></g><g class="xtick"><text text-anchor="start" x="0" y="337.8" transform="translate(95.65,0) rotate(90,0,330.8)" style="font-family: 'Times New Roman'; font-size: 14px; fill: rgb(0, 0, 0); fill-opacity: 1; white-space: pre;">2</text></g><g class="xtick"><text text-anchor="start" x="0" y="337.8" transform="translate(111.3,0) rotate(90,0,330.8)" style="font-family: 'Times New Roman'; font-size: 14px; fill: rgb(0, 0, 0); fill-opacity: 1; white-space: pre;">3</text></g><g class="xtick"><text text-anchor="start" x="0" y="337.8" transform="translate(126.96000000000001,0) rotate(90,0,330.8)" style="font-family: 'Times New Roman'; font-size: 14px; fill: rgb(0, 0, 0); fill-opacity: 1; white-space: pre;">4</text></g><g class="xtick"><text text-anchor="start" x="0" y="337.8" transform="translate(142.61,0) rotate(90,0,330.8)" style="font-family: 'Times New Roman'; font-size: 14px; fill: rgb(0, 0, 0); fill-opacity: 1; white-space: pre;">5</text></g><g class="xtick"><text text-anchor="start" x="0" y="337.8" transform="translate(158.26,0) rotate(90,0,330.8)" style="font-family: 'Times New Roman'; font-size: 14px; fill: rgb(0, 0, 0); fill-opacity: 1; white-space: pre;">6</text></g><g class="xtick"><text text-anchor="start" x="0" y="337.8" transform="translate(173.91,0) rotate(90,0,330.8)" style="font-family: 'Times New Roman'; font-size: 14px; fill: rgb(0, 0, 0); fill-opacity: 1; white-space: pre;">7</text></g><g class="xtick"><text text-anchor="start" x="0" y="337.8" transform="translate(189.57,0) rotate(90,0,330.8)" style="font-family: 'Times New Roman'; font-size: 14px; fill: rgb(0, 0, 0); fill-opacity: 1; white-space: pre;">8</text></g><g class="xtick"><text text-anchor="start" x="0" y="337.8" transform="translate(205.22,0) rotate(90,0,330.8)" style="font-family: 'Times New Roman'; font-size: 14px; fill: rgb(0, 0, 0); fill-opacity: 1; white-space: pre;">9</text></g><g class="xtick"><text text-anchor="start" x="0" y="337.8" transform="translate(220.87,0) rotate(90,0,330.8)" style="font-family: 'Times New Roman'; font-size: 14px; fill: rgb(0, 0, 0); fill-opacity: 1; white-space: pre;">10</text></g><g class="xtick"><text text-anchor="start" x="0" y="337.8" transform="translate(236.52,0) rotate(90,0,330.8)" style="font-family: 'Times New Roman'; font-size: 14px; fill: rgb(0, 0, 0); fill-opacity: 1; white-space: pre;">11</text></g><g class="xtick"><text text-anchor="start" x="0" y="337.8" transform="translate(252.17,0) rotate(90,0,330.8)" style="font-family: 'Times New Roman'; font-size: 14px; fill: rgb(0, 0, 0); fill-opacity: 1; white-space: pre;">12</text></g><g class="xtick"><text text-anchor="start" x="0" y="337.8" transform="translate(267.83000000000004,0) rotate(90,0,330.8)" style="font-family: 'Times New Roman'; font-size: 14px; fill: rgb(0, 0, 0); fill-opacity: 1; white-space: pre;">13</text></g><g class="xtick"><text text-anchor="start" x="0" y="337.8" transform="translate(283.48,0) rotate(90,0,330.8)" style="font-family: 'Times New Roman'; font-size: 14px; fill: rgb(0, 0, 0); fill-opacity: 1; white-space: pre;">14</text></g><g class="xtick"><text text-anchor="start" x="0" y="337.8" transform="translate(299.13,0) rotate(90,0,330.8)" style="font-family: 'Times New Roman'; font-size: 14px; fill: rgb(0, 0, 0); fill-opacity: 1; white-space: pre;">15</text></g><g class="xtick"><text text-anchor="start" x="0" y="337.8" transform="translate(314.78,0) rotate(90,0,330.8)" style="font-family: 'Times New Roman'; font-size: 14px; fill: rgb(0, 0, 0); fill-opacity: 1; white-space: pre;">16</text></g><g class="xtick"><text text-anchor="start" x="0" y="337.8" transform="translate(330.43,0) rotate(90,0,330.8)" style="font-family: 'Times New Roman'; font-size: 14px; fill: rgb(0, 0, 0); fill-opacity: 1; white-space: pre;">17</text></g><g class="xtick"><text text-anchor="start" x="0" y="337.8" transform="translate(346.09,0) rotate(90,0,330.8)" style="font-family: 'Times New Roman'; font-size: 14px; fill: rgb(0, 0, 0); fill-opacity: 1; white-space: pre;">18</text></g><g class="xtick"><text text-anchor="start" x="0" y="337.8" transform="translate(361.74,0) rotate(90,0,330.8)" style="font-family: 'Times New Roman'; font-size: 14px; fill: rgb(0, 0, 0); fill-opacity: 1; white-space: pre;">19</text></g><g class="xtick"><text text-anchor="start" x="0" y="337.8" transform="translate(377.39,0) rotate(90,0,330.8)" style="font-family: 'Times New Roman'; font-size: 14px; fill: rgb(0, 0, 0); fill-opacity: 1; white-space: pre;">20</text></g><g class="xtick"><text text-anchor="start" x="0" y="337.8" transform="translate(393.04,0) rotate(90,0,330.8)" style="font-family: 'Times New Roman'; font-size: 14px; fill: rgb(0, 0, 0); fill-opacity: 1; white-space: pre;">21</text></g><g class="xtick"><text text-anchor="start" x="0" y="337.8" transform="translate(408.7,0) rotate(90,0,330.8)" style="font-family: 'Times New Roman'; font-size: 14px; fill: rgb(0, 0, 0); fill-opacity: 1; white-space: pre;">22</text></g><g class="xtick"><text text-anchor="start" x="0" y="337.8" transform="translate(424.35,0) rotate(90,0,330.8)" style="font-family: 'Times New Roman'; font-size: 14px; fill: rgb(0, 0, 0); fill-opacity: 1; white-space: pre;">23</text></g><g class="xtick"><text text-anchor="start" x="0" y="337.8" transform="translate(440,0) rotate(90,0,330.8)" style="font-family: 'Times New Roman'; font-size: 14px; fill: rgb(0, 0, 0); fill-opacity: 1; white-space: pre;">24</text></g></g><g class="yaxislayer-above"><g class="ytick"><text text-anchor="end" x="76.2" y="4.8999999999999995" transform="translate(0,307.5)" style="font-family: 'Times New Roman'; font-size: 14px; fill: rgb(0, 0, 0); fill-opacity: 1; white-space: pre;">0</text></g><g class="ytick"><text text-anchor="end" x="76.2" y="4.8999999999999995" transform="translate(0,267.71000000000004)" style="font-family: 'Times New Roman'; font-size: 14px; fill: rgb(0, 0, 0); fill-opacity: 1; white-space: pre;">1</text></g><g class="ytick"><text text-anchor="end" x="76.2" y="4.8999999999999995" transform="translate(0,227.92)" style="font-family: 'Times New Roman'; font-size: 14px; fill: rgb(0, 0, 0); fill-opacity: 1; white-space: pre;">2</text></g><g class="ytick"><text text-anchor="end" x="76.2" y="4.8999999999999995" transform="translate(0,188.13)" style="font-family: 'Times New Roman'; font-size: 14px; fill: rgb(0, 0, 0); fill-opacity: 1; white-space: pre;">3</text></g><g class="ytick"><text text-anchor="end" x="76.2" y="4.8999999999999995" transform="translate(0,148.34)" style="font-family: 'Times New Roman'; font-size: 14px; fill: rgb(0, 0, 0); fill-opacity: 1; white-space: pre;">4</text></g><g class="ytick"><text text-anchor="end" x="76.2" y="4.8999999999999995" transform="translate(0,108.55)" style="font-family: 'Times New Roman'; font-size: 14px; fill: rgb(0, 0, 0); fill-opacity: 1; white-space: pre;">5</text></g></g><g class="overaxes-above"/></g></g><g class="polarlayer"/><g class="ternarylayer"/><g class="geolayer"/><g class="funnelarealayer"/><g class="pielayer"/><g class="treemaplayer"/><g class="sunburstlayer"/><g class="glimages"/><defs id="topdefs-612e43"><g class="clips"/><clipPath id="legend612e43"><rect width="346" height="53" x="0" y="0"/></clipPath></defs><g class="layer-above"><g class="imagelayer"/><g class="shapelayer"/></g><g class="infolayer"><g class="legend" pointer-events="all" transform="translate(94,12)"><rect class="bg" shape-rendering="crispEdges" width="346" height="53" x="0" y="0" style="stroke: rgb(68, 68, 68); stroke-opacity: 1; fill: rgb(255, 255, 255); fill-opacity: 1; stroke-width: 0px;"/><g class="scrollbox" transform="" clip-path="url('#legend612e43')"><text class="legendtitletext" text-anchor="start" x="2" y="18.2" style="font-family: 'Times New Roman'; font-size: 14px; fill: rgb(0, 0, 0); fill-opacity: 1; white-space: pre;">variable</text><g class="groups" transform=""><g class="traces" transform="translate(46.09375,15.6)" style="opacity: 1;"><text class="legendtext" text-anchor="start" x="40" y="5.46" style="font-family: 'Times New Roman'; font-size: 14px; fill: rgb(0, 0, 0); fill-opacity: 1; white-space: pre;">energia_descarga_bateria</text><g class="layers" style="opacity: 1;"><g class="legendfill"/><g class="legendlines"><path class="js-line" d="M5,0h30" style="fill: none; stroke: rgb(31, 119, 180); stroke-opacity: 1; stroke-width: 2px;"/></g><g class="legendsymbols"><g class="legendpoints"/></g></g><rect class="legendtoggle" x="0" y="-10.6" width="185.234375" height="21.2" style="fill: rgb(0, 0, 0); fill-opacity: 0;"/></g></g><g class="groups" transform="translate(187.734375,0)"><g class="traces" transform="translate(46.09375,15.6)" style="opacity: 1;"><text class="legendtext" text-anchor="start" x="40" y="5.46" style="font-family: 'Times New Roman'; font-size: 14px; fill: rgb(0, 0, 0); fill-opacity: 1; white-space: pre;">energia_PV</text><g class="layers" style="opacity: 1;"><g class="legendfill"/><g class="legendlines"><path class="js-line" d="M5,0h30" style="fill: none; stroke: rgb(255, 127, 14); stroke-opacity: 1; stroke-width: 2px;"/></g><g class="legendsymbols"><g class="legendpoints"/></g></g><rect class="legendtoggle" x="0" y="-10.6" width="109.4375" height="21.2" style="fill: rgb(0, 0, 0); fill-opacity: 0;"/></g></g><g class="groups" transform="translate(0,21.2)"><g class="traces" transform="translate(46.09375,15.6)" style="opacity: 1;"><text class="legendtext" text-anchor="start" x="40" y="5.46" style="font-family: 'Times New Roman'; font-size: 14px; fill: rgb(0, 0, 0); fill-opacity: 1; white-space: pre;">energia_Dg</text><g class="layers" style="opacity: 1;"><g class="legendfill"/><g class="legendlines"><path class="js-line" d="M5,0h30" style="fill: none; stroke: rgb(44, 160, 44); stroke-opacity: 1; stroke-width: 2px;"/></g><g class="legendsymbols"><g class="legendpoints"/></g></g><rect class="legendtoggle" x="0" y="-10.6" width="107.765625" height="21.2" style="fill: rgb(0, 0, 0); fill-opacity: 0;"/></g></g><g class="groups" transform="translate(110.265625,21.2)"><g class="traces" transform="translate(46.09375,15.6)" style="opacity: 1;"><text class="legendtext" text-anchor="start" x="40" y="5.46" style="font-family: 'Times New Roman'; font-size: 14px; fill: rgb(0, 0, 0); fill-opacity: 1; white-space: pre;">energia_ENS</text><g class="layers" style="opacity: 1;"><g class="legendfill"/><g class="legendlines"><path class="js-line" d="M5,0h30" style="fill: none; stroke: rgb(214, 39, 40); stroke-opacity: 1; stroke-width: 2px;"/></g><g class="legendsymbols"><g class="legendpoints"/></g></g><rect class="legendtoggle" x="0" y="-10.6" width="117.109375" height="21.2" style="fill: rgb(0, 0, 0); fill-opacity: 0;"/></g></g></g><rect class="scrollbar" rx="20" ry="3" width="0" height="0" x="0" y="0" style="fill: rgb(128, 139, 164); fill-opacity: 1;"/></g><g class="g-gtitle"/><g class="g-xtitle"><text class="xtitle" x="260" y="371.4029296875" text-anchor="middle" style="font-family: 'Times New Roman'; font-size: 17px; fill: rgb(0, 0, 0); opacity: 1; font-weight: normal; white-space: pre;">Time (hour)</text></g><g class="g-ytitle"><text class="ytitle" transform="rotate(-90,42.7875,195)" x="42.7875" y="195" text-anchor="middle" style="font-family: 'Times New Roman'; font-size: 17px; fill: rgb(0, 0, 0); opacity: 1; font-weight: normal; white-space: pre;">Energy Supply Load (kWh)</text></g></g></svg>