<svg class="main-svg" xmlns="http://www.w3.org/2000/svg" xmlns:xlink="http://www.w3.org/1999/xlink" width="700" height="500" style="" viewBox="0 0 700 500"><rect x="0" y="0" width="700" height="500" style="fill: rgb(255, 255, 255); fill-opacity: 1;"/><defs id="defs-3cb1ef"><g class="clips"/><g class="gradients"/></defs><g class="bglayer"/><g class="layer-below"><g class="imagelayer"/><g class="shapelayer"/></g><g class="cartesianlayer"/><g class="polarlayer"/><g class="ternarylayer"/><g class="geolayer"/><g class="funnelarealayer"/><g class="pielayer"><g class="trace" stroke-linejoin="round" style="opacity: 1;"><g class="slice"><path class="surface" d="M345.7990103442258,312.45842841985353a53.16666666666668,53.16666666666668 0 1 0 4.700989655774195,-106.1250950865202l0,-79.75000000000001a132.91666666666669,132.91666666666669 0 1 1 -11.752474139435487,265.3127377163005Z" style="pointer-events: all; stroke-width: 0; fill: rgb(255, 165, 0); fill-opacity: 1; stroke: rgb(68, 68, 68); stroke-opacity: 1;"/><g class="slicetext"><text data-notex="1" class="slicetext" transform="translate(443.34895528638606,259.32052458636946)" text-anchor="middle" x="0" y="0" style="font-family: 'Times New Roman'; font-size: 14px; fill: rgb(68, 68, 68); fill-opacity: 1; white-space: pre;"><tspan class="line" dy="0em" x="0" y="0">PV Energy</tspan><tspan class="line" dy="1.3em" x="0" y="0">51.4%</tspan></text></g></g><g class="slice"><path class="surface" d="M350.5,206.33333333333331a53.16666666666668,53.16666666666668 0 0 0 -51.51870574156401,40.032078619887876l-77.27805861234602,-19.701882070168192a132.91666666666669,132.91666666666669 0 0 1 128.79676435391002,-100.08019654971969Z" style="pointer-events: all; stroke-width: 0; fill: rgb(65, 105, 225); fill-opacity: 1; stroke: rgb(68, 68, 68); stroke-opacity: 1;"/><g class="slicetext"><text data-notex="1" class="slicetext" transform="translate(287.8837521335453,179.08244879889946)rotate(-37.84862436894832)" text-anchor="middle" x="0" y="0" style="font-family: 'Times New Roman'; font-size: 14px; fill: rgb(255, 255, 255); fill-opacity: 1; white-space: pre;"><tspan class="line" dy="0em" x="0" y="0">Battery Energy</tspan><tspan class="line" dy="1.3em" x="0" y="0">21%</tspan></text></g></g><g class="slice"><path class="surface" d="M298.981294258436,246.3654119532212a53.16666666666668,53.16666666666668 0 0 0 21.959731593349364,57.32691194753812l-44.33846122232197,66.28848585113899a132.91666666666669,132.91666666666669 0 0 1 -54.89932898337341,-143.3172798688453Z" style="pointer-events: all; stroke-width: 0; fill: rgb(46, 139, 87); fill-opacity: 1; stroke: rgb(68, 68, 68); stroke-opacity: 1;"/><g class="slicetext"><text data-notex="1" class="slicetext" transform="translate(261.71961930671756,293.39958482525145)rotate(69.04008840894073)" text-anchor="middle" x="0" y="0" style="font-family: 'Times New Roman'; font-size: 14px; fill: rgb(255, 255, 255); fill-opacity: 1; white-space: pre;"><tspan class="line" dy="0em" x="0" y="0">Diesel Energy</tspan><tspan class="line" dy="1.3em" x="0" y="0">19.6%</tspan></text></g></g><g class="slice"><path class="surface" d="M312.10010639914105,328.76246060447454a53.16666666666668,53.16666666666668 0 0 0 24.857984492440437,8.766104519094199l-7.051484483661311,79.43764262978029a132.91666666666669,132.91666666666669 0 0 1 -62.14496123110109,-21.915261297735498Z" style="pointer-events: all; stroke-width: 0; fill: rgb(178, 34, 34); fill-opacity: 1; stroke: rgb(68, 68, 68); stroke-opacity: 1;"/><g class="slicetext"><text data-notex="1" class="slicetext" transform="translate(252.8372957841342,420.8409324252715)" text-anchor="middle" x="0" y="0" style="font-family: 'Times New Roman'; font-size: 14px; fill: rgb(0, 0, 0); fill-opacity: 1; white-space: pre;"><tspan class="line" dy="0em" x="0" y="0">ENS Energy</tspan><tspan class="line" dy="1.3em" x="0" y="0">7.97%</tspan></text></g></g><g class="titletext"><text data-notex="1" class="titletext" transform="translate(350.5,259.5)translate(0,5.9921875)" text-anchor="middle" x="0" y="0" style="font-family: 'Times New Roman'; font-size: 14px; fill: rgb(0, 0, 0); fill-opacity: 1; white-space: pre;">Supply Load</text></g></g></g><g class="treemaplayer"/><g class="sunburstlayer"/><g class="glimages"/><defs id="topdefs-3cb1ef"><g class="clips"/></defs><g class="layer-above"><g class="imagelayer"/><g class="shapelayer"/></g><g class="infolayer"><g class="g-gtitle"/></g></svg>