<svg class="main-svg" xmlns="http://www.w3.org/2000/svg" xmlns:xlink="http://www.w3.org/1999/xlink" width="700" height="500" style="" viewBox="0 0 700 500"><rect x="0" y="0" width="700" height="500" style="fill: rgb(255, 255, 255); fill-opacity: 1;"/><defs id="defs-f8ddf7"><g class="clips"/><g class="gradients"/></defs><g class="bglayer"/><g class="layer-below"><g class="imagelayer"/><g class="shapelayer"/></g><g class="cartesianlayer"/><g class="polarlayer"/><g class="ternarylayer"/><g class="geolayer"/><g class="funnelarealayer"/><g class="pielayer"><g class="trace" stroke-linejoin="round" style="opacity: 1;"><g class="slice"><path class="surface" d="M350.00697069156587,298.41822779657826a53.33333333333334,53.33333333333334 0 1 0 36.993029308434146,-91.75156112991158l0,-80a133.33333333333334,133.33333333333334 0 1 1 -92.48257327108536,229.37890282477895Z" style="pointer-events: all; stroke-width: 0; fill: rgb(255, 165, 0); fill-opacity: 1; stroke: rgb(68, 68, 68); stroke-opacity: 1;"/><g class="slicetext"><text data-notex="1" class="slicetext" transform="translate(474.062371495603,290.29925342410604)" text-anchor="middle" x="0" y="0" style="font-family: 'Times New Roman'; font-size: 14px; fill: rgb(68, 68, 68); fill-opacity: 1; white-space: pre;"><tspan class="line" dy="0em" x="0" y="0">PV Energy</tspan><tspan class="line" dy="1.3em" x="0" y="0">62.2%</tspan></text></g></g><g class="slice"><path class="surface" d="M387,206.66666666666666a53.33333333333334,53.33333333333334 0 0 0 -47.00472510405989,78.53254487528852l-70.50708765608982,37.79881731293278a133.33333333333334,133.33333333333334 0 0 1 117.51181276014971,-196.3313621882213Z" style="pointer-events: all; stroke-width: 0; fill: rgb(65, 105, 225); fill-opacity: 1; stroke: rgb(68, 68, 68); stroke-opacity: 1;"/><g class="slicetext"><text data-notex="1" class="slicetext" transform="translate(311.95258479806245,214.4985385346656)rotate(-59.09786930649625)" text-anchor="middle" x="0" y="0" style="font-family: 'Times New Roman'; font-size: 14px; fill: rgb(255, 255, 255); fill-opacity: 1; white-space: pre;"><tspan class="line" dy="0em" x="0" y="0">Battery Energy</tspan><tspan class="line" dy="1.3em" x="0" y="0">32.8%</tspan></text></g></g><g class="slice"><path class="surface" d="M318.73738645264444,301.29931371689526a53.33333333333334,53.33333333333334 0 0 0 10.011695795625748,13.21901625462306l-55.489543962651204,57.62734169486737a133.33333333333334,133.33333333333334 0 0 1 -25.029239489064366,-33.04754063655765Z" style="pointer-events: all; stroke-width: 0; fill: rgb(178, 34, 34); fill-opacity: 1; stroke: rgb(68, 68, 68); stroke-opacity: 1;"/><g class="slicetext"><text data-notex="1" class="slicetext" transform="translate(216.08938809022607,358.0506303495451)" text-anchor="middle" x="0" y="0" style="font-family: 'Times New Roman'; font-size: 14px; fill: rgb(0, 0, 0); fill-opacity: 1; white-space: pre;"><tspan class="line" dy="0em" x="0" y="0">ENS Energy</tspan><tspan class="line" dy="1.3em" x="0" y="0">4.97%</tspan></text></g></g><g class="slice"><path class="surface" d="M350.00697069156587,298.41822779657826a53.33333333333334,53.33333333333334 0 0 0 0,0l-55.489543962651204,57.62734169486737a133.33333333333334,133.33333333333334 0 0 1 0,0Z" style="pointer-events: all; stroke-width: 0; fill: rgb(46, 139, 87); fill-opacity: 1; stroke: rgb(68, 68, 68); stroke-opacity: 1;"/><g class="slicetext"><text data-notex="1" class="slicetext" transform="translate(246.48227047891464,391.2537553495451)" text-anchor="middle" x="0" y="0" style="font-family: 'Times New Roman'; font-size: 14px; fill: rgb(0, 0, 0); fill-opacity: 1; white-space: pre;"><tspan class="line" dy="0em" x="0" y="0">Diesel Energy</tspan><tspan class="line" dy="1.3em" x="0" y="0">0%</tspan></text></g><path class="textline" stroke-width="1.75" d="M294.51742672891464,356.04556949144563V395.8553178495451h-8.30078125" fill="none" style="stroke: rgb(0, 0, 0); stroke-opacity: 1;"/></g><g class="titletext"><text data-notex="1" class="titletext" transform="translate(387,260)translate(0,6.5)" text-anchor="middle" x="0" y="0" style="font-family: 'Times New Roman'; font-size: 14px; fill: rgb(0, 0, 0); fill-opacity: 1; white-space: pre;">Supply Load</text></g></g></g><g class="treemaplayer"/><g class="sunburstlayer"/><g class="glimages"/><defs id="topdefs-f8ddf7"><g class="clips"/></defs><g class="layer-above"><g class="imagelayer"/><g class="shapelayer"/></g><g class="infolayer"><g class="g-gtitle"/></g></svg>