<svg class="main-svg" xmlns="http://www.w3.org/2000/svg" xmlns:xlink="http://www.w3.org/1999/xlink" width="700" height="500" style="" viewBox="0 0 700 500"><rect x="0" y="0" width="700" height="500" style="fill: rgb(255, 255, 255); fill-opacity: 1;"/><defs id="defs-e7ae27"><g class="clips"/><g class="gradients"/></defs><g class="bglayer"/><g class="layer-below"><g class="imagelayer"/><g class="shapelayer"/></g><g class="cartesianlayer"/><g class="polarlayer"/><g class="ternarylayer"/><g class="geolayer"/><g class="funnelarealayer"/><g class="pielayer"><g class="trace" stroke-linejoin="round" style="opacity: 1;"><g class="slice"><path class="surface" d="M365.03493308520933,296.3416901571415a53.33333333333334,53.33333333333334 0 0 0 -39.03493308520932,-89.67502349047484l0,-80a133.33333333333334,133.33333333333334 0 0 1 97.58733271302329,224.1875587261871Z" style="pointer-events: all; stroke-width: 0; fill: rgb(255, 165, 0); fill-opacity: 1; stroke: rgb(68, 68, 68); stroke-opacity: 1;"/><g class="slicetext"><text data-notex="1" class="slicetext" transform="translate(412.0772180648688,218.1472514868138)" text-anchor="middle" x="0" y="0" style="font-family: 'Times New Roman'; font-size: 14px; fill: rgb(68, 68, 68); fill-opacity: 1; white-space: pre;"><tspan class="line" dy="0em" x="0" y="0">PV Energy</tspan><tspan class="line" dy="1.3em" x="0" y="0">36.9%</tspan></text></g></g><g class="slice"><path class="surface" d="M326,206.66666666666666a53.33333333333334,53.33333333333334 0 0 0 -44.72821692227332,82.38210362397572l-67.09232538340997,43.57315543596358a133.33333333333334,133.33333333333334 0 0 1 111.82054230568329,-205.9552590599393Z" style="pointer-events: all; stroke-width: 0; fill: rgb(46, 139, 87); fill-opacity: 1; stroke: rgb(68, 68, 68); stroke-opacity: 1;"/><g class="slicetext"><text data-notex="1" class="slicetext" transform="translate(248.48199998195733,217.34373854154643)rotate(-61.500867910351644)" text-anchor="middle" x="0" y="0" style="font-family: 'Times New Roman'; font-size: 14px; fill: rgb(255, 255, 255); fill-opacity: 1; white-space: pre;"><tspan class="line" dy="0em" x="0" y="0">Diesel Energy</tspan><tspan class="line" dy="1.3em" x="0" y="0">34.2%</tspan></text></g></g><g class="slice"><path class="surface" d="M281.2717830777267,289.0487702906424a53.33333333333334,53.33333333333334 0 0 0 73.07895593172411,16.125116436785106l42.526108514176194,67.76083009114123a133.33333333333334,133.33333333333334 0 0 1 -182.69738982931028,-40.312791091962765Z" style="pointer-events: all; stroke-width: 0; fill: rgb(65, 105, 225); fill-opacity: 1; stroke: rgb(68, 68, 68); stroke-opacity: 1;"/><g class="slicetext"><text data-notex="1" class="slicetext" transform="translate(307.6097768275098,345.664915108032)rotate(12.443119650971084)" text-anchor="middle" x="0" y="0" style="font-family: 'Times New Roman'; font-size: 14px; fill: rgb(255, 255, 255); fill-opacity: 1; white-space: pre;"><tspan class="line" dy="0em" x="0" y="0">Battery Energy</tspan><tspan class="line" dy="1.3em" x="0" y="0">24.8%</tspan></text></g></g><g class="slice"><path class="surface" d="M371.34124463006367,325.72708185293135a53.33333333333334,53.33333333333334 0 0 0 10.684194075758525,-8.832196570285992l58.552399627813976,54.51253523571225a133.33333333333334,133.33333333333334 0 0 1 -26.71048518939631,22.080491425714982Z" style="pointer-events: all; stroke-width: 0; fill: rgb(178, 34, 34); fill-opacity: 1; stroke: rgb(68, 68, 68); stroke-opacity: 1;"/><g class="slicetext"><text data-notex="1" class="slicetext" transform="translate(472.3063149736771,388.5797261683148)" text-anchor="middle" x="0" y="0" style="font-family: 'Times New Roman'; font-size: 14px; fill: rgb(0, 0, 0); fill-opacity: 1; white-space: pre;"><tspan class="line" dy="0em" x="0" y="0">ENS Energy</tspan><tspan class="line" dy="1.3em" x="0" y="0">4.15%</tspan></text></g></g><g class="titletext"><text data-notex="1" class="titletext" transform="translate(326,260)translate(0,6.5)" text-anchor="middle" x="0" y="0" style="font-family: 'Times New Roman'; font-size: 14px; fill: rgb(0, 0, 0); fill-opacity: 1; white-space: pre;">Supply Load</text></g></g></g><g class="treemaplayer"/><g class="sunburstlayer"/><g class="glimages"/><defs id="topdefs-e7ae27"><g class="clips"/></defs><g class="layer-above"><g class="imagelayer"/><g class="shapelayer"/></g><g class="infolayer"><g class="g-gtitle"/></g></svg>