<svg class="main-svg" xmlns="http://www.w3.org/2000/svg" xmlns:xlink="http://www.w3.org/1999/xlink" width="700" height="500" style="" viewBox="0 0 700 500"><rect x="0" y="0" width="700" height="500" style="fill: rgb(255, 255, 255); fill-opacity: 1;"/><defs id="defs-ac6309"><g class="clips"/><g class="gradients"/></defs><g class="bglayer"/><g class="layer-below"><g class="imagelayer"/><g class="shapelayer"/></g><g class="cartesianlayer"/><g class="polarlayer"/><g class="ternarylayer"/><g class="geolayer"/><g class="funnelarealayer"/><g class="pielayer"><g class="trace" stroke-linejoin="round" style="opacity: 1;"><g class="slice"><path class="surface" d="M352.102309680554,287.990965651512a53.33333333333334,53.33333333333334 0 1 0 45.397690319445985,-81.32429898484534l0,-80a133.33333333333334,133.33333333333334 0 1 1 -113.49422579861496,203.31074746211334Z" style="pointer-events: all; stroke-width: 0; fill: rgb(255, 165, 0); fill-opacity: 1; stroke: rgb(68, 68, 68); stroke-opacity: 1;"/><g class="slicetext"><text data-notex="1" class="slicetext" transform="translate(479.4953030370199,300.8915874680491)" text-anchor="middle" x="0" y="0" style="font-family: 'Times New Roman'; font-size: 14px; fill: rgb(68, 68, 68); fill-opacity: 1; white-space: pre;"><tspan class="line" dy="0em" x="0" y="0">PV Energy</tspan><tspan class="line" dy="1.3em" x="0" y="0">66.2%</tspan></text></g></g><g class="slice"><path class="surface" d="M397.5,206.66666666666666a53.33333333333334,53.33333333333334 0 0 0 -46.081366304770505,80.1838849837186l-69.12204945715575,40.2758274755779a133.33333333333334,133.33333333333334 0 0 1 115.20341576192625,-200.4597124592965Z" style="pointer-events: all; stroke-width: 0; fill: rgb(65, 105, 225); fill-opacity: 1; stroke: rgb(68, 68, 68); stroke-opacity: 1;"/><g class="slicetext"><text data-notex="1" class="slicetext" transform="translate(321.6573254590828,215.8368225502983)rotate(-60.11418542792114)" text-anchor="middle" x="0" y="0" style="font-family: 'Times New Roman'; font-size: 14px; fill: rgb(255, 255, 255); fill-opacity: 1; white-space: pre;"><tspan class="line" dy="0em" x="0" y="0">Battery Energy</tspan><tspan class="line" dy="1.3em" x="0" y="0">33.4%</tspan></text></g></g><g class="slice"><path class="surface" d="M351.4186336952295,286.8505516503853a53.33333333333334,53.33333333333334 0 0 0 0.46468440647991544,0.7820880540405994l-68.42502284743587,41.4489595566388a133.33333333333334,133.33333333333334 0 0 1 -1.1617110161997886,-1.9552201351014986Z" style="pointer-events: all; stroke-width: 0; fill: rgb(46, 139, 87); fill-opacity: 1; stroke: rgb(68, 68, 68); stroke-opacity: 1;"/><g class="slicetext"><text data-notex="1" class="slicetext" transform="translate(209.66936960820277,327.8365020979192)" text-anchor="middle" x="0" y="0" style="font-family: 'Times New Roman'; font-size: 14px; fill: rgb(0, 0, 0); fill-opacity: 1; white-space: pre;"><tspan class="line" dy="0em" x="0" y="0">Diesel Energy</tspan><tspan class="line" dy="1.3em" x="0" y="0">0.271%</tspan></text></g><path class="textline" stroke-width="1.75" d="M282.8732708283699,328.10646619221666l-7.290305680071738,4.33159840570255H249.40374460820277" fill="none" style="stroke: rgb(0, 0, 0); stroke-opacity: 1;"/></g><g class="slice"><path class="surface" d="M329.1295487056386,301.53864881493433a53.33333333333334,53.33333333333334 0 0 0 0.2189915788446058,0.3583259470861435l-68.09653547916896,41.98644847726801a133.33333333333334,133.33333333333334 0 0 1 -0.5474789471115145,-0.8958148677153588Z" style="pointer-events: all; stroke-width: 0; fill: rgb(178, 34, 34); fill-opacity: 1; stroke: rgb(68, 68, 68); stroke-opacity: 1;"/><g class="slicetext"><text data-notex="1" class="slicetext" transform="translate(217.61410237357552,361.0396270979192)" text-anchor="middle" x="0" y="0" style="font-family: 'Times New Roman'; font-size: 14px; fill: rgb(0, 0, 0); fill-opacity: 1; white-space: pre;"><tspan class="line" dy="0em" x="0" y="0">ENS Energy</tspan><tspan class="line" dy="1.3em" x="0" y="0">0.125%</tspan></text></g><path class="textline" stroke-width="1.75" d="M260.9773836235755,343.436054663051V365.6411895979192h-8.30078125" fill="none" style="stroke: rgb(0, 0, 0); stroke-opacity: 1;"/></g><g class="titletext"><text data-notex="1" class="titletext" transform="translate(397.5,260)translate(0,6.5)" text-anchor="middle" x="0" y="0" style="font-family: 'Times New Roman'; font-size: 14px; fill: rgb(0, 0, 0); fill-opacity: 1; white-space: pre;">Supply Load</text></g></g></g><g class="treemaplayer"/><g class="sunburstlayer"/><g class="glimages"/><defs id="topdefs-ac6309"><g class="clips"/></defs><g class="layer-above"><g class="imagelayer"/><g class="shapelayer"/></g><g class="infolayer"><g class="g-gtitle"/></g></svg>