<svg class="main-svg" xmlns="http://www.w3.org/2000/svg" xmlns:xlink="http://www.w3.org/1999/xlink" width="700" height="500" style="" viewBox="0 0 700 500"><rect x="0" y="0" width="700" height="500" style="fill: rgb(255, 255, 255); fill-opacity: 1;"/><defs id="defs-cf84d4"><g class="clips"/><g class="gradients"/></defs><g class="bglayer"/><g class="layer-below"><g class="imagelayer"/><g class="shapelayer"/></g><g class="cartesianlayer"/><g class="polarlayer"/><g class="ternarylayer"/><g class="geolayer"/><g class="funnelarealayer"/><g class="pielayer"><g class="trace" stroke-linejoin="round" style="opacity: 1;"><g class="slice"><path class="surface" d="M368.4895096599081,304.4388710979772a53.33333333333334,53.33333333333334 0 0 0 -29.48950965990808,-97.77220443131054l0,-80a133.33333333333334,133.33333333333334 0 0 1 73.7237741497702,244.43051107827634Z" style="pointer-events: all; stroke-width: 0; fill: rgb(255, 165, 0); fill-opacity: 1; stroke: rgb(68, 68, 68); stroke-opacity: 1;"/><g class="slicetext"><text data-notex="1" class="slicetext" transform="translate(428.25575409219084,228.75166710707546)" text-anchor="middle" x="0" y="0" style="font-family: 'Times New Roman'; font-size: 14px; fill: rgb(68, 68, 68); fill-opacity: 1; white-space: pre;"><tspan class="line" dy="0em" x="0" y="0">PV Energy</tspan><tspan class="line" dy="1.3em" x="0" y="0">40.7%</tspan></text></g></g><g class="slice"><path class="surface" d="M339,206.66666666666666a53.33333333333334,53.33333333333334 0 0 0 -51.94895451902653,65.40605335926608l-77.9234317785398,18.109080038899112a133.33333333333334,133.33333333333334 0 0 1 129.87238629756632,-163.5151333981652Z" style="pointer-events: all; stroke-width: 0; fill: rgb(65, 105, 225); fill-opacity: 1; stroke: rgb(68, 68, 68); stroke-opacity: 1;"/><g class="slicetext"><text data-notex="1" class="slicetext" transform="translate(268.2301237327164,203.9205126508404)rotate(-51.54153492619332)" text-anchor="middle" x="0" y="0" style="font-family: 'Times New Roman'; font-size: 14px; fill: rgb(255, 255, 255); fill-opacity: 1; white-space: pre;"><tspan class="line" dy="0em" x="0" y="0">Battery Energy</tspan><tspan class="line" dy="1.3em" x="0" y="0">28.6%</tspan></text></g></g><g class="slice"><path class="surface" d="M287.05104548097347,272.07272002593277a53.33333333333334,53.33333333333334 0 0 0 72.58916911556041,37.104774683064726l30.96032189480083,73.7662420634962a133.33333333333334,133.33333333333334 0 0 1 -181.47292278890103,-92.76193670766182Z" style="pointer-events: all; stroke-width: 0; fill: rgb(46, 139, 87); fill-opacity: 1; stroke: rgb(68, 68, 68); stroke-opacity: 1;"/><g class="slicetext"><text data-notex="1" class="slicetext" transform="translate(301.18853794999586,333.7485400918174)rotate(27.07436058453004)" text-anchor="middle" x="0" y="0" style="font-family: 'Times New Roman'; font-size: 14px; fill: rgb(255, 255, 255); fill-opacity: 1; white-space: pre;"><tspan class="line" dy="0em" x="0" y="0">Diesel Energy</tspan><tspan class="line" dy="1.3em" x="0" y="0">27.7%</tspan></text></g></g><g class="slice"><path class="surface" d="M372.2285122568458,332.68591603256783a53.33333333333334,53.33333333333334 0 0 0 8.849295063374184,-4.7386236110202615l44.234264489862106,66.6583066469658a133.33333333333334,133.33333333333334 0 0 1 -22.123237658435457,11.846559027550654Z" style="pointer-events: all; stroke-width: 0; fill: rgb(178, 34, 34); fill-opacity: 1; stroke: rgb(68, 68, 68); stroke-opacity: 1;"/><g class="slicetext"><text data-notex="1" class="slicetext" transform="translate(458.9594734618714,410.05034503043976)" text-anchor="middle" x="0" y="0" style="font-family: 'Times New Roman'; font-size: 14px; fill: rgb(0, 0, 0); fill-opacity: 1; white-space: pre;"><tspan class="line" dy="0em" x="0" y="0">ENS Energy</tspan><tspan class="line" dy="1.3em" x="0" y="0">3%</tspan></text></g></g><g class="titletext"><text data-notex="1" class="titletext" transform="translate(339,260)translate(0,5.9921875)" text-anchor="middle" x="0" y="0" style="font-family: 'Times New Roman'; font-size: 14px; fill: rgb(0, 0, 0); fill-opacity: 1; white-space: pre;">Supply Load</text></g></g></g><g class="treemaplayer"/><g class="sunburstlayer"/><g class="glimages"/><defs id="topdefs-cf84d4"><g class="clips"/></defs><g class="layer-above"><g class="imagelayer"/><g class="shapelayer"/></g><g class="infolayer"><g class="g-gtitle"/></g></svg>