<svg class="main-svg" xmlns="http://www.w3.org/2000/svg" xmlns:xlink="http://www.w3.org/1999/xlink" width="700" height="500" style="" viewBox="0 0 700 500"><rect x="0" y="0" width="700" height="500" style="fill: rgb(255, 255, 255); fill-opacity: 1;"/><defs id="defs-08362b"><g class="clips"/><g class="gradients"/></defs><g class="bglayer"/><g class="layer-below"><g class="imagelayer"/><g class="shapelayer"/></g><g class="cartesianlayer"/><g class="polarlayer"/><g class="ternarylayer"/><g class="geolayer"/><g class="funnelarealayer"/><g class="pielayer"><g class="trace" stroke-linejoin="round" style="opacity: 1;"><g class="slice"><path class="surface" d="M367.71961969191744,305.5650200151281a52.16666666666668,52.16666666666668 0 0 0 -17.719619691917465,-101.23168668179478l0,-78.25000000000001a130.41666666666669,130.41666666666669 0 0 1 44.29904922979366,253.07921670448695Z" style="pointer-events: all; stroke-width: 0; fill: rgb(255, 165, 0); fill-opacity: 1; stroke: rgb(68, 68, 68); stroke-opacity: 1;"/><g class="slicetext"><text data-notex="1" class="slicetext" transform="translate(440.4244584197008,236.1580378639906)" text-anchor="middle" x="0" y="0" style="font-family: 'Times New Roman'; font-size: 14px; fill: rgb(68, 68, 68); fill-opacity: 1; white-space: pre;"><tspan class="line" dy="0em" x="0" y="0">PV Energy</tspan><tspan class="line" dy="1.3em" x="0" y="0">44.5%</tspan></text></g></g><g class="slice"><path class="surface" d="M350,204.33333333333331a52.16666666666668,52.16666666666668 0 0 0 -50.37042342961116,65.73801717546982l-75.55563514441673,20.357025763204714a130.41666666666669,130.41666666666669 0 0 1 125.92605857402789,-164.34504293867454Z" style="pointer-events: all; stroke-width: 0; fill: rgb(46, 139, 87); fill-opacity: 1; stroke: rgb(68, 68, 68); stroke-opacity: 1;"/><g class="slicetext"><text data-notex="1" class="slicetext" transform="translate(280.69281592273234,202.76487238927263)rotate(-52.539590697317294)" text-anchor="middle" x="0" y="0" style="font-family: 'Times New Roman'; font-size: 14px; fill: rgb(255, 255, 255); fill-opacity: 1; white-space: pre;"><tspan class="line" dy="0em" x="0" y="0">Diesel Energy</tspan><tspan class="line" dy="1.3em" x="0" y="0">29.2%</tspan></text></g></g><g class="slice"><path class="surface" d="M299.62957657038885,270.07135050880316a52.16666666666668,52.16666666666668 0 0 0 51.59495709447347,38.58094213892934l1.8368004972934555,78.2284389715987a130.41666666666669,130.41666666666669 0 0 1 -128.98739273618366,-96.45235534732333Z" style="pointer-events: all; stroke-width: 0; fill: rgb(65, 105, 225); fill-opacity: 1; stroke: rgb(68, 68, 68); stroke-opacity: 1;"/><g class="slicetext"><text data-notex="1" class="slicetext" transform="translate(295.8424405548529,329.7607628973248)rotate(36.787881613188915)" text-anchor="middle" x="0" y="0" style="font-family: 'Times New Roman'; font-size: 14px; fill: rgb(255, 255, 255); fill-opacity: 1; white-space: pre;"><tspan class="line" dy="0em" x="0" y="0">Battery Energy</tspan><tspan class="line" dy="1.3em" x="0" y="0">21.2%</tspan></text></g></g><g class="slice"><path class="surface" d="M356.0230503543796,334.290438355997a52.16666666666668,52.16666666666668 0 0 0 16.49508602705519,-3.0872726326043733l26.57942953787624,73.59753002269215a130.41666666666669,130.41666666666669 0 0 1 -41.23771506763798,7.718181581510933Z" style="pointer-events: all; stroke-width: 0; fill: rgb(178, 34, 34); fill-opacity: 1; stroke: rgb(68, 68, 68); stroke-opacity: 1;"/><g class="slicetext"><text data-notex="1" class="slicetext" transform="translate(423.1543813871039,421.76700301190675)" text-anchor="middle" x="0" y="0" style="font-family: 'Times New Roman'; font-size: 14px; fill: rgb(0, 0, 0); fill-opacity: 1; white-space: pre;"><tspan class="line" dy="0em" x="0" y="0">ENS Energy</tspan><tspan class="line" dy="1.3em" x="0" y="0">5.14%</tspan></text></g></g><g class="titletext"><text data-notex="1" class="titletext" transform="translate(350,256.5)translate(0,6.5)" text-anchor="middle" x="0" y="0" style="font-family: 'Times New Roman'; font-size: 14px; fill: rgb(0, 0, 0); fill-opacity: 1; white-space: pre;">Supply Load</text></g></g></g><g class="treemaplayer"/><g class="sunburstlayer"/><g class="glimages"/><defs id="topdefs-08362b"><g class="clips"/></defs><g class="layer-above"><g class="imagelayer"/><g class="shapelayer"/></g><g class="infolayer"><g class="g-gtitle"/></g></svg>