<svg class="main-svg" xmlns="http://www.w3.org/2000/svg" xmlns:xlink="http://www.w3.org/1999/xlink" width="520" height="400" style="" viewBox="0 0 520 400"><rect x="0" y="0" width="520" height="400" style="fill: rgb(255, 255, 255); fill-opacity: 1;"/><defs id="defs-bf841b"><g class="clips"><clipPath id="clipbf841bxyplot" class="plotclip"><rect width="360" height="250"/></clipPath><clipPath class="axesclip" id="clipbf841bx"><rect x="80" y="0" width="360" height="400"/></clipPath><clipPath class="axesclip" id="clipbf841by"><rect x="0" y="70" width="520" height="250"/></clipPath><clipPath class="axesclip" id="clipbf841bxy"><rect x="80" y="70" width="360" height="250"/></clipPath></g><g class="gradients"/></defs><g class="bglayer"/><g class="layer-below"><g class="imagelayer"/><g class="shapelayer"/></g><g class="cartesianlayer"><g class="subplot xy"><g class="layer-subplot"><g class="shapelayer"/><g class="imagelayer"/></g><g class="gridlayer"><g class="x"/><g class="y"><path class="ygrid crisp" transform="translate(0,270.61)" d="M80,0h360" style="stroke: rgb(238, 238, 238); stroke-opacity: 1; stroke-width: 1px;"/><path class="ygrid crisp" transform="translate(0,233.71)" d="M80,0h360" style="stroke: rgb(238, 238, 238); stroke-opacity: 1; stroke-width: 1px;"/><path class="ygrid crisp" transform="translate(0,196.82)" d="M80,0h360" style="stroke: rgb(238, 238, 238); stroke-opacity: 1; stroke-width: 1px;"/><path class="ygrid crisp" transform="translate(0,159.93)" d="M80,0h360" style="stroke: rgb(238, 238, 238); stroke-opacity: 1; stroke-width: 1px;"/><path class="ygrid crisp" transform="translate(0,123.03)" d="M80,0h360" style="stroke: rgb(238, 238, 238); stroke-opacity: 1; stroke-width: 1px;"/><path class="ygrid crisp" transform="translate(0,86.14)" d="M80,0h360" style="stroke: rgb(238, 238, 238); stroke-opacity: 1; stroke-width: 1px;"/></g></g><g class="zerolinelayer"><path class="yzl zl crisp" transform="translate(0,307.5)" d="M80,0h360" style="stroke: rgb(68, 68, 68); stroke-opacity: 1; stroke-width: 1px;"/></g><path class="xlines-below"/><path class="ylines-below"/><g class="overlines-below"/><g class="xaxislayer-below"/><g class="yaxislayer-below"/><g class="overaxes-below"/><g class="plot" transform="translate(80,70)" clip-path="url('#clipbf841bxyplot')"><g class="scatterlayer mlayer"><g class="trace scatter trace624d78" style="stroke-miterlimit: 2; opacity: 1;"><g class="fills"/><g class="errorbars"/><g class="lines"><path class="js-line" d="M0,165.48L31.3,165.24L46.96,168.01L62.61,173.71L78.26,191.15L93.91,228.09L109.57,236.5L125.22,226.34L140.87,219.31L156.52,228.42L172.17,234.83L187.83,236.05L203.48,233.91L219.13,229.82L234.78,214.45L250.43,236.81L266.09,225.13L281.74,189.91L297.39,134.79L313.04,162.85L328.7,164.95L360,165.32" style="vector-effect: non-scaling-stroke; fill: none; stroke: rgb(31, 119, 180); stroke-opacity: 1; stroke-width: 2px; opacity: 1;"/></g><g class="points"/><g class="text"/></g><g class="trace scatter traceee6cba" style="stroke-miterlimit: 2; opacity: 1;"><g class="fills"/><g class="errorbars"/><g class="lines"><path class="js-line" d="M0,237.5L62.61,237.5L78.26,235.16L109.57,15.07L125.22,12.5L140.87,34.36L156.52,42.07L172.17,41.43L187.83,38.84L203.48,32.64L219.13,43.02L234.78,68.06L250.43,22.9L266.09,104.71L281.74,234.62L297.39,237.5L313.04,237.5L360,237.5" style="vector-effect: non-scaling-stroke; fill: none; stroke: rgb(255, 127, 14); stroke-opacity: 1; stroke-width: 2px; opacity: 1;"/></g><g class="points"/><g class="text"/></g><g class="trace scatter trace96c7b8" style="stroke-miterlimit: 2; opacity: 1;"><g class="fills"/><g class="errorbars"/><g class="lines"><path class="js-line" d="M0,237.5L78.26,236.99L93.91,216.95L109.57,229.6L125.22,232.88L140.87,226.66L156.52,228.13L172.17,233.91L187.83,233.41L203.48,230.35L219.13,224.58L234.78,207.54L250.43,220.27L266.09,148L281.74,71.44L297.39,223.98L313.04,237.5L360,237.5" style="vector-effect: non-scaling-stroke; fill: none; stroke: rgb(44, 160, 44); stroke-opacity: 1; stroke-width: 2px; opacity: 1;"/></g><g class="points"/><g class="text"/></g><g class="trace scatter tracea14075" style="stroke-miterlimit: 2; opacity: 1;"><g class="fills"/><g class="errorbars"/><g class="lines"><path class="js-line" d="M0,237.11L31.3,236.87L46.96,234.42L62.61,228.96L78.26,210.78L93.91,223.76L109.57,233.93L125.22,236.1L140.87,235.45L156.52,237.27L172.17,236.69L187.83,237.25L203.48,237.01L234.78,234.05L250.43,234.96L266.09,233.11L281.74,237.5L360,237.13" style="vector-effect: non-scaling-stroke; fill: none; stroke: rgb(214, 39, 40); stroke-opacity: 1; stroke-width: 2px; opacity: 1;"/></g><g class="points"/><g class="text"/></g></g></g><g class="overplot"/><path class="xlines-above crisp" d="M79,320.5H440" style="fill: none; stroke-width: 1px; stroke: rgb(0, 0, 0); stroke-opacity: 1;"/><path class="ylines-above crisp" d="M79.5,70V320" style="fill: none; stroke-width: 1px; stroke: rgb(0, 0, 0); stroke-opacity: 1;"/><g class="overlines-above"/><g class="xaxislayer-above"><g class="xtick"><text text-anchor="start" x="0" y="337.8" transform="translate(80,0) rotate(90,0,330.8)" style="font-family: 'Times New Roman'; font-size: 14px; fill: rgb(0, 0, 0); fill-opacity: 1; white-space: pre;">1</text></g><g class="xtick"><text text-anchor="start" x="0" y="337.8" transform="translate(95.65,0) rotate(90,0,330.8)" style="font-family: 'Times New Roman'; font-size: 14px; fill: rgb(0, 0, 0); fill-opacity: 1; white-space: pre;">2</text></g><g class="xtick"><text text-anchor="start" x="0" y="337.8" transform="translate(111.3,0) rotate(90,0,330.8)" style="font-family: 'Times New Roman'; font-size: 14px; fill: rgb(0, 0, 0); fill-opacity: 1; white-space: pre;">3</text></g><g class="xtick"><text text-anchor="start" x="0" y="337.8" transform="translate(126.96000000000001,0) rotate(90,0,330.8)" style="font-family: 'Times New Roman'; font-size: 14px; fill: rgb(0, 0, 0); fill-opacity: 1; white-space: pre;">4</text></g><g class="xtick"><text text-anchor="start" x="0" y="337.8" transform="translate(142.61,0) rotate(90,0,330.8)" style="font-family: 'Times New Roman'; font-size: 14px; fill: rgb(0, 0, 0); fill-opacity: 1; white-space: pre;">5</text></g><g class="xtick"><text text-anchor="start" x="0" y="337.8" transform="translate(158.26,0) rotate(90,0,330.8)" style="font-family: 'Times New Roman'; font-size: 14px; fill: rgb(0, 0, 0); fill-opacity: 1; white-space: pre;">6</text></g><g class="xtick"><text text-anchor="start" x="0" y="337.8" transform="translate(173.91,0) rotate(90,0,330.8)" style="font-family: 'Times New Roman'; font-size: 14px; fill: rgb(0, 0, 0); fill-opacity: 1; white-space: pre;">7</text></g><g class="xtick"><text text-anchor="start" x="0" y="337.8" transform="translate(189.57,0) rotate(90,0,330.8)" style="font-family: 'Times New Roman'; font-size: 14px; fill: rgb(0, 0, 0); fill-opacity: 1; white-space: pre;">8</text></g><g class="xtick"><text text-anchor="start" x="0" y="337.8" transform="translate(205.22,0) rotate(90,0,330.8)" style="font-family: 'Times New Roman'; font-size: 14px; fill: rgb(0, 0, 0); fill-opacity: 1; white-space: pre;">9</text></g><g class="xtick"><text text-anchor="start" x="0" y="337.8" transform="translate(220.87,0) rotate(90,0,330.8)" style="font-family: 'Times New Roman'; font-size: 14px; fill: rgb(0, 0, 0); fill-opacity: 1; white-space: pre;">10</text></g><g class="xtick"><text text-anchor="start" x="0" y="337.8" transform="translate(236.52,0) rotate(90,0,330.8)" style="font-family: 'Times New Roman'; font-size: 14px; fill: rgb(0, 0, 0); fill-opacity: 1; white-space: pre;">11</text></g><g class="xtick"><text text-anchor="start" x="0" y="337.8" transform="translate(252.17,0) rotate(90,0,330.8)" style="font-family: 'Times New Roman'; font-size: 14px; fill: rgb(0, 0, 0); fill-opacity: 1; white-space: pre;">12</text></g><g class="xtick"><text text-anchor="start" x="0" y="337.8" transform="translate(267.83000000000004,0) rotate(90,0,330.8)" style="font-family: 'Times New Roman'; font-size: 14px; fill: rgb(0, 0, 0); fill-opacity: 1; white-space: pre;">13</text></g><g class="xtick"><text text-anchor="start" x="0" y="337.8" transform="translate(283.48,0) rotate(90,0,330.8)" style="font-family: 'Times New Roman'; font-size: 14px; fill: rgb(0, 0, 0); fill-opacity: 1; white-space: pre;">14</text></g><g class="xtick"><text text-anchor="start" x="0" y="337.8" transform="translate(299.13,0) rotate(90,0,330.8)" style="font-family: 'Times New Roman'; font-size: 14px; fill: rgb(0, 0, 0); fill-opacity: 1; white-space: pre;">15</text></g><g class="xtick"><text text-anchor="start" x="0" y="337.8" transform="translate(314.78,0) rotate(90,0,330.8)" style="font-family: 'Times New Roman'; font-size: 14px; fill: rgb(0, 0, 0); fill-opacity: 1; white-space: pre;">16</text></g><g class="xtick"><text text-anchor="start" x="0" y="337.8" transform="translate(330.43,0) rotate(90,0,330.8)" style="font-family: 'Times New Roman'; font-size: 14px; fill: rgb(0, 0, 0); fill-opacity: 1; white-space: pre;">17</text></g><g class="xtick"><text text-anchor="start" x="0" y="337.8" transform="translate(346.09,0) rotate(90,0,330.8)" style="font-family: 'Times New Roman'; font-size: 14px; fill: rgb(0, 0, 0); fill-opacity: 1; white-space: pre;">18</text></g><g class="xtick"><text text-anchor="start" x="0" y="337.8" transform="translate(361.74,0) rotate(90,0,330.8)" style="font-family: 'Times New Roman'; font-size: 14px; fill: rgb(0, 0, 0); fill-opacity: 1; white-space: pre;">19</text></g><g class="xtick"><text text-anchor="start" x="0" y="337.8" transform="translate(377.39,0) rotate(90,0,330.8)" style="font-family: 'Times New Roman'; font-size: 14px; fill: rgb(0, 0, 0); fill-opacity: 1; white-space: pre;">20</text></g><g class="xtick"><text text-anchor="start" x="0" y="337.8" transform="translate(393.04,0) rotate(90,0,330.8)" style="font-family: 'Times New Roman'; font-size: 14px; fill: rgb(0, 0, 0); fill-opacity: 1; white-space: pre;">21</text></g><g class="xtick"><text text-anchor="start" x="0" y="337.8" transform="translate(408.7,0) rotate(90,0,330.8)" style="font-family: 'Times New Roman'; font-size: 14px; fill: rgb(0, 0, 0); fill-opacity: 1; white-space: pre;">22</text></g><g class="xtick"><text text-anchor="start" x="0" y="337.8" transform="translate(424.35,0) rotate(90,0,330.8)" style="font-family: 'Times New Roman'; font-size: 14px; fill: rgb(0, 0, 0); fill-opacity: 1; white-space: pre;">23</text></g><g class="xtick"><text text-anchor="start" x="0" y="337.8" transform="translate(440,0) rotate(90,0,330.8)" style="font-family: 'Times New Roman'; font-size: 14px; fill: rgb(0, 0, 0); fill-opacity: 1; white-space: pre;">24</text></g></g><g class="yaxislayer-above"><g class="ytick"><text text-anchor="end" x="76.2" y="4.8999999999999995" transform="translate(0,307.5)" style="font-family: 'Times New Roman'; font-size: 14px; fill: rgb(0, 0, 0); fill-opacity: 1; white-space: pre;">0</text></g><g class="ytick"><text text-anchor="end" x="76.2" y="4.8999999999999995" transform="translate(0,270.61)" style="font-family: 'Times New Roman'; font-size: 14px; fill: rgb(0, 0, 0); fill-opacity: 1; white-space: pre;">1</text></g><g class="ytick"><text text-anchor="end" x="76.2" y="4.8999999999999995" transform="translate(0,233.71)" style="font-family: 'Times New Roman'; font-size: 14px; fill: rgb(0, 0, 0); fill-opacity: 1; white-space: pre;">2</text></g><g class="ytick"><text text-anchor="end" x="76.2" y="4.8999999999999995" transform="translate(0,196.82)" style="font-family: 'Times New Roman'; font-size: 14px; fill: rgb(0, 0, 0); fill-opacity: 1; white-space: pre;">3</text></g><g class="ytick"><text text-anchor="end" x="76.2" y="4.8999999999999995" transform="translate(0,159.93)" style="font-family: 'Times New Roman'; font-size: 14px; fill: rgb(0, 0, 0); fill-opacity: 1; white-space: pre;">4</text></g><g class="ytick"><text text-anchor="end" x="76.2" y="4.8999999999999995" transform="translate(0,123.03)" style="font-family: 'Times New Roman'; font-size: 14px; fill: rgb(0, 0, 0); fill-opacity: 1; white-space: pre;">5</text></g><g class="ytick"><text text-anchor="end" x="76.2" y="4.8999999999999995" transform="translate(0,86.14)" style="font-family: 'Times New Roman'; font-size: 14px; fill: rgb(0, 0, 0); fill-opacity: 1; white-space: pre;">6</text></g></g><g class="overaxes-above"/></g></g><g class="polarlayer"/><g class="ternarylayer"/><g class="geolayer"/><g class="funnelarealayer"/><g class="pielayer"/><g class="treemaplayer"/><g class="sunburstlayer"/><g class="glimages"/><defs id="topdefs-bf841b"><g class="clips"/><clipPath id="legendbf841b"><rect width="346" height="53" x="0" y="0"/></clipPath></defs><g class="layer-above"><g class="imagelayer"/><g class="shapelayer"/></g><g class="infolayer"><g class="legend" pointer-events="all" transform="translate(94,12)"><rect class="bg" shape-rendering="crispEdges" width="346" height="53" x="0" y="0" style="stroke: rgb(68, 68, 68); stroke-opacity: 1; fill: rgb(255, 255, 255); fill-opacity: 1; stroke-width: 0px;"/><g class="scrollbox" transform="" clip-path="url('#legendbf841b')"><text class="legendtitletext" text-anchor="start" x="2" y="18.2" style="font-family: 'Times New Roman'; font-size: 14px; fill: rgb(0, 0, 0); fill-opacity: 1; white-space: pre;">variable</text><g class="groups" transform=""><g class="traces" transform="translate(45.875,15.6)" style="opacity: 1;"><text class="legendtext" text-anchor="start" x="40" y="5.46" style="font-family: 'Times New Roman'; font-size: 14px; fill: rgb(0, 0, 0); fill-opacity: 1; white-space: pre;">energia_descarga_bateria</text><g class="layers" style="opacity: 1;"><g class="legendfill"/><g class="legendlines"><path class="js-line" d="M5,0h30" style="fill: none; stroke: rgb(31, 119, 180); stroke-opacity: 1; stroke-width: 2px;"/></g><g class="legendsymbols"><g class="legendpoints"/></g></g><rect class="legendtoggle" x="0" y="-10.6" width="185.03125" height="21.2" style="fill: rgb(0, 0, 0); fill-opacity: 0;"/></g></g><g class="groups" transform="translate(187.53125,0)"><g class="traces" transform="translate(45.875,15.6)" style="opacity: 1;"><text class="legendtext" text-anchor="start" x="40" y="5.46" style="font-family: 'Times New Roman'; font-size: 14px; fill: rgb(0, 0, 0); fill-opacity: 1; white-space: pre;">energia_PV</text><g class="layers" style="opacity: 1;"><g class="legendfill"/><g class="legendlines"><path class="js-line" d="M5,0h30" style="fill: none; stroke: rgb(255, 127, 14); stroke-opacity: 1; stroke-width: 2px;"/></g><g class="legendsymbols"><g class="legendpoints"/></g></g><rect class="legendtoggle" x="0" y="-10.6" width="109.234375" height="21.2" style="fill: rgb(0, 0, 0); fill-opacity: 0;"/></g></g><g class="groups" transform="translate(0,21.2)"><g class="traces" transform="translate(45.875,15.6)" style="opacity: 1;"><text class="legendtext" text-anchor="start" x="40" y="5.46" style="font-family: 'Times New Roman'; font-size: 14px; fill: rgb(0, 0, 0); fill-opacity: 1; white-space: pre;">energia_Dg</text><g class="layers" style="opacity: 1;"><g class="legendfill"/><g class="legendlines"><path class="js-line" d="M5,0h30" style="fill: none; stroke: rgb(44, 160, 44); stroke-opacity: 1; stroke-width: 2px;"/></g><g class="legendsymbols"><g class="legendpoints"/></g></g><rect class="legendtoggle" x="0" y="-10.6" width="107.5625" height="21.2" style="fill: rgb(0, 0, 0); fill-opacity: 0;"/></g></g><g class="groups" transform="translate(110.0625,21.2)"><g class="traces" transform="translate(45.875,15.6)" style="opacity: 1;"><text class="legendtext" text-anchor="start" x="40" y="5.46" style="font-family: 'Times New Roman'; font-size: 14px; fill: rgb(0, 0, 0); fill-opacity: 1; white-space: pre;">energia_ENS</text><g class="layers" style="opacity: 1;"><g class="legendfill"/><g class="legendlines"><path class="js-line" d="M5,0h30" style="fill: none; stroke: rgb(214, 39, 40); stroke-opacity: 1; stroke-width: 2px;"/></g><g class="legendsymbols"><g class="legendpoints"/></g></g><rect class="legendtoggle" x="0" y="-10.6" width="117.109375" height="21.2" style="fill: rgb(0, 0, 0); fill-opacity: 0;"/></g></g></g><rect class="scrollbar" rx="20" ry="3" width="0" height="0" x="0" y="0" style="fill: rgb(128, 139, 164); fill-opacity: 1;"/></g><g class="g-gtitle"/><g class="g-xtitle"><text class="xtitle" x="260" y="371.1998046875" text-anchor="middle" style="font-family: 'Times New Roman'; font-size: 17px; fill: rgb(0, 0, 0); opacity: 1; font-weight: normal; white-space: pre;">Time (hour)</text></g><g class="g-ytitle"><text class="ytitle" transform="rotate(-90,41.7875,195)" x="41.7875" y="195" text-anchor="middle" style="font-family: 'Times New Roman'; font-size: 17px; fill: rgb(0, 0, 0); opacity: 1; font-weight: normal; white-space: pre;">Energy Supply Load (kWh)</text></g></g></svg>