<svg class="main-svg" xmlns="http://www.w3.org/2000/svg" xmlns:xlink="http://www.w3.org/1999/xlink" width="700" height="500" style="" viewBox="0 0 700 500"><rect x="0" y="0" width="700" height="500" style="fill: rgb(255, 255, 255); fill-opacity: 1;"/><defs id="defs-cd73ba"><g class="clips"/><g class="gradients"/></defs><g class="bglayer"/><g class="layer-below"><g class="imagelayer"/><g class="shapelayer"/></g><g class="cartesianlayer"/><g class="polarlayer"/><g class="ternarylayer"/><g class="geolayer"/><g class="funnelarealayer"/><g class="pielayer"><g class="trace" stroke-linejoin="round" style="opacity: 1;"><g class="slice"><path class="surface" d="M360.0097337021887,306.35764127105887a51.83333333333334,51.83333333333334 0 0 0 -10.009733702188752,-102.69097460439221l0,-77.75a129.58333333333334,129.58333333333334 0 0 1 25.024334255471878,256.7274365109805Z" style="pointer-events: all; stroke-width: 0; fill: rgb(255, 165, 0); fill-opacity: 1; stroke: rgb(68, 68, 68); stroke-opacity: 1;"/><g class="slicetext"><text data-notex="1" class="slicetext" transform="translate(440.7804589066625,242.09841047086286)" text-anchor="middle" x="0" y="0" style="font-family: 'Times New Roman'; font-size: 14px; fill: rgb(68, 68, 68); fill-opacity: 1; white-space: pre;"><tspan class="line" dy="0em" x="0" y="0">PV Energy</tspan><tspan class="line" dy="1.3em" x="0" y="0">46.9%</tspan></text></g></g><g class="slice"><path class="surface" d="M350,203.66666666666666a51.83333333333334,51.83333333333334 0 0 0 -48.55972798722961,69.9619643420641l-72.8395919808444,27.19294651309615a129.58333333333334,129.58333333333334 0 0 1 121.39931996807401,-174.90491085516027Z" style="pointer-events: all; stroke-width: 0; fill: rgb(65, 105, 225); fill-opacity: 1; stroke: rgb(68, 68, 68); stroke-opacity: 1;"/><g class="slicetext"><text data-notex="1" class="slicetext" transform="translate(280.1090289997206,206.38091029331414)rotate(-55.23596676447198)" text-anchor="middle" x="0" y="0" style="font-family: 'Times New Roman'; font-size: 14px; fill: rgb(255, 255, 255); fill-opacity: 1; white-space: pre;"><tspan class="line" dy="0em" x="0" y="0">Battery Energy</tspan><tspan class="line" dy="1.3em" x="0" y="0">30.7%</tspan></text></g></g><g class="slice"><path class="surface" d="M301.4402720127704,273.6286310087308a51.83333333333334,51.83333333333334 0 0 0 51.756699835022054,33.60601710497411l4.795457771688675,77.6019721705573a129.58333333333334,129.58333333333334 0 0 1 -129.39174958755513,-84.01504276243526Z" style="pointer-events: all; stroke-width: 0; fill: rgb(46, 139, 87); fill-opacity: 1; stroke: rgb(68, 68, 68); stroke-opacity: 1;"/><g class="slicetext"><text data-notex="1" class="slicetext" transform="translate(300.6808562132552,332.37465901964947)rotate(32.995968958236176)" text-anchor="middle" x="0" y="0" style="font-family: 'Times New Roman'; font-size: 14px; fill: rgb(255, 255, 255); fill-opacity: 1; white-space: pre;"><tspan class="line" dy="0em" x="0" y="0">Diesel Energy</tspan><tspan class="line" dy="1.3em" x="0" y="0">20.3%</tspan></text></g></g><g class="slice"><path class="surface" d="M356.50592006140533,332.93920943714977a51.83333333333334,51.83333333333334 0 0 0 6.81276185439629,-0.8770068426459944l15.01460055328311,76.28646190658831a129.58333333333334,129.58333333333334 0 0 1 -17.031904635990724,2.1925171066149858Z" style="pointer-events: all; stroke-width: 0; fill: rgb(178, 34, 34); fill-opacity: 1; stroke: rgb(68, 68, 68); stroke-opacity: 1;"/><g class="slicetext"><text data-notex="1" class="slicetext" transform="translate(414.21697053167736,421.4567412546187)" text-anchor="middle" x="0" y="0" style="font-family: 'Times New Roman'; font-size: 14px; fill: rgb(0, 0, 0); fill-opacity: 1; white-space: pre;"><tspan class="line" dy="0em" x="0" y="0">ENS Energy</tspan><tspan class="line" dy="1.3em" x="0" y="0">2.11%</tspan></text></g></g><g class="titletext"><text data-notex="1" class="titletext" transform="translate(350,255.5)translate(0,6.5)" text-anchor="middle" x="0" y="0" style="font-family: 'Times New Roman'; font-size: 14px; fill: rgb(0, 0, 0); fill-opacity: 1; white-space: pre;">Supply Load</text></g></g></g><g class="treemaplayer"/><g class="sunburstlayer"/><g class="glimages"/><defs id="topdefs-cd73ba"><g class="clips"/></defs><g class="layer-above"><g class="imagelayer"/><g class="shapelayer"/></g><g class="infolayer"><g class="g-gtitle"/></g></svg>