<svg class="main-svg" xmlns="http://www.w3.org/2000/svg" xmlns:xlink="http://www.w3.org/1999/xlink" width="700" height="500" style="" viewBox="0 0 700 500"><rect x="0" y="0" width="700" height="500" style="fill: rgb(255, 255, 255); fill-opacity: 1;"/><defs id="defs-b1fe3e"><g class="clips"/><g class="gradients"/></defs><g class="bglayer"/><g class="layer-below"><g class="imagelayer"/><g class="shapelayer"/></g><g class="cartesianlayer"/><g class="polarlayer"/><g class="ternarylayer"/><g class="geolayer"/><g class="funnelarealayer"/><g class="pielayer"><g class="trace" stroke-linejoin="round" style="opacity: 1;"><g class="slice"><path class="surface" d="M364.3974711743226,306.89789869913045a53.33333333333334,53.33333333333334 0 0 0 -25.39747117432259,-100.23123203246377l0,-80a133.33333333333334,133.33333333333334 0 0 1 63.49367793580647,250.57808008115938Z" style="pointer-events: all; stroke-width: 0; fill: rgb(255, 165, 0); fill-opacity: 1; stroke: rgb(68, 68, 68); stroke-opacity: 1;"/><g class="slicetext"><text data-notex="1" class="slicetext" transform="translate(429.37247032701913,232.77801878156401)" text-anchor="middle" x="0" y="0" style="font-family: 'Times New Roman'; font-size: 14px; fill: rgb(68, 68, 68); fill-opacity: 1; white-space: pre;"><tspan class="line" dy="0em" x="0" y="0">PV Energy</tspan><tspan class="line" dy="1.3em" x="0" y="0">42.1%</tspan></text></g></g><g class="slice"><path class="surface" d="M339,206.66666666666666a53.33333333333334,53.33333333333334 0 0 0 -50.971580178122316,69.0286338589586l-76.45737026718346,23.542950788437892a133.33333333333334,133.33333333333334 0 0 1 127.42895044530579,-172.5715846473965Z" style="pointer-events: all; stroke-width: 0; fill: rgb(65, 105, 225); fill-opacity: 1; stroke: rgb(68, 68, 68); stroke-opacity: 1;"/><g class="slicetext"><text data-notex="1" class="slicetext" transform="translate(267.726058426055,207.4967078814959)rotate(-53.55739040060985)" text-anchor="middle" x="0" y="0" style="font-family: 'Times New Roman'; font-size: 14px; fill: rgb(255, 255, 255); fill-opacity: 1; white-space: pre;"><tspan class="line" dy="0em" x="0" y="0">Battery Energy</tspan><tspan class="line" dy="1.3em" x="0" y="0">29.8%</tspan></text></g></g><g class="slice"><path class="surface" d="M288.02841982187766,275.69530052562527a53.33333333333334,53.33333333333334 0 0 0 75.5401523953665,31.642102272273373l36.85285832586628,71.00610419684796a133.33333333333334,133.33333333333334 0 0 1 -188.85038098841625,-79.10525568068343Z" style="pointer-events: all; stroke-width: 0; fill: rgb(46, 139, 87); fill-opacity: 1; stroke: rgb(68, 68, 68); stroke-opacity: 1;"/><g class="slicetext"><text data-notex="1" class="slicetext" transform="translate(306.99025079094537,336.15497191072234)rotate(22.727733917607452)" text-anchor="middle" x="0" y="0" style="font-family: 'Times New Roman'; font-size: 14px; fill: rgb(255, 255, 255); fill-opacity: 1; white-space: pre;"><tspan class="line" dy="0em" x="0" y="0">Diesel Energy</tspan><tspan class="line" dy="1.3em" x="0" y="0">27.9%</tspan></text></g></g><g class="slice"><path class="surface" d="M376.0605662936036,330.8971395346984a53.33333333333334,53.33333333333334 0 0 0 0.8288989570783883,-0.4395040987682137l38.09620676148386,70.34684804869563a133.33333333333334,133.33333333333334 0 0 1 -2.072247392695971,1.0987602469205342Z" style="pointer-events: all; stroke-width: 0; fill: rgb(178, 34, 34); fill-opacity: 1; stroke: rgb(68, 68, 68); stroke-opacity: 1;"/><g class="slicetext"><text data-notex="1" class="slicetext" transform="translate(458.3816519581563,410.41635029819753)" text-anchor="middle" x="0" y="0" style="font-family: 'Times New Roman'; font-size: 14px; fill: rgb(0, 0, 0); fill-opacity: 1; white-space: pre;"><tspan class="line" dy="0em" x="0" y="0">ENS Energy</tspan><tspan class="line" dy="1.3em" x="0" y="0">0.28%</tspan></text></g></g><g class="titletext"><text data-notex="1" class="titletext" transform="translate(339,260)translate(0,5.9921875)" text-anchor="middle" x="0" y="0" style="font-family: 'Times New Roman'; font-size: 14px; fill: rgb(0, 0, 0); fill-opacity: 1; white-space: pre;">Supply Load</text></g></g></g><g class="treemaplayer"/><g class="sunburstlayer"/><g class="glimages"/><defs id="topdefs-b1fe3e"><g class="clips"/></defs><g class="layer-above"><g class="imagelayer"/><g class="shapelayer"/></g><g class="infolayer"><g class="g-gtitle"/></g></svg>