<svg class="main-svg" xmlns="http://www.w3.org/2000/svg" xmlns:xlink="http://www.w3.org/1999/xlink" width="700" height="500" style="" viewBox="0 0 700 500"><rect x="0" y="0" width="700" height="500" style="fill: rgb(255, 255, 255); fill-opacity: 1;"/><defs id="defs-ca7d88"><g class="clips"/><g class="gradients"/></defs><g class="bglayer"/><g class="layer-below"><g class="imagelayer"/><g class="shapelayer"/></g><g class="cartesianlayer"/><g class="polarlayer"/><g class="ternarylayer"/><g class="geolayer"/><g class="funnelarealayer"/><g class="pielayer"><g class="trace" stroke-linejoin="round" style="opacity: 1;"><g class="slice"><path class="surface" d="M356.9835854577541,306.1925187756833a51.66666666666668,51.66666666666668 0 0 0 -6.9835854577540815,-102.85918544235001l0,-77.50000000000001a129.16666666666669,129.16666666666669 0 0 1 17.458963644385204,257.147963605875Z" style="pointer-events: all; stroke-width: 0; fill: rgb(255, 165, 0); fill-opacity: 1; stroke: rgb(68, 68, 68); stroke-opacity: 1;"/><g class="slicetext"><text data-notex="1" class="slicetext" transform="translate(440.70898845612663,244.2737323778308)" text-anchor="middle" x="0" y="0" style="font-family: 'Times New Roman'; font-size: 14px; fill: rgb(68, 68, 68); fill-opacity: 1; white-space: pre;"><tspan class="line" dy="0em" x="0" y="0">PV Energy</tspan><tspan class="line" dy="1.3em" x="0" y="0">47.8%</tspan></text></g></g><g class="slice"><path class="surface" d="M350,203.33333333333331a51.66666666666668,51.66666666666668 0 0 0 -48.87694472621537,68.41446409423706l-73.31541708932305,25.121696141355567a129.16666666666669,129.16666666666669 0 0 1 122.19236181553842,-171.03616023559263Z" style="pointer-events: all; stroke-width: 0; fill: rgb(65, 105, 225); fill-opacity: 1; stroke: rgb(68, 68, 68); stroke-opacity: 1;"/><g class="slicetext"><text data-notex="1" class="slicetext" transform="translate(280.73060768290384,204.89778187600805)rotate(-54.457070776318346)" text-anchor="middle" x="0" y="0" style="font-family: 'Times New Roman'; font-size: 14px; fill: rgb(255, 255, 255); fill-opacity: 1; white-space: pre;"><tspan class="line" dy="0em" x="0" y="0">Battery Energy</tspan><tspan class="line" dy="1.3em" x="0" y="0">30.3%</tspan></text></g></g><g class="slice"><path class="surface" d="M301.12305527378464,271.7477974275704a51.66666666666668,51.66666666666668 0 0 0 47.77673388989654,34.90715374422042l-1.6503162544782495,77.4824267576862a129.16666666666669,129.16666666666669 0 0 1 -119.44183472474134,-87.26788436055105Z" style="pointer-events: all; stroke-width: 0; fill: rgb(46, 139, 87); fill-opacity: 1; stroke: rgb(68, 68, 68); stroke-opacity: 1;"/><g class="slicetext"><text data-notex="1" class="slicetext" transform="translate(295.9064315910407,329.8843402586932)rotate(36.153015054707)" text-anchor="middle" x="0" y="0" style="font-family: 'Times New Roman'; font-size: 14px; fill: rgb(255, 255, 255); fill-opacity: 1; white-space: pre;"><tspan class="line" dy="0em" x="0" y="0">Diesel Energy</tspan><tspan class="line" dy="1.3em" x="0" y="0">19.4%</tspan></text></g></g><g class="slice"><path class="surface" d="M350.375169213387,332.44611952105413a51.66666666666668,51.66666666666668 0 0 0 8.083796294072924,-0.46243239610746517l10.475378186631136,76.788778163525a129.16666666666669,129.16666666666669 0 0 1 -20.20949073518231,1.1560809902686628Z" style="pointer-events: all; stroke-width: 0; fill: rgb(178, 34, 34); fill-opacity: 1; stroke: rgb(68, 68, 68); stroke-opacity: 1;"/><g class="slicetext"><text data-notex="1" class="slicetext" transform="translate(403.2155615482348,421.6928604170982)" text-anchor="middle" x="0" y="0" style="font-family: 'Times New Roman'; font-size: 14px; fill: rgb(0, 0, 0); fill-opacity: 1; white-space: pre;"><tspan class="line" dy="0em" x="0" y="0">ENS Energy</tspan><tspan class="line" dy="1.3em" x="0" y="0">2.5%</tspan></text></g></g><g class="titletext"><text data-notex="1" class="titletext" transform="translate(350,255)translate(0,6.5)" text-anchor="middle" x="0" y="0" style="font-family: 'Times New Roman'; font-size: 14px; fill: rgb(0, 0, 0); fill-opacity: 1; white-space: pre;">Supply Load</text></g></g></g><g class="treemaplayer"/><g class="sunburstlayer"/><g class="glimages"/><defs id="topdefs-ca7d88"><g class="clips"/></defs><g class="layer-above"><g class="imagelayer"/><g class="shapelayer"/></g><g class="infolayer"><g class="g-gtitle"/></g></svg>