<svg class="main-svg" xmlns="http://www.w3.org/2000/svg" xmlns:xlink="http://www.w3.org/1999/xlink" width="520" height="400" style="" viewBox="0 0 520 400"><rect x="0" y="0" width="520" height="400" style="fill: rgb(255, 255, 255); fill-opacity: 1;"/><defs id="defs-8894be"><g class="clips"><clipPath id="clip8894bexyplot" class="plotclip"><rect width="360" height="250"/></clipPath><clipPath class="axesclip" id="clip8894bex"><rect x="80" y="0" width="360" height="400"/></clipPath><clipPath class="axesclip" id="clip8894bey"><rect x="0" y="70" width="520" height="250"/></clipPath><clipPath class="axesclip" id="clip8894bexy"><rect x="80" y="70" width="360" height="250"/></clipPath></g><g class="gradients"/></defs><g class="bglayer"/><g class="layer-below"><g class="imagelayer"/><g class="shapelayer"/></g><g class="cartesianlayer"><g class="subplot xy"><g class="layer-subplot"><g class="shapelayer"/><g class="imagelayer"/></g><g class="gridlayer"><g class="x"/><g class="y"><path class="ygrid crisp" transform="translate(0,266.73)" d="M80,0h360" style="stroke: rgb(238, 238, 238); stroke-opacity: 1; stroke-width: 1px;"/><path class="ygrid crisp" transform="translate(0,225.97)" d="M80,0h360" style="stroke: rgb(238, 238, 238); stroke-opacity: 1; stroke-width: 1px;"/><path class="ygrid crisp" transform="translate(0,185.2)" d="M80,0h360" style="stroke: rgb(238, 238, 238); stroke-opacity: 1; stroke-width: 1px;"/><path class="ygrid crisp" transform="translate(0,144.43)" d="M80,0h360" style="stroke: rgb(238, 238, 238); stroke-opacity: 1; stroke-width: 1px;"/><path class="ygrid crisp" transform="translate(0,103.67)" d="M80,0h360" style="stroke: rgb(238, 238, 238); stroke-opacity: 1; stroke-width: 1px;"/></g></g><g class="zerolinelayer"><path class="yzl zl crisp" transform="translate(0,307.5)" d="M80,0h360" style="stroke: rgb(68, 68, 68); stroke-opacity: 1; stroke-width: 1px;"/></g><path class="xlines-below"/><path class="ylines-below"/><g class="overlines-below"/><g class="xaxislayer-below"/><g class="yaxislayer-below"/><g class="overaxes-below"/><g class="plot" transform="translate(80,70)" clip-path="url('#clip8894bexyplot')"><g class="scatterlayer mlayer"><g class="trace scatter trace1611aa" style="stroke-miterlimit: 2; opacity: 1;"><g class="fills"/><g class="errorbars"/><g class="lines"><path class="js-line" d="M0,196.47L15.65,189.38L31.3,204.25L46.96,202.36L62.61,199.07L78.26,202.39L93.91,215.56L109.57,217.21L125.22,220.01L140.87,221.34L156.52,224.51L187.83,231.07L203.48,228.29L219.13,217.55L234.78,167.9L250.43,173.99L266.09,190.34L281.74,223.38L297.39,138.49L313.04,155.08L328.7,159.26L344.35,164.81L360,196.09" style="vector-effect: non-scaling-stroke; fill: none; stroke: rgb(31, 119, 180); stroke-opacity: 1; stroke-width: 2px; opacity: 1;"/></g><g class="points"/><g class="text"/></g><g class="trace scatter tracebe0e43" style="stroke-miterlimit: 2; opacity: 1;"><g class="fills"/><g class="errorbars"/><g class="lines"><path class="js-line" d="M0,237.5L62.61,237.5L78.26,236.24L93.91,166.26L109.57,44.34L125.22,30.77L140.87,65.26L156.52,44.06L172.17,32L187.83,25.97L203.48,24.06L219.13,45.22L234.78,99.33L250.43,62.26L266.09,192.75L281.74,237.36L297.39,237.5L360,237.5" style="vector-effect: non-scaling-stroke; fill: none; stroke: rgb(255, 127, 14); stroke-opacity: 1; stroke-width: 2px; opacity: 1;"/></g><g class="points"/><g class="text"/></g><g class="trace scatter tracedf2796" style="stroke-miterlimit: 2; opacity: 1;"><g class="fills"/><g class="errorbars"/><g class="lines"><path class="js-line" d="M0,220.55L15.65,233.49L31.3,218.08L46.96,224.53L62.61,234.13L78.26,229.32L93.91,189.34L109.57,201.4L125.22,209.54L140.87,182.41L156.52,211.68L172.17,229.22L187.83,229.6L203.48,222.09L219.13,210.26L234.78,196.24L250.43,216.73L266.09,65.88L281.74,12.5L297.39,208.07L313.04,237.5L328.7,237.06L344.35,235.74L360,209.41" style="vector-effect: non-scaling-stroke; fill: none; stroke: rgb(44, 160, 44); stroke-opacity: 1; stroke-width: 2px; opacity: 1;"/></g><g class="points"/><g class="text"/></g><g class="trace scatter tracebac27a" style="stroke-miterlimit: 2; opacity: 1;"><g class="fills"/><g class="errorbars"/><g class="lines"><path class="js-line" d="M0,215.47L15.65,209.54L31.3,209.62L46.96,205.42L62.61,199.38L78.26,198.16L93.91,205.96L109.57,227.49L125.22,222.07L140.87,222.17L156.52,233.16L172.17,236.63L187.83,237.45L203.48,236.77L219.13,237.42L234.78,236.92L250.43,237.28L266.09,236.89L281.74,237.5L313.04,237.44L328.7,236.01L344.35,231.81L360,226.83" style="vector-effect: non-scaling-stroke; fill: none; stroke: rgb(214, 39, 40); stroke-opacity: 1; stroke-width: 2px; opacity: 1;"/></g><g class="points"/><g class="text"/></g></g></g><g class="overplot"/><path class="xlines-above crisp" d="M79,320.5H440" style="fill: none; stroke-width: 1px; stroke: rgb(0, 0, 0); stroke-opacity: 1;"/><path class="ylines-above crisp" d="M79.5,70V320" style="fill: none; stroke-width: 1px; stroke: rgb(0, 0, 0); stroke-opacity: 1;"/><g class="overlines-above"/><g class="xaxislayer-above"><g class="xtick"><text text-anchor="start" x="0" y="337.8" transform="translate(80,0) rotate(90,0,330.8)" style="font-family: 'Times New Roman'; font-size: 14px; fill: rgb(0, 0, 0); fill-opacity: 1; white-space: pre;">1</text></g><g class="xtick"><text text-anchor="start" x="0" y="337.8" transform="translate(95.65,0) rotate(90,0,330.8)" style="font-family: 'Times New Roman'; font-size: 14px; fill: rgb(0, 0, 0); fill-opacity: 1; white-space: pre;">2</text></g><g class="xtick"><text text-anchor="start" x="0" y="337.8" transform="translate(111.3,0) rotate(90,0,330.8)" style="font-family: 'Times New Roman'; font-size: 14px; fill: rgb(0, 0, 0); fill-opacity: 1; white-space: pre;">3</text></g><g class="xtick"><text text-anchor="start" x="0" y="337.8" transform="translate(126.96000000000001,0) rotate(90,0,330.8)" style="font-family: 'Times New Roman'; font-size: 14px; fill: rgb(0, 0, 0); fill-opacity: 1; white-space: pre;">4</text></g><g class="xtick"><text text-anchor="start" x="0" y="337.8" transform="translate(142.61,0) rotate(90,0,330.8)" style="font-family: 'Times New Roman'; font-size: 14px; fill: rgb(0, 0, 0); fill-opacity: 1; white-space: pre;">5</text></g><g class="xtick"><text text-anchor="start" x="0" y="337.8" transform="translate(158.26,0) rotate(90,0,330.8)" style="font-family: 'Times New Roman'; font-size: 14px; fill: rgb(0, 0, 0); fill-opacity: 1; white-space: pre;">6</text></g><g class="xtick"><text text-anchor="start" x="0" y="337.8" transform="translate(173.91,0) rotate(90,0,330.8)" style="font-family: 'Times New Roman'; font-size: 14px; fill: rgb(0, 0, 0); fill-opacity: 1; white-space: pre;">7</text></g><g class="xtick"><text text-anchor="start" x="0" y="337.8" transform="translate(189.57,0) rotate(90,0,330.8)" style="font-family: 'Times New Roman'; font-size: 14px; fill: rgb(0, 0, 0); fill-opacity: 1; white-space: pre;">8</text></g><g class="xtick"><text text-anchor="start" x="0" y="337.8" transform="translate(205.22,0) rotate(90,0,330.8)" style="font-family: 'Times New Roman'; font-size: 14px; fill: rgb(0, 0, 0); fill-opacity: 1; white-space: pre;">9</text></g><g class="xtick"><text text-anchor="start" x="0" y="337.8" transform="translate(220.87,0) rotate(90,0,330.8)" style="font-family: 'Times New Roman'; font-size: 14px; fill: rgb(0, 0, 0); fill-opacity: 1; white-space: pre;">10</text></g><g class="xtick"><text text-anchor="start" x="0" y="337.8" transform="translate(236.52,0) rotate(90,0,330.8)" style="font-family: 'Times New Roman'; font-size: 14px; fill: rgb(0, 0, 0); fill-opacity: 1; white-space: pre;">11</text></g><g class="xtick"><text text-anchor="start" x="0" y="337.8" transform="translate(252.17,0) rotate(90,0,330.8)" style="font-family: 'Times New Roman'; font-size: 14px; fill: rgb(0, 0, 0); fill-opacity: 1; white-space: pre;">12</text></g><g class="xtick"><text text-anchor="start" x="0" y="337.8" transform="translate(267.83000000000004,0) rotate(90,0,330.8)" style="font-family: 'Times New Roman'; font-size: 14px; fill: rgb(0, 0, 0); fill-opacity: 1; white-space: pre;">13</text></g><g class="xtick"><text text-anchor="start" x="0" y="337.8" transform="translate(283.48,0) rotate(90,0,330.8)" style="font-family: 'Times New Roman'; font-size: 14px; fill: rgb(0, 0, 0); fill-opacity: 1; white-space: pre;">14</text></g><g class="xtick"><text text-anchor="start" x="0" y="337.8" transform="translate(299.13,0) rotate(90,0,330.8)" style="font-family: 'Times New Roman'; font-size: 14px; fill: rgb(0, 0, 0); fill-opacity: 1; white-space: pre;">15</text></g><g class="xtick"><text text-anchor="start" x="0" y="337.8" transform="translate(314.78,0) rotate(90,0,330.8)" style="font-family: 'Times New Roman'; font-size: 14px; fill: rgb(0, 0, 0); fill-opacity: 1; white-space: pre;">16</text></g><g class="xtick"><text text-anchor="start" x="0" y="337.8" transform="translate(330.43,0) rotate(90,0,330.8)" style="font-family: 'Times New Roman'; font-size: 14px; fill: rgb(0, 0, 0); fill-opacity: 1; white-space: pre;">17</text></g><g class="xtick"><text text-anchor="start" x="0" y="337.8" transform="translate(346.09,0) rotate(90,0,330.8)" style="font-family: 'Times New Roman'; font-size: 14px; fill: rgb(0, 0, 0); fill-opacity: 1; white-space: pre;">18</text></g><g class="xtick"><text text-anchor="start" x="0" y="337.8" transform="translate(361.74,0) rotate(90,0,330.8)" style="font-family: 'Times New Roman'; font-size: 14px; fill: rgb(0, 0, 0); fill-opacity: 1; white-space: pre;">19</text></g><g class="xtick"><text text-anchor="start" x="0" y="337.8" transform="translate(377.39,0) rotate(90,0,330.8)" style="font-family: 'Times New Roman'; font-size: 14px; fill: rgb(0, 0, 0); fill-opacity: 1; white-space: pre;">20</text></g><g class="xtick"><text text-anchor="start" x="0" y="337.8" transform="translate(393.04,0) rotate(90,0,330.8)" style="font-family: 'Times New Roman'; font-size: 14px; fill: rgb(0, 0, 0); fill-opacity: 1; white-space: pre;">21</text></g><g class="xtick"><text text-anchor="start" x="0" y="337.8" transform="translate(408.7,0) rotate(90,0,330.8)" style="font-family: 'Times New Roman'; font-size: 14px; fill: rgb(0, 0, 0); fill-opacity: 1; white-space: pre;">22</text></g><g class="xtick"><text text-anchor="start" x="0" y="337.8" transform="translate(424.35,0) rotate(90,0,330.8)" style="font-family: 'Times New Roman'; font-size: 14px; fill: rgb(0, 0, 0); fill-opacity: 1; white-space: pre;">23</text></g><g class="xtick"><text text-anchor="start" x="0" y="337.8" transform="translate(440,0) rotate(90,0,330.8)" style="font-family: 'Times New Roman'; font-size: 14px; fill: rgb(0, 0, 0); fill-opacity: 1; white-space: pre;">24</text></g></g><g class="yaxislayer-above"><g class="ytick"><text text-anchor="end" x="76.2" y="4.8999999999999995" transform="translate(0,307.5)" style="font-family: 'Times New Roman'; font-size: 14px; fill: rgb(0, 0, 0); fill-opacity: 1; white-space: pre;">0</text></g><g class="ytick"><text text-anchor="end" x="76.2" y="4.8999999999999995" transform="translate(0,266.73)" style="font-family: 'Times New Roman'; font-size: 14px; fill: rgb(0, 0, 0); fill-opacity: 1; white-space: pre;">1</text></g><g class="ytick"><text text-anchor="end" x="76.2" y="4.8999999999999995" transform="translate(0,225.97)" style="font-family: 'Times New Roman'; font-size: 14px; fill: rgb(0, 0, 0); fill-opacity: 1; white-space: pre;">2</text></g><g class="ytick"><text text-anchor="end" x="76.2" y="4.8999999999999995" transform="translate(0,185.2)" style="font-family: 'Times New Roman'; font-size: 14px; fill: rgb(0, 0, 0); fill-opacity: 1; white-space: pre;">3</text></g><g class="ytick"><text text-anchor="end" x="76.2" y="4.8999999999999995" transform="translate(0,144.43)" style="font-family: 'Times New Roman'; font-size: 14px; fill: rgb(0, 0, 0); fill-opacity: 1; white-space: pre;">4</text></g><g class="ytick"><text text-anchor="end" x="76.2" y="4.8999999999999995" transform="translate(0,103.67)" style="font-family: 'Times New Roman'; font-size: 14px; fill: rgb(0, 0, 0); fill-opacity: 1; white-space: pre;">5</text></g></g><g class="overaxes-above"/></g></g><g class="polarlayer"/><g class="ternarylayer"/><g class="geolayer"/><g class="funnelarealayer"/><g class="pielayer"/><g class="treemaplayer"/><g class="sunburstlayer"/><g class="glimages"/><defs id="topdefs-8894be"><g class="clips"/><clipPath id="legend8894be"><rect width="346" height="53" x="0" y="0"/></clipPath></defs><g class="layer-above"><g class="imagelayer"/><g class="shapelayer"/></g><g class="infolayer"><g class="legend" pointer-events="all" transform="translate(94,12)"><rect class="bg" shape-rendering="crispEdges" width="346" height="53" x="0" y="0" style="stroke: rgb(68, 68, 68); stroke-opacity: 1; fill: rgb(255, 255, 255); fill-opacity: 1; stroke-width: 0px;"/><g class="scrollbox" transform="" clip-path="url('#legend8894be')"><text class="legendtitletext" text-anchor="start" x="2" y="18.2" style="font-family: 'Times New Roman'; font-size: 14px; fill: rgb(0, 0, 0); fill-opacity: 1; white-space: pre;">variable</text><g class="groups" transform=""><g class="traces" transform="translate(46.09375,15.6)" style="opacity: 1;"><text class="legendtext" text-anchor="start" x="40" y="5.46" style="font-family: 'Times New Roman'; font-size: 14px; fill: rgb(0, 0, 0); fill-opacity: 1; white-space: pre;">energia_descarga_bateria</text><g class="layers" style="opacity: 1;"><g class="legendfill"/><g class="legendlines"><path class="js-line" d="M5,0h30" style="fill: none; stroke: rgb(31, 119, 180); stroke-opacity: 1; stroke-width: 2px;"/></g><g class="legendsymbols"><g class="legendpoints"/></g></g><rect class="legendtoggle" x="0" y="-10.6" width="185.234375" height="21.2" style="fill: rgb(0, 0, 0); fill-opacity: 0;"/></g></g><g class="groups" transform="translate(187.734375,0)"><g class="traces" transform="translate(46.09375,15.6)" style="opacity: 1;"><text class="legendtext" text-anchor="start" x="40" y="5.46" style="font-family: 'Times New Roman'; font-size: 14px; fill: rgb(0, 0, 0); fill-opacity: 1; white-space: pre;">energia_PV</text><g class="layers" style="opacity: 1;"><g class="legendfill"/><g class="legendlines"><path class="js-line" d="M5,0h30" style="fill: none; stroke: rgb(255, 127, 14); stroke-opacity: 1; stroke-width: 2px;"/></g><g class="legendsymbols"><g class="legendpoints"/></g></g><rect class="legendtoggle" x="0" y="-10.6" width="109.4375" height="21.2" style="fill: rgb(0, 0, 0); fill-opacity: 0;"/></g></g><g class="groups" transform="translate(0,21.2)"><g class="traces" transform="translate(46.09375,15.6)" style="opacity: 1;"><text class="legendtext" text-anchor="start" x="40" y="5.46" style="font-family: 'Times New Roman'; font-size: 14px; fill: rgb(0, 0, 0); fill-opacity: 1; white-space: pre;">energia_Dg</text><g class="layers" style="opacity: 1;"><g class="legendfill"/><g class="legendlines"><path class="js-line" d="M5,0h30" style="fill: none; stroke: rgb(44, 160, 44); stroke-opacity: 1; stroke-width: 2px;"/></g><g class="legendsymbols"><g class="legendpoints"/></g></g><rect class="legendtoggle" x="0" y="-10.6" width="107.765625" height="21.2" style="fill: rgb(0, 0, 0); fill-opacity: 0;"/></g></g><g class="groups" transform="translate(110.265625,21.2)"><g class="traces" transform="translate(46.09375,15.6)" style="opacity: 1;"><text class="legendtext" text-anchor="start" x="40" y="5.46" style="font-family: 'Times New Roman'; font-size: 14px; fill: rgb(0, 0, 0); fill-opacity: 1; white-space: pre;">energia_ENS</text><g class="layers" style="opacity: 1;"><g class="legendfill"/><g class="legendlines"><path class="js-line" d="M5,0h30" style="fill: none; stroke: rgb(214, 39, 40); stroke-opacity: 1; stroke-width: 2px;"/></g><g class="legendsymbols"><g class="legendpoints"/></g></g><rect class="legendtoggle" x="0" y="-10.6" width="117.109375" height="21.2" style="fill: rgb(0, 0, 0); fill-opacity: 0;"/></g></g></g><rect class="scrollbar" rx="20" ry="3" width="0" height="0" x="0" y="0" style="fill: rgb(128, 139, 164); fill-opacity: 1;"/></g><g class="g-gtitle"/><g class="g-xtitle"><text class="xtitle" x="260" y="371.4029296875" text-anchor="middle" style="font-family: 'Times New Roman'; font-size: 17px; fill: rgb(0, 0, 0); opacity: 1; font-weight: normal; white-space: pre;">Time (hour)</text></g><g class="g-ytitle"><text class="ytitle" transform="rotate(-90,42.7875,195)" x="42.7875" y="195" text-anchor="middle" style="font-family: 'Times New Roman'; font-size: 17px; fill: rgb(0, 0, 0); opacity: 1; font-weight: normal; white-space: pre;">Energy Supply Load (kWh)</text></g></g></svg>